M48
;DRILL file {KiCad 4.0.2+dfsg1-stable} date Tue 28 Nov 2017 04:32:21 PM CST
;FORMAT={-:-/ absolute / inch / decimal}
FMAT,2
INCH,TZ
T1C0.016
T2C0.032
T3C0.040
T4C0.047
T5C0.047
T6C0.091
T7C0.126
%
G90
G05
M72
T1
X4.9872Y-3.6556
X5.0196Y-3.6411
X5.3841Y-3.2568
X5.3911Y-3.0946
X5.3923Y-3.1896
X5.4185Y-3.287
X5.4767Y-4.0223
X5.5072Y-2.9848
X5.5084Y-3.0186
X5.5287Y-2.9205
X5.5927Y-2.8012
X5.6239Y-2.8208
X5.6389Y-3.892
X5.6604Y-3.9153
X5.7Y-2.9181
X5.7Y-3.1509
X5.7039Y-3.5376
X5.7116Y-4.0435
X5.7307Y-3.689
X5.7628Y-3.6808
X5.7628Y-3.9158
X5.7817Y-3.817
T2
X5.35Y-1.9713
X5.35Y-2.05
X5.45Y-1.9713
X5.45Y-2.05
T3
X5.25Y-2.25
X5.35Y-2.25
X5.45Y-2.25
X5.85Y-2.9
X5.85Y-3.
X5.85Y-3.1
X5.85Y-3.2
X5.85Y-3.3
T4
X5.2098Y-4.2
X5.2098Y-4.4
X5.2549Y-4.3
X5.3Y-4.2
X5.3Y-4.4
X5.3451Y-4.3
X5.3902Y-4.2
X5.3902Y-4.4
X5.4352Y-4.3
X5.4803Y-4.2
X5.4803Y-4.4
X5.5254Y-4.3
X5.5705Y-4.2
X5.5705Y-4.4
T5
X5.6156Y-4.3
T6
X5.1638Y-1.865
X5.6362Y-1.865
T7
X4.9079Y-4.3
X5.8921Y-4.3
T0
M30
