M48
;DRILL file {KiCad 4.0.6+dfsg1-1} date Wed Jan 10 10:56:13 2018
;FORMAT={-:-/ absolute / inch / decimal}
FMAT,2
INCH,TZ
T1C0.016
T2C0.032
T3C0.039
T4C0.043
T5C0.047
T6C0.047
T7C0.091
T8C0.126
%
G90
G05
M72
T1
X0.8999Y-0.3459
X1.1621Y-0.9964
X1.2286Y-0.8598
X1.2435Y-0.7522
X1.2501Y-0.9203
X1.2815Y-0.9582
X1.2847Y-0.7244
X1.297Y-0.6332
X1.3221Y-0.7276
X1.3752Y-0.7258
X1.4052Y-0.6311
X1.4509Y-0.7252
X1.4641Y-0.6331
X1.4749Y-0.7891
X1.6967Y-0.2893
X2.4347Y-1.5797
T2
X2.15Y-0.8358
X2.15Y-0.9358
X2.2287Y-0.8358
X2.2287Y-0.9358
T3
X0.85Y-1.425
X0.95Y-1.425
X1.175Y-0.375
X1.275Y-0.375
X1.375Y-0.375
X1.475Y-0.375
X1.575Y-0.375
X1.925Y-1.425
X2.025Y-1.425
X2.125Y-1.425
T4
X1.225Y-1.35
X1.225Y-1.5272
X1.4809Y-1.35
X1.4809Y-1.5272
T5
X0.35Y-0.6957
X0.35Y-0.7858
X0.35Y-0.876
X0.35Y-0.9661
X0.35Y-1.0563
X0.45Y-0.7407
X0.45Y-0.8309
X0.45Y-0.9211
X0.45Y-1.0112
X0.55Y-0.6957
X0.55Y-0.7858
X0.55Y-0.876
X0.55Y-0.9661
X0.55Y-1.0563
T6
X0.45Y-1.1014
T7
X2.335Y-0.6496
X2.335Y-1.122
T8
X0.45Y-0.3937
X0.45Y-1.3779
T0
M30
