M48
;DRILL file {KiCad 4.0.2+dfsg1-stable} date Wed 27 Dec 2017 07:46:34 PM CST
;FORMAT={-:-/ absolute / inch / decimal}
FMAT,2
INCH,TZ
T1C0.016
T2C0.032
T3C0.039
T4C0.043
T5C0.047
T6C0.047
T7C0.091
T8C0.126
%
G90
G05
M72
T1
X0.3891Y-0.4872
X0.4873Y-0.5128
X0.4888Y-0.4616
X0.5358Y-0.7798
X0.5546Y-1.5797
X0.7086Y-0.5337
X0.7157Y-0.4996
X0.9963Y-1.1254
X1.0371Y-1.0358
X1.1394Y-0.6347
X1.2242Y-1.4975
X1.3834Y-0.9083
X1.3843Y-0.9577
X1.5851Y-0.6751
X1.6252Y-0.4404
X1.6258Y-0.4773
X1.6295Y-0.9103
X1.6594Y-0.6749
X1.6761Y-0.5829
X1.7067Y-0.6741
T2
X2.4Y-0.8
X2.4Y-0.9
X2.4787Y-0.8
X2.4787Y-0.9
T3
X0.9Y-0.45
X0.9Y-0.55
X0.9Y-1.1
X0.9Y-1.2
X1.15Y-1.65
X1.25Y-1.65
X1.5Y-1.65
X1.6Y-1.65
X1.7Y-1.65
X1.8Y-1.65
X1.9Y-1.65
X2.2Y-0.75
X2.2Y-0.85
X2.2Y-0.95
T4
X2.4728Y-1.35
X2.4728Y-1.6059
X2.65Y-1.35
X2.65Y-1.6059
T5
X0.1Y-0.6598
X0.1Y-0.75
X0.1Y-0.8402
X0.1Y-0.9303
X0.1Y-1.0205
X0.2Y-0.7049
X0.2Y-0.7951
X0.2Y-0.8852
X0.2Y-0.9754
X0.3Y-0.6598
X0.3Y-0.75
X0.3Y-0.8402
X0.3Y-0.9303
X0.3Y-1.0205
T6
X0.2Y-1.0656
T7
X2.585Y-0.6138
X2.585Y-1.0862
T8
X0.2Y-0.3579
X0.2Y-1.3421
T0
M30
