G04 #@! TF.FileFunction,Copper,L1,Top,Signal*
%FSLAX46Y46*%
G04 Gerber Fmt 4.6, Leading zero omitted, Abs format (unit mm)*
G04 Created by KiCad (PCBNEW 4.0.2+dfsg1-stable) date Tue 21 Nov 2017 04:08:45 PM CST*
%MOMM*%
G01*
G04 APERTURE LIST*
%ADD10C,0.100000*%
%ADD11R,3.000000X2.200000*%
%ADD12R,2.600960X1.600200*%
%ADD13R,2.200000X3.000000*%
%ADD14R,1.597660X1.800860*%
%ADD15C,4.064000*%
%ADD16C,1.600200*%
%ADD17R,1.727200X2.032000*%
%ADD18O,1.727200X2.032000*%
%ADD19C,1.524000*%
%ADD20C,2.700020*%
%ADD21R,2.032000X1.727200*%
%ADD22O,2.032000X1.727200*%
%ADD23R,2.000000X2.500000*%
%ADD24R,3.657600X2.032000*%
%ADD25R,1.016000X2.032000*%
%ADD26R,1.600000X0.300000*%
%ADD27R,0.350520X1.399540*%
%ADD28R,2.100580X5.600700*%
%ADD29R,1.800860X1.597660*%
%ADD30R,2.500000X2.000000*%
%ADD31C,0.600000*%
%ADD32C,0.250000*%
%ADD33C,0.254000*%
G04 APERTURE END LIST*
D10*
D11*
X125730000Y-77830000D03*
X125730000Y-72030000D03*
X125730000Y-82190000D03*
X125730000Y-87990000D03*
D12*
X131340860Y-66040000D03*
X127739140Y-66040000D03*
D11*
X144780000Y-75840000D03*
X144780000Y-81640000D03*
D13*
X135530000Y-85090000D03*
X141330000Y-85090000D03*
D11*
X121920000Y-94890000D03*
X121920000Y-100690000D03*
D12*
X120119140Y-66040000D03*
X123720860Y-66040000D03*
D11*
X151130000Y-94890000D03*
X151130000Y-100690000D03*
X120650000Y-61320000D03*
X120650000Y-55520000D03*
X140970000Y-100690000D03*
X140970000Y-94890000D03*
X132080000Y-94890000D03*
X132080000Y-100690000D03*
D14*
X125879860Y-46990000D03*
X123040140Y-46990000D03*
D15*
X149659340Y-109220000D03*
X124660660Y-109220000D03*
D16*
X132330000Y-111760000D03*
X133475000Y-109220000D03*
X134620000Y-111760000D03*
X136910000Y-111760000D03*
X139200000Y-111760000D03*
X141490000Y-111760000D03*
X135765000Y-109220000D03*
X138055000Y-109220000D03*
X140345000Y-109220000D03*
X142635000Y-109220000D03*
X132330000Y-106680000D03*
X134620000Y-106680000D03*
X136910000Y-106680000D03*
X139200000Y-106680000D03*
X141490000Y-106680000D03*
D17*
X138430000Y-57150000D03*
D18*
X135890000Y-57150000D03*
X133350000Y-57150000D03*
D19*
X138430000Y-52070000D03*
X135890000Y-52070000D03*
X135890000Y-50071020D03*
X138430000Y-50071020D03*
D20*
X143159480Y-47371000D03*
X131160520Y-47371000D03*
D21*
X148590000Y-73660000D03*
D22*
X148590000Y-76200000D03*
X148590000Y-78740000D03*
X148590000Y-81280000D03*
X148590000Y-83820000D03*
D23*
X126460000Y-50800000D03*
X122460000Y-50800000D03*
X134080000Y-90170000D03*
X130080000Y-90170000D03*
X140430000Y-72390000D03*
X136430000Y-72390000D03*
D24*
X127000000Y-55118000D03*
D25*
X127000000Y-61722000D03*
X129286000Y-61722000D03*
X124714000Y-61722000D03*
D26*
X141230000Y-76465000D03*
X141230000Y-75815000D03*
X141230000Y-77115000D03*
X141230000Y-77765000D03*
X141230000Y-78415000D03*
X141230000Y-79065000D03*
X141230000Y-79715000D03*
X141230000Y-80365000D03*
X135630000Y-81665000D03*
X135630000Y-81015000D03*
X135630000Y-80365000D03*
X135630000Y-79715000D03*
X135630000Y-75815000D03*
X135630000Y-76465000D03*
X135630000Y-77115000D03*
X135630000Y-77765000D03*
X135630000Y-78415000D03*
X135630000Y-79065000D03*
X141230000Y-81015000D03*
X141230000Y-81665000D03*
D27*
X143774160Y-100665280D03*
X144424400Y-100665280D03*
X145074640Y-100665280D03*
X145724880Y-100665280D03*
X146375120Y-100665280D03*
X147025360Y-100665280D03*
X147675600Y-100665280D03*
X148325840Y-100665280D03*
X148325840Y-94914720D03*
X147675600Y-94914720D03*
X147025360Y-94914720D03*
X146375120Y-94914720D03*
X145724880Y-94914720D03*
X145074640Y-94914720D03*
X144424400Y-94914720D03*
X143774160Y-94914720D03*
X124724160Y-100665280D03*
X125374400Y-100665280D03*
X126024640Y-100665280D03*
X126674880Y-100665280D03*
X127325120Y-100665280D03*
X127975360Y-100665280D03*
X128625600Y-100665280D03*
X129275840Y-100665280D03*
X129275840Y-94914720D03*
X128625600Y-94914720D03*
X127975360Y-94914720D03*
X127325120Y-94914720D03*
X126674880Y-94914720D03*
X126024640Y-94914720D03*
X125374400Y-94914720D03*
X124724160Y-94914720D03*
D28*
X130810000Y-75161140D03*
X130810000Y-84858860D03*
D13*
X147680000Y-90170000D03*
X141880000Y-90170000D03*
D29*
X121920000Y-82699860D03*
X121920000Y-79860140D03*
D30*
X121920000Y-90900000D03*
X121920000Y-86900000D03*
D31*
X146854400Y-96951300D03*
X143774200Y-99447600D03*
X140430000Y-74180600D03*
X144780000Y-80032000D03*
X144780000Y-74119800D03*
X139107600Y-102167600D03*
X145074600Y-102705400D03*
X143229200Y-98855800D03*
X146375100Y-99461200D03*
X142847400Y-71647800D03*
X142053500Y-71151500D03*
X139883900Y-75815000D03*
X126674900Y-92851900D03*
X139913500Y-76672500D03*
X127498300Y-92485000D03*
X136934300Y-78603300D03*
X144879000Y-89854500D03*
X136755300Y-82722600D03*
X145559500Y-93699400D03*
X136963300Y-81016500D03*
X146375100Y-93493000D03*
X137630100Y-83490400D03*
D32*
X125730000Y-77830000D02*
X125730000Y-76404700D01*
X126973600Y-75161100D02*
X130810000Y-75161100D01*
X125730000Y-76404700D02*
X126973600Y-75161100D01*
X133489500Y-76465000D02*
X135630000Y-76465000D01*
X132185600Y-75161100D02*
X133489500Y-76465000D01*
X130810000Y-75161100D02*
X132185600Y-75161100D01*
X123040100Y-46990000D02*
X122478100Y-46990000D01*
X123703900Y-45764200D02*
X122478100Y-46990000D01*
X129553700Y-45764200D02*
X123703900Y-45764200D01*
X131160500Y-47371000D02*
X129553700Y-45764200D01*
X120650000Y-48818100D02*
X120650000Y-55520000D01*
X122478100Y-46990000D02*
X120650000Y-48818100D01*
X141330000Y-85090000D02*
X142755300Y-85090000D01*
X142755300Y-88382000D02*
X142755300Y-85090000D01*
X141880000Y-89257300D02*
X142755300Y-88382000D01*
X123720900Y-66040000D02*
X123720900Y-67165400D01*
X141880000Y-90170000D02*
X141880000Y-89257300D01*
X125730000Y-72030000D02*
X125730000Y-73455300D01*
X127739100Y-66040000D02*
X127739100Y-64914600D01*
X143774200Y-99447600D02*
X143774200Y-100665300D01*
X141880000Y-90170000D02*
X141880000Y-91995300D01*
X121920000Y-77265300D02*
X121920000Y-79860100D01*
X125730000Y-73455300D02*
X121920000Y-77265300D01*
X123495400Y-84330100D02*
X125730000Y-86564700D01*
X123495400Y-81997600D02*
X123495400Y-84330100D01*
X122482000Y-80984200D02*
X123495400Y-81997600D01*
X121920000Y-80984200D02*
X122482000Y-80984200D01*
X121920000Y-79860100D02*
X121920000Y-80984200D01*
X125730000Y-69174500D02*
X123720900Y-67165400D01*
X125730000Y-72030000D02*
X125730000Y-69174500D01*
X127739100Y-63682600D02*
X127739100Y-64914600D01*
X127390700Y-63334200D02*
X127739100Y-63682600D01*
X124714000Y-61722000D02*
X124714000Y-62950700D01*
X123720900Y-66040000D02*
X123720900Y-64914600D01*
X124714000Y-63334200D02*
X127390700Y-63334200D01*
X124714000Y-62950700D02*
X124714000Y-63334200D01*
X124714000Y-63921500D02*
X123720900Y-64914600D01*
X124714000Y-63334200D02*
X124714000Y-63921500D01*
X151130000Y-100690000D02*
X149304700Y-100690000D01*
X124724200Y-100665300D02*
X124724200Y-100537100D01*
X121920000Y-100690000D02*
X123745300Y-100690000D01*
X149304700Y-99401600D02*
X146854400Y-96951300D01*
X149304700Y-100690000D02*
X149304700Y-99401600D01*
X141606000Y-96951300D02*
X140970000Y-96315300D01*
X146854400Y-96951300D02*
X141606000Y-96951300D01*
X125730000Y-87990000D02*
X125730000Y-86564700D01*
X140430000Y-72390000D02*
X140430000Y-74180600D01*
X144780000Y-81640000D02*
X144780000Y-80214700D01*
X144780000Y-80214700D02*
X144780000Y-80032000D01*
X143813000Y-79065000D02*
X144780000Y-80032000D01*
X141230000Y-79065000D02*
X143813000Y-79065000D01*
X123898200Y-100537100D02*
X123745300Y-100690000D01*
X124724200Y-100537100D02*
X123898200Y-100537100D01*
X140970000Y-94890000D02*
X140970000Y-96315300D01*
X140970000Y-94890000D02*
X140970000Y-93464700D01*
X140970000Y-92905300D02*
X141880000Y-91995300D01*
X140970000Y-93464700D02*
X140970000Y-92905300D01*
X128452600Y-62272300D02*
X127390700Y-63334200D01*
X128452600Y-60499800D02*
X128452600Y-62272300D01*
X131802400Y-57150000D02*
X128452600Y-60499800D01*
X133350000Y-57150000D02*
X131802400Y-57150000D01*
X133350000Y-52611000D02*
X135890000Y-50071000D01*
X133350000Y-57150000D02*
X133350000Y-52611000D01*
X132080000Y-100690000D02*
X132080000Y-99264700D01*
X129203100Y-96387700D02*
X132080000Y-99264700D01*
X130254600Y-95336200D02*
X129203100Y-96387700D01*
X130254600Y-93652100D02*
X130254600Y-95336200D01*
X130442000Y-93464700D02*
X130254600Y-93652100D01*
X140970000Y-93464700D02*
X130442000Y-93464700D01*
X124724200Y-99955600D02*
X124724200Y-100537100D01*
X127600400Y-97079400D02*
X124724200Y-99955600D01*
X128511400Y-97079400D02*
X127600400Y-97079400D01*
X129203100Y-96387700D02*
X128511400Y-97079400D01*
X130199900Y-88594700D02*
X130080000Y-88594700D01*
X130810000Y-87984600D02*
X130199900Y-88594700D01*
X130080000Y-90170000D02*
X130080000Y-88594700D01*
X130810000Y-84858900D02*
X130810000Y-85318600D01*
X130810000Y-85318600D02*
X130810000Y-87984600D01*
X125730000Y-82190000D02*
X125730000Y-83615300D01*
X129106700Y-83615300D02*
X125730000Y-83615300D01*
X130810000Y-85318600D02*
X129106700Y-83615300D01*
X135890000Y-52070000D02*
X135890000Y-57150000D01*
X131340900Y-66040000D02*
X132966700Y-66040000D01*
X131137300Y-64914600D02*
X131340900Y-64914600D01*
X129286000Y-63063300D02*
X131137300Y-64914600D01*
X129286000Y-61722000D02*
X129286000Y-63063300D01*
X131340900Y-66040000D02*
X131340900Y-64914600D01*
X135890000Y-57150000D02*
X135890000Y-65539700D01*
X133467000Y-65539700D02*
X132966700Y-66040000D01*
X135890000Y-65539700D02*
X133467000Y-65539700D01*
X132080000Y-94890000D02*
X132080000Y-96202700D01*
X128625600Y-100665300D02*
X128625600Y-99640200D01*
X140970000Y-100690000D02*
X139144700Y-100690000D01*
X135142000Y-100690000D02*
X139144700Y-100690000D01*
X135142000Y-99264700D02*
X135142000Y-100690000D01*
X132080000Y-96202700D02*
X135142000Y-99264700D01*
X129616200Y-99640200D02*
X128625600Y-99640200D01*
X130136900Y-100160900D02*
X129616200Y-99640200D01*
X130136900Y-101832100D02*
X130136900Y-100160900D01*
X130420200Y-102115400D02*
X130136900Y-101832100D01*
X133716600Y-102115400D02*
X130420200Y-102115400D01*
X135142000Y-100690000D02*
X133716600Y-102115400D01*
X142048200Y-98186500D02*
X140970000Y-99264700D01*
X146221900Y-98186500D02*
X142048200Y-98186500D01*
X147675600Y-99640200D02*
X146221900Y-98186500D01*
X147675600Y-100665300D02*
X147675600Y-99640200D01*
X140970000Y-100690000D02*
X140970000Y-99264700D01*
X149318000Y-102115400D02*
X148931400Y-101728800D01*
X152848400Y-102115400D02*
X149318000Y-102115400D01*
X152955400Y-102008400D02*
X152848400Y-102115400D01*
X152955400Y-75651900D02*
X152955400Y-102008400D01*
X142843200Y-65539700D02*
X152955400Y-75651900D01*
X135890000Y-65539700D02*
X142843200Y-65539700D01*
X141759500Y-107805500D02*
X140345000Y-109220000D01*
X142854700Y-107805500D02*
X141759500Y-107805500D01*
X148931400Y-101728800D02*
X142854700Y-107805500D01*
X148653500Y-99640200D02*
X147675600Y-99640200D01*
X148854300Y-99841000D02*
X148653500Y-99640200D01*
X148854300Y-101651700D02*
X148854300Y-99841000D01*
X148931400Y-101728800D02*
X148854300Y-101651700D01*
X120650000Y-61320000D02*
X120650000Y-62745300D01*
X120650000Y-61320000D02*
X122475300Y-61320000D01*
X127000000Y-61722000D02*
X127000000Y-60380700D01*
X133049000Y-50800000D02*
X126460000Y-50800000D01*
X134866300Y-48982700D02*
X133049000Y-50800000D01*
X136383000Y-48982700D02*
X134866300Y-48982700D01*
X137241100Y-49840800D02*
X136383000Y-48982700D01*
X137241100Y-57150000D02*
X137241100Y-49840800D01*
X138430000Y-57150000D02*
X137241100Y-57150000D01*
X126460000Y-50800000D02*
X125134700Y-50800000D01*
X124827500Y-51107200D02*
X125134700Y-50800000D01*
X124827500Y-60366700D02*
X124827500Y-51107200D01*
X123428600Y-60366700D02*
X124827500Y-60366700D01*
X122475300Y-61320000D02*
X123428600Y-60366700D01*
X126986000Y-60366700D02*
X127000000Y-60380700D01*
X124827500Y-60366700D02*
X126986000Y-60366700D01*
X120119100Y-63276200D02*
X120119100Y-66040000D01*
X120650000Y-62745300D02*
X120119100Y-63276200D01*
X121741800Y-93464700D02*
X121920000Y-93464700D01*
X120119100Y-91842000D02*
X121741800Y-93464700D01*
X120119100Y-66040000D02*
X120119100Y-91842000D01*
X121920000Y-94890000D02*
X121920000Y-93464700D01*
X149304700Y-95283800D02*
X149304700Y-94890000D01*
X148648700Y-95939800D02*
X149304700Y-95283800D01*
X147675600Y-95939800D02*
X148648700Y-95939800D01*
X147675600Y-94914700D02*
X147675600Y-95939800D01*
X151130000Y-94890000D02*
X149304700Y-94890000D01*
X123745300Y-95283800D02*
X123745300Y-94890000D01*
X124401300Y-95939800D02*
X123745300Y-95283800D01*
X128625600Y-95939800D02*
X124401300Y-95939800D01*
X128625600Y-94914700D02*
X128625600Y-95939800D01*
X121920000Y-94890000D02*
X123745300Y-94890000D01*
X141230000Y-78415000D02*
X140104700Y-78415000D01*
X135530000Y-85090000D02*
X136955300Y-85090000D01*
X141230000Y-78415000D02*
X142355300Y-78415000D01*
X143505000Y-77265300D02*
X142355300Y-78415000D01*
X144780000Y-77265300D02*
X143505000Y-77265300D01*
X144780000Y-75840000D02*
X144780000Y-77265300D01*
X149304700Y-93495900D02*
X149304700Y-94890000D01*
X149961200Y-92839400D02*
X149304700Y-93495900D01*
X149961200Y-75700000D02*
X149961200Y-92839400D01*
X149110100Y-74848900D02*
X149961200Y-75700000D01*
X148590000Y-74848900D02*
X149110100Y-74848900D01*
X148590000Y-73660000D02*
X148590000Y-74848900D01*
X138432300Y-83613000D02*
X136955300Y-85090000D01*
X138432300Y-80087400D02*
X138432300Y-83613000D01*
X140104700Y-78415000D02*
X138432300Y-80087400D01*
X144780000Y-75840000D02*
X144780000Y-74414700D01*
X144780000Y-74414700D02*
X144780000Y-74119800D01*
X124755800Y-49829500D02*
X124755800Y-46990000D01*
X123785300Y-50800000D02*
X124755800Y-49829500D01*
X122460000Y-50800000D02*
X123785300Y-50800000D01*
X125879900Y-46990000D02*
X124755800Y-46990000D01*
X143947200Y-102167600D02*
X139107600Y-102167600D01*
X144424400Y-101690400D02*
X143947200Y-102167600D01*
X144424400Y-100665300D02*
X144424400Y-101690400D01*
X134404000Y-111760000D02*
X134620000Y-111760000D01*
X126674900Y-104030900D02*
X134404000Y-111760000D01*
X126674900Y-100665300D02*
X126674900Y-104030900D01*
X136663600Y-111760000D02*
X136910000Y-111760000D01*
X134620000Y-109716400D02*
X136663600Y-111760000D01*
X134620000Y-108771400D02*
X134620000Y-109716400D01*
X133673600Y-107825000D02*
X134620000Y-108771400D01*
X131878300Y-107825000D02*
X133673600Y-107825000D01*
X127325100Y-103271800D02*
X131878300Y-107825000D01*
X127325100Y-100665300D02*
X127325100Y-103271800D01*
X138953600Y-111760000D02*
X139200000Y-111760000D01*
X136910000Y-109716400D02*
X138953600Y-111760000D01*
X136910000Y-108321300D02*
X136910000Y-109716400D01*
X135765000Y-107176300D02*
X136910000Y-108321300D01*
X135765000Y-106203500D02*
X135765000Y-107176300D01*
X135032300Y-105470800D02*
X135765000Y-106203500D01*
X131755800Y-105470800D02*
X135032300Y-105470800D01*
X127975400Y-101690400D02*
X131755800Y-105470800D01*
X127975400Y-100665300D02*
X127975400Y-101690400D01*
X129275800Y-100665300D02*
X129275800Y-101690400D01*
X141275200Y-111760000D02*
X141490000Y-111760000D01*
X139200000Y-109684800D02*
X141275200Y-111760000D01*
X139200000Y-108723700D02*
X139200000Y-109684800D01*
X138055000Y-107578700D02*
X139200000Y-108723700D01*
X138055000Y-106219600D02*
X138055000Y-107578700D01*
X135009300Y-103173900D02*
X138055000Y-106219600D01*
X130759300Y-103173900D02*
X135009300Y-103173900D01*
X129275800Y-101690400D02*
X130759300Y-103173900D01*
X145074600Y-100665300D02*
X145074600Y-102705400D01*
X145724900Y-100665300D02*
X145724900Y-99640200D01*
X143262800Y-98822200D02*
X143229200Y-98855800D01*
X144906900Y-98822200D02*
X143262800Y-98822200D01*
X145724900Y-99640200D02*
X144906900Y-98822200D01*
X146375100Y-100665300D02*
X146375100Y-99461200D01*
X141495900Y-104384100D02*
X139200000Y-106680000D01*
X144331700Y-104384100D02*
X141495900Y-104384100D01*
X147025400Y-101690400D02*
X144331700Y-104384100D01*
X147025400Y-100665300D02*
X147025400Y-101690400D01*
X143336200Y-106680000D02*
X141490000Y-106680000D01*
X148325800Y-101690400D02*
X143336200Y-106680000D01*
X148325800Y-100665300D02*
X148325800Y-101690400D01*
X141230000Y-77115000D02*
X142355300Y-77115000D01*
X142847400Y-76622900D02*
X142847400Y-71647800D01*
X142355300Y-77115000D02*
X142847400Y-76622900D01*
X141230000Y-77765000D02*
X140104700Y-77765000D01*
X139227100Y-76887400D02*
X140104700Y-77765000D01*
X139227100Y-75573000D02*
X139227100Y-76887400D01*
X139650600Y-75149500D02*
X139227100Y-75573000D01*
X140474200Y-75149500D02*
X139650600Y-75149500D01*
X142053500Y-73570200D02*
X140474200Y-75149500D01*
X142053500Y-71151500D02*
X142053500Y-73570200D01*
X141230000Y-75815000D02*
X140104700Y-75815000D01*
X126674900Y-94914700D02*
X126674900Y-92851900D01*
X140104700Y-75815000D02*
X139883900Y-75815000D01*
X141230000Y-76465000D02*
X140104700Y-76465000D01*
X127325100Y-92658200D02*
X127498300Y-92485000D01*
X127325100Y-94914700D02*
X127325100Y-92658200D01*
X139913500Y-76656200D02*
X139913500Y-76672500D01*
X140104700Y-76465000D02*
X139913500Y-76656200D01*
X148590000Y-87434700D02*
X147680000Y-88344700D01*
X148590000Y-83820000D02*
X148590000Y-87434700D01*
X147680000Y-90170000D02*
X147680000Y-88344700D01*
X135630000Y-78415000D02*
X136755300Y-78415000D01*
X136755300Y-78424300D02*
X136934300Y-78603300D01*
X136755300Y-78415000D02*
X136755300Y-78424300D01*
X134080000Y-77539700D02*
X134080000Y-88594700D01*
X134504700Y-77115000D02*
X134080000Y-77539700D01*
X135630000Y-77115000D02*
X134504700Y-77115000D01*
X134080000Y-90170000D02*
X134080000Y-88594700D01*
X136755300Y-74290600D02*
X136430000Y-73965300D01*
X136755300Y-75815000D02*
X136755300Y-74290600D01*
X135630000Y-75815000D02*
X136755300Y-75815000D01*
X136430000Y-72390000D02*
X136430000Y-73965300D01*
X143774200Y-94914700D02*
X143774200Y-93889600D01*
X141230000Y-79715000D02*
X142355300Y-79715000D01*
X124724200Y-94514700D02*
X124724200Y-94914700D01*
X142355300Y-82417600D02*
X142355300Y-79715000D01*
X143774200Y-83836500D02*
X142355300Y-82417600D01*
X143774200Y-93889600D02*
X143774200Y-83836500D01*
X124724200Y-94514700D02*
X124724200Y-94002200D01*
X141230000Y-79715000D02*
X140104700Y-79715000D01*
X124724200Y-94002200D02*
X124724200Y-93889600D01*
X123059900Y-92225300D02*
X121920000Y-92225300D01*
X124724200Y-93889600D02*
X123059900Y-92225300D01*
X121920000Y-90900000D02*
X121920000Y-92225300D01*
X126791200Y-91822600D02*
X124724200Y-93889600D01*
X135162800Y-91822600D02*
X126791200Y-91822600D01*
X138882700Y-88102700D02*
X135162800Y-91822600D01*
X138882700Y-80937000D02*
X138882700Y-88102700D01*
X140104700Y-79715000D02*
X138882700Y-80937000D01*
X127975400Y-94914700D02*
X127975400Y-93889600D01*
X129400900Y-92464100D02*
X127975400Y-93889600D01*
X135191600Y-92464100D02*
X129400900Y-92464100D01*
X139333100Y-88322600D02*
X135191600Y-92464100D01*
X139333100Y-81136600D02*
X139333100Y-88322600D01*
X140104700Y-80365000D02*
X139333100Y-81136600D01*
X141230000Y-80365000D02*
X140104700Y-80365000D01*
X135630000Y-81665000D02*
X136755300Y-81665000D01*
X136755300Y-81665000D02*
X136755300Y-82722600D01*
X144879000Y-93903300D02*
X144879000Y-89854500D01*
X145074600Y-94098900D02*
X144879000Y-93903300D01*
X145074600Y-94914700D02*
X145074600Y-94098900D01*
X135630000Y-81015000D02*
X136755300Y-81015000D01*
X136756800Y-81016500D02*
X136755300Y-81015000D01*
X136963300Y-81016500D02*
X136756800Y-81016500D01*
X145724900Y-93864800D02*
X145559500Y-93699400D01*
X145724900Y-94914700D02*
X145724900Y-93864800D01*
X146375100Y-94914700D02*
X146375100Y-93493000D01*
X137630100Y-80742700D02*
X137630100Y-83490400D01*
X137252400Y-80365000D02*
X137630100Y-80742700D01*
X135630000Y-80365000D02*
X137252400Y-80365000D01*
X137456100Y-79715000D02*
X135630000Y-79715000D01*
X138466000Y-78705100D02*
X137456100Y-79715000D01*
X138466000Y-71638700D02*
X138466000Y-78705100D01*
X139578500Y-70526200D02*
X138466000Y-71638700D01*
X142632500Y-70526200D02*
X139578500Y-70526200D01*
X146635100Y-74528800D02*
X142632500Y-70526200D01*
X146635100Y-87517900D02*
X146635100Y-74528800D01*
X145797100Y-88355900D02*
X146635100Y-87517900D01*
X145797100Y-92030300D02*
X145797100Y-88355900D01*
X147025400Y-93258600D02*
X145797100Y-92030300D01*
X147025400Y-94914700D02*
X147025400Y-93258600D01*
X148325800Y-94914700D02*
X148325800Y-93889600D01*
X136480200Y-79065000D02*
X135630000Y-79065000D01*
X136673800Y-79258600D02*
X136480200Y-79065000D01*
X137163600Y-79258600D02*
X136673800Y-79258600D01*
X137985200Y-78437000D02*
X137163600Y-79258600D01*
X137985200Y-71409900D02*
X137985200Y-78437000D01*
X139319200Y-70075900D02*
X137985200Y-71409900D01*
X142819100Y-70075900D02*
X139319200Y-70075900D01*
X147124400Y-74381200D02*
X142819100Y-70075900D01*
X147124400Y-87665500D02*
X147124400Y-74381200D01*
X146254700Y-88535200D02*
X147124400Y-87665500D01*
X146254700Y-91818500D02*
X146254700Y-88535200D01*
X148325800Y-93889600D02*
X146254700Y-91818500D01*
X139900400Y-81219300D02*
X140104700Y-81015000D01*
X139900400Y-88392200D02*
X139900400Y-81219300D01*
X135278300Y-93014300D02*
X139900400Y-88392200D01*
X130151100Y-93014300D02*
X135278300Y-93014300D01*
X129275800Y-93889600D02*
X130151100Y-93014300D01*
X129275800Y-94914700D02*
X129275800Y-93889600D01*
X141230000Y-81015000D02*
X140104700Y-81015000D01*
X141230000Y-81929200D02*
X141230000Y-81665000D01*
X143317900Y-84017100D02*
X141230000Y-81929200D01*
X143317900Y-92423400D02*
X143317900Y-84017100D01*
X143219900Y-92521400D02*
X143317900Y-92423400D01*
X143219900Y-95737600D02*
X143219900Y-92521400D01*
X143422100Y-95939800D02*
X143219900Y-95737600D01*
X144424400Y-95939800D02*
X143422100Y-95939800D01*
X144424400Y-94914700D02*
X144424400Y-95939800D01*
X121920000Y-86900000D02*
X121920000Y-82699900D01*
D33*
G36*
X129175166Y-47764111D02*
X129476729Y-48493949D01*
X130034634Y-49052829D01*
X130763945Y-49355665D01*
X131553631Y-49356354D01*
X132283469Y-49054791D01*
X132842349Y-48496886D01*
X133145185Y-47767575D01*
X133145753Y-47117000D01*
X141174691Y-47117000D01*
X141174126Y-47764111D01*
X141475689Y-48493949D01*
X142033594Y-49052829D01*
X142762905Y-49355665D01*
X143552591Y-49356354D01*
X144282429Y-49054791D01*
X144841309Y-48496886D01*
X145144145Y-47767575D01*
X145144713Y-47117000D01*
X151077394Y-47117000D01*
X153543000Y-49582606D01*
X153543000Y-75189627D01*
X153492801Y-75114499D01*
X143380601Y-65002299D01*
X143134039Y-64837552D01*
X142843200Y-64779700D01*
X136650000Y-64779700D01*
X136650000Y-58594648D01*
X136949670Y-58394415D01*
X136964500Y-58372220D01*
X137028073Y-58525698D01*
X137206701Y-58704327D01*
X137440090Y-58801000D01*
X138144250Y-58801000D01*
X138303000Y-58642250D01*
X138303000Y-57277000D01*
X138557000Y-57277000D01*
X138557000Y-58642250D01*
X138715750Y-58801000D01*
X139419910Y-58801000D01*
X139653299Y-58704327D01*
X139831927Y-58525698D01*
X139928600Y-58292309D01*
X139928600Y-57435750D01*
X139769850Y-57277000D01*
X138557000Y-57277000D01*
X138303000Y-57277000D01*
X138283000Y-57277000D01*
X138283000Y-57023000D01*
X138303000Y-57023000D01*
X138303000Y-55657750D01*
X138557000Y-55657750D01*
X138557000Y-57023000D01*
X139769850Y-57023000D01*
X139928600Y-56864250D01*
X139928600Y-56007691D01*
X139831927Y-55774302D01*
X139653299Y-55595673D01*
X139419910Y-55499000D01*
X138715750Y-55499000D01*
X138557000Y-55657750D01*
X138303000Y-55657750D01*
X138144250Y-55499000D01*
X137440090Y-55499000D01*
X137206701Y-55595673D01*
X137028073Y-55774302D01*
X136964500Y-55927780D01*
X136949670Y-55905585D01*
X136650000Y-55705352D01*
X136650000Y-53267531D01*
X136680303Y-53255010D01*
X137073629Y-52862370D01*
X137159949Y-52654488D01*
X137244990Y-52860303D01*
X137637630Y-53253629D01*
X138150900Y-53466757D01*
X138706661Y-53467242D01*
X139220303Y-53255010D01*
X139613629Y-52862370D01*
X139826757Y-52349100D01*
X139827242Y-51793339D01*
X139615010Y-51279697D01*
X139406168Y-51070490D01*
X139613629Y-50863390D01*
X139826757Y-50350120D01*
X139827242Y-49794359D01*
X139615010Y-49280717D01*
X139222370Y-48887391D01*
X138709100Y-48674263D01*
X138153339Y-48673778D01*
X137639697Y-48886010D01*
X137246371Y-49278650D01*
X137160051Y-49486532D01*
X137075010Y-49280717D01*
X136682370Y-48887391D01*
X136169100Y-48674263D01*
X135613339Y-48673778D01*
X135099697Y-48886010D01*
X134706371Y-49278650D01*
X134493243Y-49791920D01*
X134492758Y-50347681D01*
X134506137Y-50380061D01*
X132812599Y-52073599D01*
X132647852Y-52320161D01*
X132590000Y-52611000D01*
X132590000Y-55705352D01*
X132290330Y-55905585D01*
X131966654Y-56390000D01*
X131802400Y-56390000D01*
X131511561Y-56447852D01*
X131264999Y-56612599D01*
X127915199Y-59962399D01*
X127797475Y-60138586D01*
X127634309Y-60071000D01*
X127285750Y-60071000D01*
X127127000Y-60229750D01*
X127127000Y-61595000D01*
X127147000Y-61595000D01*
X127147000Y-61849000D01*
X127127000Y-61849000D01*
X127127000Y-61869000D01*
X126873000Y-61869000D01*
X126873000Y-61849000D01*
X126853000Y-61849000D01*
X126853000Y-61595000D01*
X126873000Y-61595000D01*
X126873000Y-60229750D01*
X126714250Y-60071000D01*
X126365691Y-60071000D01*
X126132302Y-60167673D01*
X125953673Y-60346301D01*
X125857000Y-60579690D01*
X125857000Y-60639887D01*
X125825162Y-60470683D01*
X125686090Y-60254559D01*
X125473890Y-60109569D01*
X125222000Y-60058560D01*
X124206000Y-60058560D01*
X123970683Y-60102838D01*
X123754559Y-60241910D01*
X123609569Y-60454110D01*
X123558560Y-60706000D01*
X123558560Y-62738000D01*
X123602838Y-62973317D01*
X123741910Y-63189441D01*
X123954000Y-63334356D01*
X123954000Y-63606698D01*
X123183499Y-64377199D01*
X123039667Y-64592460D01*
X122420380Y-64592460D01*
X122185063Y-64636738D01*
X121968939Y-64775810D01*
X121922103Y-64844357D01*
X121779318Y-64701573D01*
X121545929Y-64604900D01*
X120404890Y-64604900D01*
X120246140Y-64763650D01*
X120246140Y-65913000D01*
X120266140Y-65913000D01*
X120266140Y-66167000D01*
X120246140Y-66167000D01*
X120246140Y-67316350D01*
X120404890Y-67475100D01*
X121545929Y-67475100D01*
X121779318Y-67378427D01*
X121921018Y-67236727D01*
X121956290Y-67291541D01*
X122168490Y-67436531D01*
X122420380Y-67487540D01*
X123039667Y-67487540D01*
X123183499Y-67702801D01*
X124970000Y-69489302D01*
X124970000Y-70282560D01*
X124230000Y-70282560D01*
X123994683Y-70326838D01*
X123778559Y-70465910D01*
X123633569Y-70678110D01*
X123582560Y-70930000D01*
X123582560Y-73130000D01*
X123626838Y-73365317D01*
X123765910Y-73581441D01*
X123978110Y-73726431D01*
X124230000Y-73777440D01*
X124333058Y-73777440D01*
X121382599Y-76727899D01*
X121217852Y-76974461D01*
X121160000Y-77265300D01*
X121160000Y-78413870D01*
X121019570Y-78413870D01*
X120784253Y-78458148D01*
X120568129Y-78597220D01*
X120423139Y-78809420D01*
X120372130Y-79061310D01*
X120372130Y-80658970D01*
X120416408Y-80894287D01*
X120555480Y-81110411D01*
X120767680Y-81255401D01*
X120884366Y-81279030D01*
X120784253Y-81297868D01*
X120568129Y-81436940D01*
X120423139Y-81649140D01*
X120372130Y-81901030D01*
X120372130Y-83498690D01*
X120416408Y-83734007D01*
X120555480Y-83950131D01*
X120767680Y-84095121D01*
X121019570Y-84146130D01*
X121160000Y-84146130D01*
X121160000Y-85252560D01*
X120670000Y-85252560D01*
X120434683Y-85296838D01*
X120218559Y-85435910D01*
X120073569Y-85648110D01*
X120022560Y-85900000D01*
X120022560Y-87900000D01*
X120066838Y-88135317D01*
X120205910Y-88351441D01*
X120418110Y-88496431D01*
X120670000Y-88547440D01*
X123170000Y-88547440D01*
X123405317Y-88503162D01*
X123582560Y-88389109D01*
X123582560Y-89090000D01*
X123626838Y-89325317D01*
X123765910Y-89541441D01*
X123978110Y-89686431D01*
X124230000Y-89737440D01*
X127230000Y-89737440D01*
X127465317Y-89693162D01*
X127681441Y-89554090D01*
X127826431Y-89341890D01*
X127877440Y-89090000D01*
X127877440Y-86890000D01*
X127833162Y-86654683D01*
X127694090Y-86438559D01*
X127481890Y-86293569D01*
X127230000Y-86242560D01*
X126411233Y-86242560D01*
X126267401Y-86027299D01*
X124255400Y-84015298D01*
X124255400Y-83937440D01*
X125048767Y-83937440D01*
X125192599Y-84152701D01*
X125439161Y-84317448D01*
X125730000Y-84375300D01*
X128791898Y-84375300D01*
X129112270Y-84695672D01*
X129112270Y-87659210D01*
X129156548Y-87894527D01*
X129295620Y-88110651D01*
X129440710Y-88209787D01*
X129398767Y-88272560D01*
X129080000Y-88272560D01*
X128844683Y-88316838D01*
X128628559Y-88455910D01*
X128483569Y-88668110D01*
X128432560Y-88920000D01*
X128432560Y-91062600D01*
X126791200Y-91062600D01*
X126548614Y-91110854D01*
X126500360Y-91120452D01*
X126253799Y-91285199D01*
X124724200Y-92814798D01*
X123816086Y-91906684D01*
X123817440Y-91900000D01*
X123817440Y-89900000D01*
X123773162Y-89664683D01*
X123634090Y-89448559D01*
X123421890Y-89303569D01*
X123170000Y-89252560D01*
X120670000Y-89252560D01*
X120434683Y-89296838D01*
X120218559Y-89435910D01*
X120073569Y-89648110D01*
X120022560Y-89900000D01*
X120022560Y-91900000D01*
X120066838Y-92135317D01*
X120205910Y-92351441D01*
X120418110Y-92496431D01*
X120670000Y-92547440D01*
X121238767Y-92547440D01*
X121382599Y-92762701D01*
X121629161Y-92927448D01*
X121920000Y-92985300D01*
X122745098Y-92985300D01*
X122914798Y-93155000D01*
X122205750Y-93155000D01*
X122047000Y-93313750D01*
X122047000Y-94763000D01*
X122067000Y-94763000D01*
X122067000Y-95017000D01*
X122047000Y-95017000D01*
X122047000Y-96466250D01*
X122205750Y-96625000D01*
X123546310Y-96625000D01*
X123779699Y-96528327D01*
X123958327Y-96349698D01*
X124055000Y-96116309D01*
X124055000Y-96019605D01*
X124084810Y-96065931D01*
X124297010Y-96210921D01*
X124548900Y-96261930D01*
X124899420Y-96261930D01*
X125054782Y-96232697D01*
X125199140Y-96261930D01*
X125549660Y-96261930D01*
X125705022Y-96232697D01*
X125849380Y-96261930D01*
X126199900Y-96261930D01*
X126355262Y-96232697D01*
X126499620Y-96261930D01*
X126850140Y-96261930D01*
X127005502Y-96232697D01*
X127149860Y-96261930D01*
X127500380Y-96261930D01*
X127655742Y-96232697D01*
X127800100Y-96261930D01*
X128150620Y-96261930D01*
X128278045Y-96237953D01*
X128196598Y-96319400D01*
X127600400Y-96319400D01*
X127309561Y-96377252D01*
X127062999Y-96541999D01*
X124186799Y-99418199D01*
X124156637Y-99463340D01*
X124097459Y-99501420D01*
X124060853Y-99554994D01*
X124023162Y-99354683D01*
X123884090Y-99138559D01*
X123671890Y-98993569D01*
X123420000Y-98942560D01*
X120420000Y-98942560D01*
X120184683Y-98986838D01*
X119968559Y-99125910D01*
X119823569Y-99338110D01*
X119772560Y-99590000D01*
X119772560Y-101790000D01*
X119816838Y-102025317D01*
X119955910Y-102241441D01*
X120168110Y-102386431D01*
X120420000Y-102437440D01*
X123420000Y-102437440D01*
X123655317Y-102393162D01*
X123871441Y-102254090D01*
X124016431Y-102041890D01*
X124067440Y-101790000D01*
X124067440Y-101789497D01*
X124084810Y-101816491D01*
X124297010Y-101961481D01*
X124548900Y-102012490D01*
X124899420Y-102012490D01*
X125054782Y-101983257D01*
X125199140Y-102012490D01*
X125549660Y-102012490D01*
X125705022Y-101983257D01*
X125849380Y-102012490D01*
X125914900Y-102012490D01*
X125914900Y-104030900D01*
X125972752Y-104321739D01*
X126137499Y-104568301D01*
X131938275Y-110369077D01*
X131518143Y-110542672D01*
X131114091Y-110946020D01*
X130895150Y-111473289D01*
X130895011Y-111633000D01*
X125804677Y-111633000D01*
X126169421Y-111482291D01*
X126920315Y-110732707D01*
X127327196Y-109752827D01*
X127328122Y-108691828D01*
X126922951Y-107711239D01*
X126173367Y-106960345D01*
X125193487Y-106553464D01*
X124132488Y-106552538D01*
X123151899Y-106957709D01*
X122401005Y-107707293D01*
X121994124Y-108687173D01*
X121993198Y-109748172D01*
X122398369Y-110728761D01*
X123147953Y-111479655D01*
X123517249Y-111633000D01*
X121972606Y-111633000D01*
X119507000Y-109167394D01*
X119507000Y-95175750D01*
X119785000Y-95175750D01*
X119785000Y-96116309D01*
X119881673Y-96349698D01*
X120060301Y-96528327D01*
X120293690Y-96625000D01*
X121634250Y-96625000D01*
X121793000Y-96466250D01*
X121793000Y-95017000D01*
X119943750Y-95017000D01*
X119785000Y-95175750D01*
X119507000Y-95175750D01*
X119507000Y-93663691D01*
X119785000Y-93663691D01*
X119785000Y-94604250D01*
X119943750Y-94763000D01*
X121793000Y-94763000D01*
X121793000Y-93313750D01*
X121634250Y-93155000D01*
X120293690Y-93155000D01*
X120060301Y-93251673D01*
X119881673Y-93430302D01*
X119785000Y-93663691D01*
X119507000Y-93663691D01*
X119507000Y-67475100D01*
X119833390Y-67475100D01*
X119992140Y-67316350D01*
X119992140Y-66167000D01*
X119972140Y-66167000D01*
X119972140Y-65913000D01*
X119992140Y-65913000D01*
X119992140Y-64763650D01*
X119833390Y-64604900D01*
X119507000Y-64604900D01*
X119507000Y-63055000D01*
X120364250Y-63055000D01*
X120523000Y-62896250D01*
X120523000Y-61447000D01*
X120777000Y-61447000D01*
X120777000Y-62896250D01*
X120935750Y-63055000D01*
X122276310Y-63055000D01*
X122509699Y-62958327D01*
X122688327Y-62779698D01*
X122785000Y-62546309D01*
X122785000Y-61605750D01*
X122626250Y-61447000D01*
X120777000Y-61447000D01*
X120523000Y-61447000D01*
X120503000Y-61447000D01*
X120503000Y-61193000D01*
X120523000Y-61193000D01*
X120523000Y-59743750D01*
X120777000Y-59743750D01*
X120777000Y-61193000D01*
X122626250Y-61193000D01*
X122785000Y-61034250D01*
X122785000Y-60093691D01*
X122688327Y-59860302D01*
X122509699Y-59681673D01*
X122276310Y-59585000D01*
X120935750Y-59585000D01*
X120777000Y-59743750D01*
X120523000Y-59743750D01*
X120364250Y-59585000D01*
X119507000Y-59585000D01*
X119507000Y-57267440D01*
X122150000Y-57267440D01*
X122385317Y-57223162D01*
X122601441Y-57084090D01*
X122746431Y-56871890D01*
X122797440Y-56620000D01*
X122797440Y-54420000D01*
X122753162Y-54184683D01*
X122699957Y-54102000D01*
X124523760Y-54102000D01*
X124523760Y-56134000D01*
X124568038Y-56369317D01*
X124707110Y-56585441D01*
X124919310Y-56730431D01*
X125171200Y-56781440D01*
X128828800Y-56781440D01*
X129064117Y-56737162D01*
X129280241Y-56598090D01*
X129425231Y-56385890D01*
X129476240Y-56134000D01*
X129476240Y-54102000D01*
X129431962Y-53866683D01*
X129292890Y-53650559D01*
X129080690Y-53505569D01*
X128828800Y-53454560D01*
X125171200Y-53454560D01*
X124935883Y-53498838D01*
X124719759Y-53637910D01*
X124574769Y-53850110D01*
X124523760Y-54102000D01*
X122699957Y-54102000D01*
X122614090Y-53968559D01*
X122401890Y-53823569D01*
X122150000Y-53772560D01*
X121410000Y-53772560D01*
X121410000Y-52687315D01*
X121460000Y-52697440D01*
X123460000Y-52697440D01*
X123695317Y-52653162D01*
X123911441Y-52514090D01*
X124056431Y-52301890D01*
X124107440Y-52050000D01*
X124107440Y-51481233D01*
X124322701Y-51337401D01*
X124825000Y-50835102D01*
X124825000Y-50927002D01*
X124983748Y-50927002D01*
X124825000Y-51085750D01*
X124825000Y-52176310D01*
X124921673Y-52409699D01*
X125100302Y-52588327D01*
X125333691Y-52685000D01*
X126174250Y-52685000D01*
X126333000Y-52526250D01*
X126333000Y-50927000D01*
X126587000Y-50927000D01*
X126587000Y-52526250D01*
X126745750Y-52685000D01*
X127586309Y-52685000D01*
X127819698Y-52588327D01*
X127998327Y-52409699D01*
X128095000Y-52176310D01*
X128095000Y-51085750D01*
X127936250Y-50927000D01*
X126587000Y-50927000D01*
X126333000Y-50927000D01*
X126313000Y-50927000D01*
X126313000Y-50673000D01*
X126333000Y-50673000D01*
X126333000Y-49073750D01*
X126587000Y-49073750D01*
X126587000Y-50673000D01*
X127936250Y-50673000D01*
X128095000Y-50514250D01*
X128095000Y-49423690D01*
X127998327Y-49190301D01*
X127819698Y-49011673D01*
X127586309Y-48915000D01*
X126745750Y-48915000D01*
X126587000Y-49073750D01*
X126333000Y-49073750D01*
X126174250Y-48915000D01*
X125515800Y-48915000D01*
X125515800Y-48537870D01*
X126678690Y-48537870D01*
X126914007Y-48493592D01*
X127130131Y-48354520D01*
X127275121Y-48142320D01*
X127326130Y-47890430D01*
X127326130Y-47117000D01*
X129175731Y-47117000D01*
X129175166Y-47764111D01*
X129175166Y-47764111D01*
G37*
X129175166Y-47764111D02*
X129476729Y-48493949D01*
X130034634Y-49052829D01*
X130763945Y-49355665D01*
X131553631Y-49356354D01*
X132283469Y-49054791D01*
X132842349Y-48496886D01*
X133145185Y-47767575D01*
X133145753Y-47117000D01*
X141174691Y-47117000D01*
X141174126Y-47764111D01*
X141475689Y-48493949D01*
X142033594Y-49052829D01*
X142762905Y-49355665D01*
X143552591Y-49356354D01*
X144282429Y-49054791D01*
X144841309Y-48496886D01*
X145144145Y-47767575D01*
X145144713Y-47117000D01*
X151077394Y-47117000D01*
X153543000Y-49582606D01*
X153543000Y-75189627D01*
X153492801Y-75114499D01*
X143380601Y-65002299D01*
X143134039Y-64837552D01*
X142843200Y-64779700D01*
X136650000Y-64779700D01*
X136650000Y-58594648D01*
X136949670Y-58394415D01*
X136964500Y-58372220D01*
X137028073Y-58525698D01*
X137206701Y-58704327D01*
X137440090Y-58801000D01*
X138144250Y-58801000D01*
X138303000Y-58642250D01*
X138303000Y-57277000D01*
X138557000Y-57277000D01*
X138557000Y-58642250D01*
X138715750Y-58801000D01*
X139419910Y-58801000D01*
X139653299Y-58704327D01*
X139831927Y-58525698D01*
X139928600Y-58292309D01*
X139928600Y-57435750D01*
X139769850Y-57277000D01*
X138557000Y-57277000D01*
X138303000Y-57277000D01*
X138283000Y-57277000D01*
X138283000Y-57023000D01*
X138303000Y-57023000D01*
X138303000Y-55657750D01*
X138557000Y-55657750D01*
X138557000Y-57023000D01*
X139769850Y-57023000D01*
X139928600Y-56864250D01*
X139928600Y-56007691D01*
X139831927Y-55774302D01*
X139653299Y-55595673D01*
X139419910Y-55499000D01*
X138715750Y-55499000D01*
X138557000Y-55657750D01*
X138303000Y-55657750D01*
X138144250Y-55499000D01*
X137440090Y-55499000D01*
X137206701Y-55595673D01*
X137028073Y-55774302D01*
X136964500Y-55927780D01*
X136949670Y-55905585D01*
X136650000Y-55705352D01*
X136650000Y-53267531D01*
X136680303Y-53255010D01*
X137073629Y-52862370D01*
X137159949Y-52654488D01*
X137244990Y-52860303D01*
X137637630Y-53253629D01*
X138150900Y-53466757D01*
X138706661Y-53467242D01*
X139220303Y-53255010D01*
X139613629Y-52862370D01*
X139826757Y-52349100D01*
X139827242Y-51793339D01*
X139615010Y-51279697D01*
X139406168Y-51070490D01*
X139613629Y-50863390D01*
X139826757Y-50350120D01*
X139827242Y-49794359D01*
X139615010Y-49280717D01*
X139222370Y-48887391D01*
X138709100Y-48674263D01*
X138153339Y-48673778D01*
X137639697Y-48886010D01*
X137246371Y-49278650D01*
X137160051Y-49486532D01*
X137075010Y-49280717D01*
X136682370Y-48887391D01*
X136169100Y-48674263D01*
X135613339Y-48673778D01*
X135099697Y-48886010D01*
X134706371Y-49278650D01*
X134493243Y-49791920D01*
X134492758Y-50347681D01*
X134506137Y-50380061D01*
X132812599Y-52073599D01*
X132647852Y-52320161D01*
X132590000Y-52611000D01*
X132590000Y-55705352D01*
X132290330Y-55905585D01*
X131966654Y-56390000D01*
X131802400Y-56390000D01*
X131511561Y-56447852D01*
X131264999Y-56612599D01*
X127915199Y-59962399D01*
X127797475Y-60138586D01*
X127634309Y-60071000D01*
X127285750Y-60071000D01*
X127127000Y-60229750D01*
X127127000Y-61595000D01*
X127147000Y-61595000D01*
X127147000Y-61849000D01*
X127127000Y-61849000D01*
X127127000Y-61869000D01*
X126873000Y-61869000D01*
X126873000Y-61849000D01*
X126853000Y-61849000D01*
X126853000Y-61595000D01*
X126873000Y-61595000D01*
X126873000Y-60229750D01*
X126714250Y-60071000D01*
X126365691Y-60071000D01*
X126132302Y-60167673D01*
X125953673Y-60346301D01*
X125857000Y-60579690D01*
X125857000Y-60639887D01*
X125825162Y-60470683D01*
X125686090Y-60254559D01*
X125473890Y-60109569D01*
X125222000Y-60058560D01*
X124206000Y-60058560D01*
X123970683Y-60102838D01*
X123754559Y-60241910D01*
X123609569Y-60454110D01*
X123558560Y-60706000D01*
X123558560Y-62738000D01*
X123602838Y-62973317D01*
X123741910Y-63189441D01*
X123954000Y-63334356D01*
X123954000Y-63606698D01*
X123183499Y-64377199D01*
X123039667Y-64592460D01*
X122420380Y-64592460D01*
X122185063Y-64636738D01*
X121968939Y-64775810D01*
X121922103Y-64844357D01*
X121779318Y-64701573D01*
X121545929Y-64604900D01*
X120404890Y-64604900D01*
X120246140Y-64763650D01*
X120246140Y-65913000D01*
X120266140Y-65913000D01*
X120266140Y-66167000D01*
X120246140Y-66167000D01*
X120246140Y-67316350D01*
X120404890Y-67475100D01*
X121545929Y-67475100D01*
X121779318Y-67378427D01*
X121921018Y-67236727D01*
X121956290Y-67291541D01*
X122168490Y-67436531D01*
X122420380Y-67487540D01*
X123039667Y-67487540D01*
X123183499Y-67702801D01*
X124970000Y-69489302D01*
X124970000Y-70282560D01*
X124230000Y-70282560D01*
X123994683Y-70326838D01*
X123778559Y-70465910D01*
X123633569Y-70678110D01*
X123582560Y-70930000D01*
X123582560Y-73130000D01*
X123626838Y-73365317D01*
X123765910Y-73581441D01*
X123978110Y-73726431D01*
X124230000Y-73777440D01*
X124333058Y-73777440D01*
X121382599Y-76727899D01*
X121217852Y-76974461D01*
X121160000Y-77265300D01*
X121160000Y-78413870D01*
X121019570Y-78413870D01*
X120784253Y-78458148D01*
X120568129Y-78597220D01*
X120423139Y-78809420D01*
X120372130Y-79061310D01*
X120372130Y-80658970D01*
X120416408Y-80894287D01*
X120555480Y-81110411D01*
X120767680Y-81255401D01*
X120884366Y-81279030D01*
X120784253Y-81297868D01*
X120568129Y-81436940D01*
X120423139Y-81649140D01*
X120372130Y-81901030D01*
X120372130Y-83498690D01*
X120416408Y-83734007D01*
X120555480Y-83950131D01*
X120767680Y-84095121D01*
X121019570Y-84146130D01*
X121160000Y-84146130D01*
X121160000Y-85252560D01*
X120670000Y-85252560D01*
X120434683Y-85296838D01*
X120218559Y-85435910D01*
X120073569Y-85648110D01*
X120022560Y-85900000D01*
X120022560Y-87900000D01*
X120066838Y-88135317D01*
X120205910Y-88351441D01*
X120418110Y-88496431D01*
X120670000Y-88547440D01*
X123170000Y-88547440D01*
X123405317Y-88503162D01*
X123582560Y-88389109D01*
X123582560Y-89090000D01*
X123626838Y-89325317D01*
X123765910Y-89541441D01*
X123978110Y-89686431D01*
X124230000Y-89737440D01*
X127230000Y-89737440D01*
X127465317Y-89693162D01*
X127681441Y-89554090D01*
X127826431Y-89341890D01*
X127877440Y-89090000D01*
X127877440Y-86890000D01*
X127833162Y-86654683D01*
X127694090Y-86438559D01*
X127481890Y-86293569D01*
X127230000Y-86242560D01*
X126411233Y-86242560D01*
X126267401Y-86027299D01*
X124255400Y-84015298D01*
X124255400Y-83937440D01*
X125048767Y-83937440D01*
X125192599Y-84152701D01*
X125439161Y-84317448D01*
X125730000Y-84375300D01*
X128791898Y-84375300D01*
X129112270Y-84695672D01*
X129112270Y-87659210D01*
X129156548Y-87894527D01*
X129295620Y-88110651D01*
X129440710Y-88209787D01*
X129398767Y-88272560D01*
X129080000Y-88272560D01*
X128844683Y-88316838D01*
X128628559Y-88455910D01*
X128483569Y-88668110D01*
X128432560Y-88920000D01*
X128432560Y-91062600D01*
X126791200Y-91062600D01*
X126548614Y-91110854D01*
X126500360Y-91120452D01*
X126253799Y-91285199D01*
X124724200Y-92814798D01*
X123816086Y-91906684D01*
X123817440Y-91900000D01*
X123817440Y-89900000D01*
X123773162Y-89664683D01*
X123634090Y-89448559D01*
X123421890Y-89303569D01*
X123170000Y-89252560D01*
X120670000Y-89252560D01*
X120434683Y-89296838D01*
X120218559Y-89435910D01*
X120073569Y-89648110D01*
X120022560Y-89900000D01*
X120022560Y-91900000D01*
X120066838Y-92135317D01*
X120205910Y-92351441D01*
X120418110Y-92496431D01*
X120670000Y-92547440D01*
X121238767Y-92547440D01*
X121382599Y-92762701D01*
X121629161Y-92927448D01*
X121920000Y-92985300D01*
X122745098Y-92985300D01*
X122914798Y-93155000D01*
X122205750Y-93155000D01*
X122047000Y-93313750D01*
X122047000Y-94763000D01*
X122067000Y-94763000D01*
X122067000Y-95017000D01*
X122047000Y-95017000D01*
X122047000Y-96466250D01*
X122205750Y-96625000D01*
X123546310Y-96625000D01*
X123779699Y-96528327D01*
X123958327Y-96349698D01*
X124055000Y-96116309D01*
X124055000Y-96019605D01*
X124084810Y-96065931D01*
X124297010Y-96210921D01*
X124548900Y-96261930D01*
X124899420Y-96261930D01*
X125054782Y-96232697D01*
X125199140Y-96261930D01*
X125549660Y-96261930D01*
X125705022Y-96232697D01*
X125849380Y-96261930D01*
X126199900Y-96261930D01*
X126355262Y-96232697D01*
X126499620Y-96261930D01*
X126850140Y-96261930D01*
X127005502Y-96232697D01*
X127149860Y-96261930D01*
X127500380Y-96261930D01*
X127655742Y-96232697D01*
X127800100Y-96261930D01*
X128150620Y-96261930D01*
X128278045Y-96237953D01*
X128196598Y-96319400D01*
X127600400Y-96319400D01*
X127309561Y-96377252D01*
X127062999Y-96541999D01*
X124186799Y-99418199D01*
X124156637Y-99463340D01*
X124097459Y-99501420D01*
X124060853Y-99554994D01*
X124023162Y-99354683D01*
X123884090Y-99138559D01*
X123671890Y-98993569D01*
X123420000Y-98942560D01*
X120420000Y-98942560D01*
X120184683Y-98986838D01*
X119968559Y-99125910D01*
X119823569Y-99338110D01*
X119772560Y-99590000D01*
X119772560Y-101790000D01*
X119816838Y-102025317D01*
X119955910Y-102241441D01*
X120168110Y-102386431D01*
X120420000Y-102437440D01*
X123420000Y-102437440D01*
X123655317Y-102393162D01*
X123871441Y-102254090D01*
X124016431Y-102041890D01*
X124067440Y-101790000D01*
X124067440Y-101789497D01*
X124084810Y-101816491D01*
X124297010Y-101961481D01*
X124548900Y-102012490D01*
X124899420Y-102012490D01*
X125054782Y-101983257D01*
X125199140Y-102012490D01*
X125549660Y-102012490D01*
X125705022Y-101983257D01*
X125849380Y-102012490D01*
X125914900Y-102012490D01*
X125914900Y-104030900D01*
X125972752Y-104321739D01*
X126137499Y-104568301D01*
X131938275Y-110369077D01*
X131518143Y-110542672D01*
X131114091Y-110946020D01*
X130895150Y-111473289D01*
X130895011Y-111633000D01*
X125804677Y-111633000D01*
X126169421Y-111482291D01*
X126920315Y-110732707D01*
X127327196Y-109752827D01*
X127328122Y-108691828D01*
X126922951Y-107711239D01*
X126173367Y-106960345D01*
X125193487Y-106553464D01*
X124132488Y-106552538D01*
X123151899Y-106957709D01*
X122401005Y-107707293D01*
X121994124Y-108687173D01*
X121993198Y-109748172D01*
X122398369Y-110728761D01*
X123147953Y-111479655D01*
X123517249Y-111633000D01*
X121972606Y-111633000D01*
X119507000Y-109167394D01*
X119507000Y-95175750D01*
X119785000Y-95175750D01*
X119785000Y-96116309D01*
X119881673Y-96349698D01*
X120060301Y-96528327D01*
X120293690Y-96625000D01*
X121634250Y-96625000D01*
X121793000Y-96466250D01*
X121793000Y-95017000D01*
X119943750Y-95017000D01*
X119785000Y-95175750D01*
X119507000Y-95175750D01*
X119507000Y-93663691D01*
X119785000Y-93663691D01*
X119785000Y-94604250D01*
X119943750Y-94763000D01*
X121793000Y-94763000D01*
X121793000Y-93313750D01*
X121634250Y-93155000D01*
X120293690Y-93155000D01*
X120060301Y-93251673D01*
X119881673Y-93430302D01*
X119785000Y-93663691D01*
X119507000Y-93663691D01*
X119507000Y-67475100D01*
X119833390Y-67475100D01*
X119992140Y-67316350D01*
X119992140Y-66167000D01*
X119972140Y-66167000D01*
X119972140Y-65913000D01*
X119992140Y-65913000D01*
X119992140Y-64763650D01*
X119833390Y-64604900D01*
X119507000Y-64604900D01*
X119507000Y-63055000D01*
X120364250Y-63055000D01*
X120523000Y-62896250D01*
X120523000Y-61447000D01*
X120777000Y-61447000D01*
X120777000Y-62896250D01*
X120935750Y-63055000D01*
X122276310Y-63055000D01*
X122509699Y-62958327D01*
X122688327Y-62779698D01*
X122785000Y-62546309D01*
X122785000Y-61605750D01*
X122626250Y-61447000D01*
X120777000Y-61447000D01*
X120523000Y-61447000D01*
X120503000Y-61447000D01*
X120503000Y-61193000D01*
X120523000Y-61193000D01*
X120523000Y-59743750D01*
X120777000Y-59743750D01*
X120777000Y-61193000D01*
X122626250Y-61193000D01*
X122785000Y-61034250D01*
X122785000Y-60093691D01*
X122688327Y-59860302D01*
X122509699Y-59681673D01*
X122276310Y-59585000D01*
X120935750Y-59585000D01*
X120777000Y-59743750D01*
X120523000Y-59743750D01*
X120364250Y-59585000D01*
X119507000Y-59585000D01*
X119507000Y-57267440D01*
X122150000Y-57267440D01*
X122385317Y-57223162D01*
X122601441Y-57084090D01*
X122746431Y-56871890D01*
X122797440Y-56620000D01*
X122797440Y-54420000D01*
X122753162Y-54184683D01*
X122699957Y-54102000D01*
X124523760Y-54102000D01*
X124523760Y-56134000D01*
X124568038Y-56369317D01*
X124707110Y-56585441D01*
X124919310Y-56730431D01*
X125171200Y-56781440D01*
X128828800Y-56781440D01*
X129064117Y-56737162D01*
X129280241Y-56598090D01*
X129425231Y-56385890D01*
X129476240Y-56134000D01*
X129476240Y-54102000D01*
X129431962Y-53866683D01*
X129292890Y-53650559D01*
X129080690Y-53505569D01*
X128828800Y-53454560D01*
X125171200Y-53454560D01*
X124935883Y-53498838D01*
X124719759Y-53637910D01*
X124574769Y-53850110D01*
X124523760Y-54102000D01*
X122699957Y-54102000D01*
X122614090Y-53968559D01*
X122401890Y-53823569D01*
X122150000Y-53772560D01*
X121410000Y-53772560D01*
X121410000Y-52687315D01*
X121460000Y-52697440D01*
X123460000Y-52697440D01*
X123695317Y-52653162D01*
X123911441Y-52514090D01*
X124056431Y-52301890D01*
X124107440Y-52050000D01*
X124107440Y-51481233D01*
X124322701Y-51337401D01*
X124825000Y-50835102D01*
X124825000Y-50927002D01*
X124983748Y-50927002D01*
X124825000Y-51085750D01*
X124825000Y-52176310D01*
X124921673Y-52409699D01*
X125100302Y-52588327D01*
X125333691Y-52685000D01*
X126174250Y-52685000D01*
X126333000Y-52526250D01*
X126333000Y-50927000D01*
X126587000Y-50927000D01*
X126587000Y-52526250D01*
X126745750Y-52685000D01*
X127586309Y-52685000D01*
X127819698Y-52588327D01*
X127998327Y-52409699D01*
X128095000Y-52176310D01*
X128095000Y-51085750D01*
X127936250Y-50927000D01*
X126587000Y-50927000D01*
X126333000Y-50927000D01*
X126313000Y-50927000D01*
X126313000Y-50673000D01*
X126333000Y-50673000D01*
X126333000Y-49073750D01*
X126587000Y-49073750D01*
X126587000Y-50673000D01*
X127936250Y-50673000D01*
X128095000Y-50514250D01*
X128095000Y-49423690D01*
X127998327Y-49190301D01*
X127819698Y-49011673D01*
X127586309Y-48915000D01*
X126745750Y-48915000D01*
X126587000Y-49073750D01*
X126333000Y-49073750D01*
X126174250Y-48915000D01*
X125515800Y-48915000D01*
X125515800Y-48537870D01*
X126678690Y-48537870D01*
X126914007Y-48493592D01*
X127130131Y-48354520D01*
X127275121Y-48142320D01*
X127326130Y-47890430D01*
X127326130Y-47117000D01*
X129175731Y-47117000D01*
X129175166Y-47764111D01*
G36*
X152195400Y-75966702D02*
X152195400Y-93155000D01*
X151415750Y-93155000D01*
X151257000Y-93313750D01*
X151257000Y-94763000D01*
X151277000Y-94763000D01*
X151277000Y-95017000D01*
X151257000Y-95017000D01*
X151257000Y-96466250D01*
X151415750Y-96625000D01*
X152195400Y-96625000D01*
X152195400Y-98942560D01*
X149894460Y-98942560D01*
X149886651Y-98930873D01*
X149842101Y-98864198D01*
X147789522Y-96811620D01*
X147789562Y-96766133D01*
X147647517Y-96422357D01*
X147452106Y-96226604D01*
X147506399Y-96172311D01*
X147652061Y-96078580D01*
X147673983Y-96046495D01*
X147686490Y-96065931D01*
X147850450Y-96177960D01*
X147921980Y-96249490D01*
X147977170Y-96249490D01*
X148013939Y-96234260D01*
X148150580Y-96261930D01*
X148501100Y-96261930D01*
X148736417Y-96217652D01*
X148952541Y-96078580D01*
X148995000Y-96016439D01*
X148995000Y-96116309D01*
X149091673Y-96349698D01*
X149270301Y-96528327D01*
X149503690Y-96625000D01*
X150844250Y-96625000D01*
X151003000Y-96466250D01*
X151003000Y-95017000D01*
X150983000Y-95017000D01*
X150983000Y-94763000D01*
X151003000Y-94763000D01*
X151003000Y-93313750D01*
X150844250Y-93155000D01*
X149503690Y-93155000D01*
X149270301Y-93251673D01*
X149091673Y-93430302D01*
X149024211Y-93593169D01*
X148863201Y-93352199D01*
X147828442Y-92317440D01*
X148780000Y-92317440D01*
X149015317Y-92273162D01*
X149231441Y-92134090D01*
X149376431Y-91921890D01*
X149427440Y-91670000D01*
X149427440Y-88670000D01*
X149383162Y-88434683D01*
X149244090Y-88218559D01*
X149031890Y-88073569D01*
X149026936Y-88072566D01*
X149127401Y-87972101D01*
X149292148Y-87725540D01*
X149350000Y-87434700D01*
X149350000Y-85203346D01*
X149834415Y-84879670D01*
X150159271Y-84393489D01*
X150273345Y-83820000D01*
X150159271Y-83246511D01*
X149834415Y-82760330D01*
X149519634Y-82550000D01*
X149834415Y-82339670D01*
X150159271Y-81853489D01*
X150273345Y-81280000D01*
X150159271Y-80706511D01*
X149834415Y-80220330D01*
X149519634Y-80010000D01*
X149834415Y-79799670D01*
X150159271Y-79313489D01*
X150273345Y-78740000D01*
X150159271Y-78166511D01*
X149834415Y-77680330D01*
X149519634Y-77470000D01*
X149834415Y-77259670D01*
X150159271Y-76773489D01*
X150273345Y-76200000D01*
X150159271Y-75626511D01*
X149834415Y-75140330D01*
X149812220Y-75125500D01*
X149965698Y-75061927D01*
X150144327Y-74883299D01*
X150241000Y-74649910D01*
X150241000Y-74012302D01*
X152195400Y-75966702D01*
X152195400Y-75966702D01*
G37*
X152195400Y-75966702D02*
X152195400Y-93155000D01*
X151415750Y-93155000D01*
X151257000Y-93313750D01*
X151257000Y-94763000D01*
X151277000Y-94763000D01*
X151277000Y-95017000D01*
X151257000Y-95017000D01*
X151257000Y-96466250D01*
X151415750Y-96625000D01*
X152195400Y-96625000D01*
X152195400Y-98942560D01*
X149894460Y-98942560D01*
X149886651Y-98930873D01*
X149842101Y-98864198D01*
X147789522Y-96811620D01*
X147789562Y-96766133D01*
X147647517Y-96422357D01*
X147452106Y-96226604D01*
X147506399Y-96172311D01*
X147652061Y-96078580D01*
X147673983Y-96046495D01*
X147686490Y-96065931D01*
X147850450Y-96177960D01*
X147921980Y-96249490D01*
X147977170Y-96249490D01*
X148013939Y-96234260D01*
X148150580Y-96261930D01*
X148501100Y-96261930D01*
X148736417Y-96217652D01*
X148952541Y-96078580D01*
X148995000Y-96016439D01*
X148995000Y-96116309D01*
X149091673Y-96349698D01*
X149270301Y-96528327D01*
X149503690Y-96625000D01*
X150844250Y-96625000D01*
X151003000Y-96466250D01*
X151003000Y-95017000D01*
X150983000Y-95017000D01*
X150983000Y-94763000D01*
X151003000Y-94763000D01*
X151003000Y-93313750D01*
X150844250Y-93155000D01*
X149503690Y-93155000D01*
X149270301Y-93251673D01*
X149091673Y-93430302D01*
X149024211Y-93593169D01*
X148863201Y-93352199D01*
X147828442Y-92317440D01*
X148780000Y-92317440D01*
X149015317Y-92273162D01*
X149231441Y-92134090D01*
X149376431Y-91921890D01*
X149427440Y-91670000D01*
X149427440Y-88670000D01*
X149383162Y-88434683D01*
X149244090Y-88218559D01*
X149031890Y-88073569D01*
X149026936Y-88072566D01*
X149127401Y-87972101D01*
X149292148Y-87725540D01*
X149350000Y-87434700D01*
X149350000Y-85203346D01*
X149834415Y-84879670D01*
X150159271Y-84393489D01*
X150273345Y-83820000D01*
X150159271Y-83246511D01*
X149834415Y-82760330D01*
X149519634Y-82550000D01*
X149834415Y-82339670D01*
X150159271Y-81853489D01*
X150273345Y-81280000D01*
X150159271Y-80706511D01*
X149834415Y-80220330D01*
X149519634Y-80010000D01*
X149834415Y-79799670D01*
X150159271Y-79313489D01*
X150273345Y-78740000D01*
X150159271Y-78166511D01*
X149834415Y-77680330D01*
X149519634Y-77470000D01*
X149834415Y-77259670D01*
X150159271Y-76773489D01*
X150273345Y-76200000D01*
X150159271Y-75626511D01*
X149834415Y-75140330D01*
X149812220Y-75125500D01*
X149965698Y-75061927D01*
X150144327Y-74883299D01*
X150241000Y-74649910D01*
X150241000Y-74012302D01*
X152195400Y-75966702D01*
G36*
X135820462Y-82535801D02*
X135820138Y-82907767D01*
X135839654Y-82955000D01*
X135815750Y-82955000D01*
X135657000Y-83113750D01*
X135657000Y-84963000D01*
X137106250Y-84963000D01*
X137265000Y-84804250D01*
X137265000Y-84351201D01*
X137443301Y-84425238D01*
X137815267Y-84425562D01*
X138122700Y-84298534D01*
X138122700Y-87787898D01*
X135727440Y-90183158D01*
X135727440Y-88920000D01*
X135683162Y-88684683D01*
X135544090Y-88468559D01*
X135331890Y-88323569D01*
X135080000Y-88272560D01*
X134840000Y-88272560D01*
X134840000Y-87225000D01*
X135244250Y-87225000D01*
X135403000Y-87066250D01*
X135403000Y-85217000D01*
X135657000Y-85217000D01*
X135657000Y-87066250D01*
X135815750Y-87225000D01*
X136756309Y-87225000D01*
X136989698Y-87128327D01*
X137168327Y-86949699D01*
X137265000Y-86716310D01*
X137265000Y-85375750D01*
X137106250Y-85217000D01*
X135657000Y-85217000D01*
X135403000Y-85217000D01*
X135383000Y-85217000D01*
X135383000Y-84963000D01*
X135403000Y-84963000D01*
X135403000Y-83113750D01*
X135244250Y-82955000D01*
X134840000Y-82955000D01*
X134840000Y-82462440D01*
X135850924Y-82462440D01*
X135820462Y-82535801D01*
X135820462Y-82535801D01*
G37*
X135820462Y-82535801D02*
X135820138Y-82907767D01*
X135839654Y-82955000D01*
X135815750Y-82955000D01*
X135657000Y-83113750D01*
X135657000Y-84963000D01*
X137106250Y-84963000D01*
X137265000Y-84804250D01*
X137265000Y-84351201D01*
X137443301Y-84425238D01*
X137815267Y-84425562D01*
X138122700Y-84298534D01*
X138122700Y-87787898D01*
X135727440Y-90183158D01*
X135727440Y-88920000D01*
X135683162Y-88684683D01*
X135544090Y-88468559D01*
X135331890Y-88323569D01*
X135080000Y-88272560D01*
X134840000Y-88272560D01*
X134840000Y-87225000D01*
X135244250Y-87225000D01*
X135403000Y-87066250D01*
X135403000Y-85217000D01*
X135657000Y-85217000D01*
X135657000Y-87066250D01*
X135815750Y-87225000D01*
X136756309Y-87225000D01*
X136989698Y-87128327D01*
X137168327Y-86949699D01*
X137265000Y-86716310D01*
X137265000Y-85375750D01*
X137106250Y-85217000D01*
X135657000Y-85217000D01*
X135403000Y-85217000D01*
X135383000Y-85217000D01*
X135383000Y-84963000D01*
X135403000Y-84963000D01*
X135403000Y-83113750D01*
X135244250Y-82955000D01*
X134840000Y-82955000D01*
X134840000Y-82462440D01*
X135850924Y-82462440D01*
X135820462Y-82535801D01*
G36*
X139567299Y-78302401D02*
X139795000Y-78454546D01*
X139795000Y-78542002D01*
X139901748Y-78542002D01*
X139795000Y-78648750D01*
X139795000Y-78691310D01*
X139817069Y-78744589D01*
X139782560Y-78915000D01*
X139782560Y-79033767D01*
X139567299Y-79177599D01*
X138345299Y-80399599D01*
X138321314Y-80435496D01*
X138167501Y-80205299D01*
X138104052Y-80141850D01*
X139003401Y-79242501D01*
X139168148Y-78995940D01*
X139226000Y-78705100D01*
X139226000Y-77961102D01*
X139567299Y-78302401D01*
X139567299Y-78302401D01*
G37*
X139567299Y-78302401D02*
X139795000Y-78454546D01*
X139795000Y-78542002D01*
X139901748Y-78542002D01*
X139795000Y-78648750D01*
X139795000Y-78691310D01*
X139817069Y-78744589D01*
X139782560Y-78915000D01*
X139782560Y-79033767D01*
X139567299Y-79177599D01*
X138345299Y-80399599D01*
X138321314Y-80435496D01*
X138167501Y-80205299D01*
X138104052Y-80141850D01*
X139003401Y-79242501D01*
X139168148Y-78995940D01*
X139226000Y-78705100D01*
X139226000Y-77961102D01*
X139567299Y-78302401D01*
G36*
X145136498Y-74105000D02*
X145065750Y-74105000D01*
X144907000Y-74263750D01*
X144907000Y-75713000D01*
X144927000Y-75713000D01*
X144927000Y-75967000D01*
X144907000Y-75967000D01*
X144907000Y-77416250D01*
X145065750Y-77575000D01*
X145875100Y-77575000D01*
X145875100Y-79892560D01*
X145715122Y-79892560D01*
X145715162Y-79846833D01*
X145573117Y-79503057D01*
X145310327Y-79239808D01*
X144966799Y-79097162D01*
X144919923Y-79097121D01*
X144350401Y-78527599D01*
X144103839Y-78362852D01*
X143813000Y-78305000D01*
X142665000Y-78305000D01*
X142665000Y-78287998D01*
X142558252Y-78287998D01*
X142665000Y-78181250D01*
X142665000Y-78138690D01*
X142642931Y-78085411D01*
X142677440Y-77915000D01*
X142677440Y-77796233D01*
X142892701Y-77652401D01*
X143023874Y-77521228D01*
X143153690Y-77575000D01*
X144494250Y-77575000D01*
X144653000Y-77416250D01*
X144653000Y-75967000D01*
X144633000Y-75967000D01*
X144633000Y-75713000D01*
X144653000Y-75713000D01*
X144653000Y-74263750D01*
X144494250Y-74105000D01*
X143607400Y-74105000D01*
X143607400Y-72575902D01*
X145136498Y-74105000D01*
X145136498Y-74105000D01*
G37*
X145136498Y-74105000D02*
X145065750Y-74105000D01*
X144907000Y-74263750D01*
X144907000Y-75713000D01*
X144927000Y-75713000D01*
X144927000Y-75967000D01*
X144907000Y-75967000D01*
X144907000Y-77416250D01*
X145065750Y-77575000D01*
X145875100Y-77575000D01*
X145875100Y-79892560D01*
X145715122Y-79892560D01*
X145715162Y-79846833D01*
X145573117Y-79503057D01*
X145310327Y-79239808D01*
X144966799Y-79097162D01*
X144919923Y-79097121D01*
X144350401Y-78527599D01*
X144103839Y-78362852D01*
X143813000Y-78305000D01*
X142665000Y-78305000D01*
X142665000Y-78287998D01*
X142558252Y-78287998D01*
X142665000Y-78181250D01*
X142665000Y-78138690D01*
X142642931Y-78085411D01*
X142677440Y-77915000D01*
X142677440Y-77796233D01*
X142892701Y-77652401D01*
X143023874Y-77521228D01*
X143153690Y-77575000D01*
X144494250Y-77575000D01*
X144653000Y-77416250D01*
X144653000Y-75967000D01*
X144633000Y-75967000D01*
X144633000Y-75713000D01*
X144653000Y-75713000D01*
X144653000Y-74263750D01*
X144494250Y-74105000D01*
X143607400Y-74105000D01*
X143607400Y-72575902D01*
X145136498Y-74105000D01*
G36*
X148717000Y-73533000D02*
X148737000Y-73533000D01*
X148737000Y-73787000D01*
X148717000Y-73787000D01*
X148717000Y-73807000D01*
X148463000Y-73807000D01*
X148463000Y-73787000D01*
X148443000Y-73787000D01*
X148443000Y-73533000D01*
X148463000Y-73533000D01*
X148463000Y-73513000D01*
X148717000Y-73513000D01*
X148717000Y-73533000D01*
X148717000Y-73533000D01*
G37*
X148717000Y-73533000D02*
X148737000Y-73533000D01*
X148737000Y-73787000D01*
X148717000Y-73787000D01*
X148717000Y-73807000D01*
X148463000Y-73807000D01*
X148463000Y-73787000D01*
X148443000Y-73787000D01*
X148443000Y-73533000D01*
X148463000Y-73533000D01*
X148463000Y-73513000D01*
X148717000Y-73513000D01*
X148717000Y-73533000D01*
M02*
