G04 #@! TF.FileFunction,Copper,L2,Bot,Signal*
%FSLAX46Y46*%
G04 Gerber Fmt 4.6, Leading zero omitted, Abs format (unit mm)*
G04 Created by KiCad (PCBNEW 4.0.2+dfsg1-stable) date Wed 27 Dec 2017 07:46:21 PM CST*
%MOMM*%
G01*
G04 APERTURE LIST*
%ADD10C,0.100000*%
%ADD11R,1.700000X1.700000*%
%ADD12O,1.700000X1.700000*%
%ADD13C,1.520000*%
%ADD14C,2.700000*%
%ADD15C,4.064000*%
%ADD16C,1.600200*%
%ADD17C,2.000000*%
%ADD18C,0.600000*%
%ADD19C,0.250000*%
%ADD20C,0.254000*%
G04 APERTURE END LIST*
D10*
D11*
X55880000Y-19050000D03*
D12*
X55880000Y-21590000D03*
X55880000Y-24130000D03*
D11*
X22860000Y-13970000D03*
D12*
X22860000Y-11430000D03*
D11*
X22860000Y-30480000D03*
D12*
X22860000Y-27940000D03*
D11*
X31750000Y-41910000D03*
D12*
X29210000Y-41910000D03*
D13*
X60960000Y-22860000D03*
X60960000Y-20320000D03*
X62960000Y-20320000D03*
X62960000Y-22860000D03*
D14*
X65660000Y-27590000D03*
X65660000Y-15590000D03*
D15*
X5080000Y-34089340D03*
X5080000Y-9090660D03*
D16*
X2540000Y-16760000D03*
X5080000Y-17905000D03*
X2540000Y-19050000D03*
X2540000Y-21340000D03*
X2540000Y-23630000D03*
X2540000Y-25920000D03*
X5080000Y-20195000D03*
X5080000Y-22485000D03*
X5080000Y-24775000D03*
X5080000Y-27065000D03*
X7620000Y-16760000D03*
X7620000Y-19050000D03*
X7620000Y-21340000D03*
X7620000Y-23630000D03*
X7620000Y-25920000D03*
D11*
X38100000Y-41910000D03*
D12*
X40640000Y-41910000D03*
X43180000Y-41910000D03*
X45720000Y-41910000D03*
X48260000Y-41910000D03*
D17*
X62810000Y-34290000D03*
X67310000Y-34290000D03*
X62810000Y-40790000D03*
X67310000Y-40790000D03*
D18*
X31094800Y-38037500D03*
X35160200Y-24324400D03*
X13610000Y-19806900D03*
X14087400Y-40124900D03*
X42573000Y-14805300D03*
X35138100Y-23070000D03*
X12416200Y-11724600D03*
X9882700Y-12374900D03*
X12376300Y-13025100D03*
X43349600Y-17121700D03*
X17997300Y-13556200D03*
X41295700Y-12122400D03*
X18179600Y-12689800D03*
X41281200Y-11184900D03*
X28940800Y-16121800D03*
X40262800Y-17148100D03*
X25306100Y-28586100D03*
X41390000Y-23121100D03*
X42147800Y-17143200D03*
X26341500Y-26308600D03*
D19*
X67310000Y-40790000D02*
X67310000Y-34290000D01*
X62960000Y-18290000D02*
X62960000Y-20320000D01*
X65660000Y-15590000D02*
X62960000Y-18290000D01*
X67310000Y-29240000D02*
X65660000Y-27590000D01*
X67310000Y-34290000D02*
X67310000Y-29240000D01*
X55880000Y-24130000D02*
X57055300Y-24130000D01*
X64056900Y-24130000D02*
X57055300Y-24130000D01*
X65660000Y-25733100D02*
X64056900Y-24130000D01*
X65660000Y-27590000D02*
X65660000Y-25733100D01*
X64056900Y-21416900D02*
X62960000Y-20320000D01*
X64056900Y-24130000D02*
X64056900Y-21416900D01*
X38100000Y-41910000D02*
X36924700Y-41910000D01*
X33052200Y-38037500D02*
X36924700Y-41910000D01*
X31094800Y-38037500D02*
X33052200Y-38037500D01*
X62810000Y-34290000D02*
X62810000Y-40790000D01*
X61690000Y-41910000D02*
X62810000Y-40790000D01*
X48260000Y-41910000D02*
X61690000Y-41910000D01*
X47084700Y-42277400D02*
X47084700Y-41910000D01*
X46276800Y-43085300D02*
X47084700Y-42277400D01*
X40109700Y-43085300D02*
X46276800Y-43085300D01*
X39275400Y-42251000D02*
X40109700Y-43085300D01*
X39275400Y-28439600D02*
X39275400Y-42251000D01*
X35160200Y-24324400D02*
X39275400Y-28439600D01*
X48260000Y-41910000D02*
X47084700Y-41910000D01*
X58325300Y-20320000D02*
X57055300Y-21590000D01*
X60960000Y-20320000D02*
X58325300Y-20320000D01*
X55880000Y-21590000D02*
X57055300Y-21590000D01*
X8641900Y-24775000D02*
X13610000Y-19806900D01*
X5080000Y-24775000D02*
X8641900Y-24775000D01*
X45909300Y-12794600D02*
X54704700Y-21590000D01*
X20622300Y-12794600D02*
X45909300Y-12794600D01*
X13610000Y-19806900D02*
X20622300Y-12794600D01*
X55880000Y-21590000D02*
X54704700Y-21590000D01*
X22860000Y-13970000D02*
X24035300Y-13970000D01*
X22557000Y-31655300D02*
X14087400Y-40124900D01*
X22860000Y-31655300D02*
X22557000Y-31655300D01*
X22860000Y-30480000D02*
X22860000Y-31655300D01*
X22860000Y-30480000D02*
X22860000Y-29304700D01*
X24035300Y-13970000D02*
X24876900Y-14811600D01*
X23191800Y-29304700D02*
X22860000Y-29304700D01*
X24876900Y-27619600D02*
X23191800Y-29304700D01*
X24876900Y-14811600D02*
X24876900Y-27619600D01*
X24883200Y-14805300D02*
X24876900Y-14811600D01*
X42573000Y-14805300D02*
X24883200Y-14805300D01*
X29210000Y-41910000D02*
X29210000Y-40734700D01*
X29210000Y-28998100D02*
X35138100Y-23070000D01*
X29210000Y-40734700D02*
X29210000Y-28998100D01*
X9195800Y-14945000D02*
X12416200Y-11724600D01*
X9195800Y-16786900D02*
X9195800Y-14945000D01*
X8077700Y-17905000D02*
X9195800Y-16786900D01*
X6964600Y-17905000D02*
X8077700Y-17905000D01*
X5819600Y-19050000D02*
X6964600Y-17905000D01*
X4615200Y-19050000D02*
X5819600Y-19050000D01*
X2540000Y-21125200D02*
X4615200Y-19050000D01*
X2540000Y-21340000D02*
X2540000Y-21125200D01*
X9010200Y-12374900D02*
X9882700Y-12374900D01*
X3499600Y-17885500D02*
X9010200Y-12374900D01*
X2039100Y-17885500D02*
X3499600Y-17885500D01*
X1375500Y-18549100D02*
X2039100Y-17885500D01*
X1375500Y-22465500D02*
X1375500Y-18549100D01*
X2540000Y-23630000D02*
X1375500Y-22465500D01*
X2540000Y-25702700D02*
X2540000Y-25920000D01*
X4632200Y-23610500D02*
X2540000Y-25702700D01*
X5561100Y-23610500D02*
X4632200Y-23610500D01*
X6366400Y-22805200D02*
X5561100Y-23610500D01*
X6366400Y-20981300D02*
X6366400Y-22805200D01*
X7172200Y-20175500D02*
X6366400Y-20981300D01*
X8140300Y-20175500D02*
X7172200Y-20175500D01*
X12376300Y-15939500D02*
X8140300Y-20175500D01*
X12376300Y-13025100D02*
X12376300Y-15939500D01*
X43349600Y-38025100D02*
X43349600Y-17121700D01*
X40640000Y-40734700D02*
X43349600Y-38025100D01*
X40640000Y-41910000D02*
X40640000Y-40734700D01*
X39380000Y-10206700D02*
X41295700Y-12122400D01*
X22092100Y-10206700D02*
X39380000Y-10206700D01*
X18742600Y-13556200D02*
X22092100Y-10206700D01*
X17997300Y-13556200D02*
X18742600Y-13556200D01*
X21126900Y-9742500D02*
X18179600Y-12689800D01*
X39838800Y-9742500D02*
X21126900Y-9742500D01*
X41281200Y-11184900D02*
X39838800Y-9742500D01*
X28940800Y-16121900D02*
X28940800Y-16121800D01*
X39236600Y-16121900D02*
X28940800Y-16121900D01*
X40262800Y-17148100D02*
X39236600Y-16121900D01*
X40690700Y-22421800D02*
X41390000Y-23121100D01*
X31470400Y-22421800D02*
X40690700Y-22421800D01*
X25306100Y-28586100D02*
X31470400Y-22421800D01*
X41469800Y-17821200D02*
X42147800Y-17143200D01*
X34828900Y-17821200D02*
X41469800Y-17821200D01*
X26341500Y-26308600D02*
X34828900Y-17821200D01*
D20*
G36*
X68453000Y-3862606D02*
X68453000Y-33078980D01*
X68397206Y-33023186D01*
X68282926Y-33137466D01*
X68184264Y-32870613D01*
X67574539Y-32644092D01*
X66924540Y-32668144D01*
X66435736Y-32870613D01*
X66337073Y-33137468D01*
X67310000Y-34110395D01*
X67324143Y-34096253D01*
X67503748Y-34275858D01*
X67489605Y-34290000D01*
X67503748Y-34304143D01*
X67324143Y-34483748D01*
X67310000Y-34469605D01*
X66337073Y-35442532D01*
X66435736Y-35709387D01*
X67045461Y-35935908D01*
X67695460Y-35911856D01*
X68184264Y-35709387D01*
X68282926Y-35442534D01*
X68397206Y-35556814D01*
X68453000Y-35501020D01*
X68453000Y-39578980D01*
X68397206Y-39523186D01*
X68282926Y-39637466D01*
X68184264Y-39370613D01*
X67574539Y-39144092D01*
X66924540Y-39168144D01*
X66435736Y-39370613D01*
X66337073Y-39637468D01*
X67310000Y-40610395D01*
X67324143Y-40596253D01*
X67503748Y-40775858D01*
X67489605Y-40790000D01*
X67503748Y-40804143D01*
X67324143Y-40983748D01*
X67310000Y-40969605D01*
X66337073Y-41942532D01*
X66435736Y-42209387D01*
X67045461Y-42435908D01*
X67695460Y-42411856D01*
X68042136Y-42268258D01*
X66291124Y-44019270D01*
X64930069Y-44290000D01*
X5069931Y-44290000D01*
X3521630Y-43982024D01*
X1397000Y-41857394D01*
X1397000Y-34617512D01*
X2412538Y-34617512D01*
X2817709Y-35598101D01*
X3567293Y-36348995D01*
X4547173Y-36755876D01*
X5608172Y-36756802D01*
X6588761Y-36351631D01*
X7339655Y-35602047D01*
X7746536Y-34622167D01*
X7747462Y-33561168D01*
X7342291Y-32580579D01*
X6592707Y-31829685D01*
X5612827Y-31422804D01*
X4551828Y-31421878D01*
X3571239Y-31827049D01*
X2820345Y-32576633D01*
X2413464Y-33556513D01*
X2412538Y-34617512D01*
X1397000Y-34617512D01*
X1397000Y-26806315D01*
X1726020Y-27135909D01*
X2253289Y-27354850D01*
X2824207Y-27355348D01*
X3351857Y-27137328D01*
X3645092Y-26844604D01*
X3644652Y-27349207D01*
X3862672Y-27876857D01*
X4266020Y-28280909D01*
X4793289Y-28499850D01*
X5364207Y-28500348D01*
X5891857Y-28282328D01*
X6295909Y-27878980D01*
X6514850Y-27351711D01*
X6515292Y-26844674D01*
X6806020Y-27135909D01*
X7333289Y-27354850D01*
X7904207Y-27355348D01*
X8431857Y-27137328D01*
X8835909Y-26733980D01*
X9054850Y-26206711D01*
X9055348Y-25635793D01*
X8977453Y-25447271D01*
X9179301Y-25312401D01*
X13749680Y-20742022D01*
X13795167Y-20742062D01*
X14138943Y-20600017D01*
X14402192Y-20337227D01*
X14544838Y-19993699D01*
X14544879Y-19946823D01*
X20937102Y-13554600D01*
X21362560Y-13554600D01*
X21362560Y-14820000D01*
X21406838Y-15055317D01*
X21545910Y-15271441D01*
X21758110Y-15416431D01*
X22010000Y-15467440D01*
X23710000Y-15467440D01*
X23945317Y-15423162D01*
X24116900Y-15312751D01*
X24116900Y-27155973D01*
X23939147Y-26889946D01*
X23457378Y-26568039D01*
X22889093Y-26455000D01*
X22830907Y-26455000D01*
X22262622Y-26568039D01*
X21780853Y-26889946D01*
X21458946Y-27371715D01*
X21345907Y-27940000D01*
X21458946Y-28508285D01*
X21780853Y-28990054D01*
X21822452Y-29017850D01*
X21774683Y-29026838D01*
X21558559Y-29165910D01*
X21413569Y-29378110D01*
X21362560Y-29630000D01*
X21362560Y-31330000D01*
X21406838Y-31565317D01*
X21471576Y-31665922D01*
X13947720Y-39189778D01*
X13902233Y-39189738D01*
X13558457Y-39331783D01*
X13295208Y-39594573D01*
X13152562Y-39938101D01*
X13152238Y-40310067D01*
X13294283Y-40653843D01*
X13557073Y-40917092D01*
X13900601Y-41059738D01*
X14272567Y-41060062D01*
X14616343Y-40918017D01*
X14879592Y-40655227D01*
X15022238Y-40311699D01*
X15022279Y-40264823D01*
X22874733Y-32412369D01*
X23150839Y-32357448D01*
X23397401Y-32192701D01*
X23541233Y-31977440D01*
X23710000Y-31977440D01*
X23945317Y-31933162D01*
X24161441Y-31794090D01*
X24306431Y-31581890D01*
X24357440Y-31330000D01*
X24357440Y-29630000D01*
X24313162Y-29394683D01*
X24259701Y-29311601D01*
X24496398Y-29074904D01*
X24512983Y-29115043D01*
X24775773Y-29378292D01*
X25119301Y-29520938D01*
X25491267Y-29521262D01*
X25835043Y-29379217D01*
X26098292Y-29116427D01*
X26240938Y-28772899D01*
X26240979Y-28726023D01*
X31785202Y-23181800D01*
X33951498Y-23181800D01*
X28672599Y-28460699D01*
X28507852Y-28707261D01*
X28450000Y-28998100D01*
X28450000Y-40637046D01*
X28159946Y-40830853D01*
X27838039Y-41312622D01*
X27725000Y-41880907D01*
X27725000Y-41939093D01*
X27838039Y-42507378D01*
X28159946Y-42989147D01*
X28641715Y-43311054D01*
X29210000Y-43424093D01*
X29778285Y-43311054D01*
X30260054Y-42989147D01*
X30287850Y-42947548D01*
X30296838Y-42995317D01*
X30435910Y-43211441D01*
X30648110Y-43356431D01*
X30900000Y-43407440D01*
X32600000Y-43407440D01*
X32835317Y-43363162D01*
X33051441Y-43224090D01*
X33196431Y-43011890D01*
X33247440Y-42760000D01*
X33247440Y-41060000D01*
X33203162Y-40824683D01*
X33064090Y-40608559D01*
X32851890Y-40463569D01*
X32600000Y-40412560D01*
X30900000Y-40412560D01*
X30664683Y-40456838D01*
X30448559Y-40595910D01*
X30303569Y-40808110D01*
X30289914Y-40875541D01*
X30260054Y-40830853D01*
X29970000Y-40637046D01*
X29970000Y-29312902D01*
X34398294Y-24884608D01*
X34629873Y-25116592D01*
X34973401Y-25259238D01*
X35020277Y-25259279D01*
X38515400Y-28754402D01*
X38515400Y-40412560D01*
X37250000Y-40412560D01*
X37014683Y-40456838D01*
X36798559Y-40595910D01*
X36752631Y-40663129D01*
X33589601Y-37500099D01*
X33343039Y-37335352D01*
X33052200Y-37277500D01*
X31657263Y-37277500D01*
X31625127Y-37245308D01*
X31281599Y-37102662D01*
X30909633Y-37102338D01*
X30565857Y-37244383D01*
X30302608Y-37507173D01*
X30159962Y-37850701D01*
X30159638Y-38222667D01*
X30301683Y-38566443D01*
X30564473Y-38829692D01*
X30908001Y-38972338D01*
X31279967Y-38972662D01*
X31623743Y-38830617D01*
X31656918Y-38797500D01*
X32737398Y-38797500D01*
X36387299Y-42447401D01*
X36602560Y-42591233D01*
X36602560Y-42760000D01*
X36646838Y-42995317D01*
X36785910Y-43211441D01*
X36998110Y-43356431D01*
X37250000Y-43407440D01*
X38950000Y-43407440D01*
X39185317Y-43363162D01*
X39262861Y-43313263D01*
X39572299Y-43622701D01*
X39818860Y-43787448D01*
X40109700Y-43845300D01*
X46276800Y-43845300D01*
X46567639Y-43787448D01*
X46814201Y-43622701D01*
X47352502Y-43084400D01*
X47691715Y-43311054D01*
X48260000Y-43424093D01*
X48828285Y-43311054D01*
X49310054Y-42989147D01*
X49523301Y-42670000D01*
X61690000Y-42670000D01*
X61980839Y-42612148D01*
X62227401Y-42447401D01*
X62318527Y-42356275D01*
X62483352Y-42424716D01*
X63133795Y-42425284D01*
X63734943Y-42176894D01*
X64195278Y-41717363D01*
X64444716Y-41116648D01*
X64445232Y-40525461D01*
X65664092Y-40525461D01*
X65688144Y-41175460D01*
X65890613Y-41664264D01*
X66157468Y-41762927D01*
X67130395Y-40790000D01*
X66157468Y-39817073D01*
X65890613Y-39915736D01*
X65664092Y-40525461D01*
X64445232Y-40525461D01*
X64445284Y-40466205D01*
X64196894Y-39865057D01*
X63737363Y-39404722D01*
X63570000Y-39335227D01*
X63570000Y-35745047D01*
X63734943Y-35676894D01*
X64195278Y-35217363D01*
X64444716Y-34616648D01*
X64445232Y-34025461D01*
X65664092Y-34025461D01*
X65688144Y-34675460D01*
X65890613Y-35164264D01*
X66157468Y-35262927D01*
X67130395Y-34290000D01*
X66157468Y-33317073D01*
X65890613Y-33415736D01*
X65664092Y-34025461D01*
X64445232Y-34025461D01*
X64445284Y-33966205D01*
X64196894Y-33365057D01*
X63737363Y-32904722D01*
X63136648Y-32655284D01*
X62486205Y-32654716D01*
X61885057Y-32903106D01*
X61424722Y-33362637D01*
X61175284Y-33963352D01*
X61174716Y-34613795D01*
X61423106Y-35214943D01*
X61882637Y-35675278D01*
X62050000Y-35744773D01*
X62050000Y-39334953D01*
X61885057Y-39403106D01*
X61424722Y-39862637D01*
X61175284Y-40463352D01*
X61174716Y-41113795D01*
X61189676Y-41150000D01*
X49523301Y-41150000D01*
X49310054Y-40830853D01*
X48828285Y-40508946D01*
X48260000Y-40395907D01*
X47691715Y-40508946D01*
X47209946Y-40830853D01*
X46990000Y-41160026D01*
X46770054Y-40830853D01*
X46288285Y-40508946D01*
X45720000Y-40395907D01*
X45151715Y-40508946D01*
X44669946Y-40830853D01*
X44442298Y-41171553D01*
X44375183Y-41028642D01*
X43946924Y-40638355D01*
X43536890Y-40468524D01*
X43307000Y-40589845D01*
X43307000Y-41783000D01*
X43327000Y-41783000D01*
X43327000Y-42037000D01*
X43307000Y-42037000D01*
X43307000Y-42057000D01*
X43053000Y-42057000D01*
X43053000Y-42037000D01*
X43033000Y-42037000D01*
X43033000Y-41783000D01*
X43053000Y-41783000D01*
X43053000Y-40589845D01*
X42823110Y-40468524D01*
X42413076Y-40638355D01*
X41984817Y-41028642D01*
X41917702Y-41171553D01*
X41690054Y-40830853D01*
X41647250Y-40802252D01*
X43887001Y-38562501D01*
X44051748Y-38315939D01*
X44109600Y-38025100D01*
X44109600Y-28995593D01*
X64434012Y-28995593D01*
X64575478Y-29298782D01*
X65311955Y-29583737D01*
X66101418Y-29565164D01*
X66744522Y-29298782D01*
X66885988Y-28995593D01*
X65660000Y-27769605D01*
X64434012Y-28995593D01*
X44109600Y-28995593D01*
X44109600Y-27241955D01*
X63666263Y-27241955D01*
X63684836Y-28031418D01*
X63951218Y-28674522D01*
X64254407Y-28815988D01*
X65480395Y-27590000D01*
X65839605Y-27590000D01*
X67065593Y-28815988D01*
X67368782Y-28674522D01*
X67653737Y-27938045D01*
X67635164Y-27148582D01*
X67368782Y-26505478D01*
X67065593Y-26364012D01*
X65839605Y-27590000D01*
X65480395Y-27590000D01*
X64254407Y-26364012D01*
X63951218Y-26505478D01*
X63666263Y-27241955D01*
X44109600Y-27241955D01*
X44109600Y-26184407D01*
X64434012Y-26184407D01*
X65660000Y-27410395D01*
X66885988Y-26184407D01*
X66744522Y-25881218D01*
X66008045Y-25596263D01*
X65218582Y-25614836D01*
X64575478Y-25881218D01*
X64434012Y-26184407D01*
X44109600Y-26184407D01*
X44109600Y-24486890D01*
X54438524Y-24486890D01*
X54608355Y-24896924D01*
X54998642Y-25325183D01*
X55523108Y-25571486D01*
X55753000Y-25450819D01*
X55753000Y-24257000D01*
X56007000Y-24257000D01*
X56007000Y-25450819D01*
X56236892Y-25571486D01*
X56761358Y-25325183D01*
X57151645Y-24896924D01*
X57321476Y-24486890D01*
X57200155Y-24257000D01*
X56007000Y-24257000D01*
X55753000Y-24257000D01*
X54559845Y-24257000D01*
X54438524Y-24486890D01*
X44109600Y-24486890D01*
X44109600Y-17684163D01*
X44141792Y-17652027D01*
X44284438Y-17308499D01*
X44284762Y-16936533D01*
X44142717Y-16592757D01*
X43879927Y-16329508D01*
X43536399Y-16186862D01*
X43164433Y-16186538D01*
X42820657Y-16328583D01*
X42738055Y-16411041D01*
X42678127Y-16351008D01*
X42334599Y-16208362D01*
X41962633Y-16208038D01*
X41618857Y-16350083D01*
X41355608Y-16612873D01*
X41212962Y-16956401D01*
X41212921Y-17003277D01*
X41197914Y-17018284D01*
X41197962Y-16962933D01*
X41055917Y-16619157D01*
X40793127Y-16355908D01*
X40449599Y-16213262D01*
X40402723Y-16213221D01*
X39774001Y-15584499D01*
X39745268Y-15565300D01*
X42010537Y-15565300D01*
X42042673Y-15597492D01*
X42386201Y-15740138D01*
X42758167Y-15740462D01*
X43101943Y-15598417D01*
X43365192Y-15335627D01*
X43507838Y-14992099D01*
X43508162Y-14620133D01*
X43366117Y-14276357D01*
X43103327Y-14013108D01*
X42759799Y-13870462D01*
X42387833Y-13870138D01*
X42044057Y-14012183D01*
X42010882Y-14045300D01*
X25185402Y-14045300D01*
X24694702Y-13554600D01*
X45594498Y-13554600D01*
X54167299Y-22127401D01*
X54413861Y-22292148D01*
X54592077Y-22327598D01*
X54800853Y-22640054D01*
X55141553Y-22867702D01*
X54998642Y-22934817D01*
X54608355Y-23363076D01*
X54438524Y-23773110D01*
X54559845Y-24003000D01*
X55753000Y-24003000D01*
X55753000Y-23983000D01*
X56007000Y-23983000D01*
X56007000Y-24003000D01*
X57200155Y-24003000D01*
X57321476Y-23773110D01*
X57151645Y-23363076D01*
X56761358Y-22934817D01*
X56618447Y-22867702D01*
X56959147Y-22640054D01*
X57167923Y-22327598D01*
X57346139Y-22292148D01*
X57592701Y-22127401D01*
X58640102Y-21080000D01*
X59764633Y-21080000D01*
X59776687Y-21109172D01*
X60168764Y-21501934D01*
X60380738Y-21589954D01*
X60170828Y-21676687D01*
X59778066Y-22068764D01*
X59565242Y-22581300D01*
X59564758Y-23136265D01*
X59776687Y-23649172D01*
X60168764Y-24041934D01*
X60681300Y-24254758D01*
X61236265Y-24255242D01*
X61749172Y-24043313D01*
X61960024Y-23832829D01*
X62168764Y-24041934D01*
X62681300Y-24254758D01*
X63236265Y-24255242D01*
X63749172Y-24043313D01*
X64141934Y-23651236D01*
X64354758Y-23138700D01*
X64355242Y-22583735D01*
X64143313Y-22070828D01*
X63751236Y-21678066D01*
X63555066Y-21596609D01*
X63689941Y-21540742D01*
X63759159Y-21298764D01*
X62960000Y-20499605D01*
X62160841Y-21298764D01*
X62230059Y-21540742D01*
X62374862Y-21592382D01*
X62170828Y-21676687D01*
X61959976Y-21887171D01*
X61751236Y-21678066D01*
X61539262Y-21590046D01*
X61749172Y-21503313D01*
X62141934Y-21111236D01*
X62250419Y-20849976D01*
X62780395Y-20320000D01*
X63139605Y-20320000D01*
X63938764Y-21119159D01*
X64180742Y-21049941D01*
X64367155Y-20527220D01*
X64339341Y-19972951D01*
X64180742Y-19590059D01*
X63938764Y-19520841D01*
X63139605Y-20320000D01*
X62780395Y-20320000D01*
X62250405Y-19790010D01*
X62143313Y-19530828D01*
X61954052Y-19341236D01*
X62160841Y-19341236D01*
X62960000Y-20140395D01*
X63759159Y-19341236D01*
X63689941Y-19099258D01*
X63167220Y-18912845D01*
X62612951Y-18940659D01*
X62230059Y-19099258D01*
X62160841Y-19341236D01*
X61954052Y-19341236D01*
X61751236Y-19138066D01*
X61238700Y-18925242D01*
X60683735Y-18924758D01*
X60170828Y-19136687D01*
X59778066Y-19528764D01*
X59765096Y-19560000D01*
X58325300Y-19560000D01*
X58034460Y-19617852D01*
X57787899Y-19782599D01*
X56987748Y-20582750D01*
X56959147Y-20539946D01*
X56917548Y-20512150D01*
X56965317Y-20503162D01*
X57181441Y-20364090D01*
X57326431Y-20151890D01*
X57377440Y-19900000D01*
X57377440Y-18200000D01*
X57333162Y-17964683D01*
X57194090Y-17748559D01*
X56981890Y-17603569D01*
X56730000Y-17552560D01*
X55030000Y-17552560D01*
X54794683Y-17596838D01*
X54578559Y-17735910D01*
X54433569Y-17948110D01*
X54382560Y-18200000D01*
X54382560Y-19900000D01*
X54426838Y-20135317D01*
X54565910Y-20351441D01*
X54778110Y-20496431D01*
X54845541Y-20510086D01*
X54800853Y-20539946D01*
X54772252Y-20582750D01*
X51185095Y-16995593D01*
X64434012Y-16995593D01*
X64575478Y-17298782D01*
X65311955Y-17583737D01*
X66101418Y-17565164D01*
X66744522Y-17298782D01*
X66885988Y-16995593D01*
X65660000Y-15769605D01*
X64434012Y-16995593D01*
X51185095Y-16995593D01*
X49431457Y-15241955D01*
X63666263Y-15241955D01*
X63684836Y-16031418D01*
X63951218Y-16674522D01*
X64254407Y-16815988D01*
X65480395Y-15590000D01*
X65839605Y-15590000D01*
X67065593Y-16815988D01*
X67368782Y-16674522D01*
X67653737Y-15938045D01*
X67635164Y-15148582D01*
X67368782Y-14505478D01*
X67065593Y-14364012D01*
X65839605Y-15590000D01*
X65480395Y-15590000D01*
X64254407Y-14364012D01*
X63951218Y-14505478D01*
X63666263Y-15241955D01*
X49431457Y-15241955D01*
X48373909Y-14184407D01*
X64434012Y-14184407D01*
X65660000Y-15410395D01*
X66885988Y-14184407D01*
X66744522Y-13881218D01*
X66008045Y-13596263D01*
X65218582Y-13614836D01*
X64575478Y-13881218D01*
X64434012Y-14184407D01*
X48373909Y-14184407D01*
X46446701Y-12257199D01*
X46200139Y-12092452D01*
X45909300Y-12034600D01*
X42230777Y-12034600D01*
X42230862Y-11937233D01*
X42106343Y-11635873D01*
X42216038Y-11371699D01*
X42216362Y-10999733D01*
X42074317Y-10655957D01*
X41811527Y-10392708D01*
X41467999Y-10250062D01*
X41421123Y-10250021D01*
X40376201Y-9205099D01*
X40129639Y-9040352D01*
X39838800Y-8982500D01*
X21126900Y-8982500D01*
X20836061Y-9040352D01*
X20589499Y-9205099D01*
X18039920Y-11754678D01*
X17994433Y-11754638D01*
X17650657Y-11896683D01*
X17387408Y-12159473D01*
X17244762Y-12503001D01*
X17244438Y-12874967D01*
X17277097Y-12954009D01*
X17205108Y-13025873D01*
X17062462Y-13369401D01*
X17062138Y-13741367D01*
X17204183Y-14085143D01*
X17466973Y-14348392D01*
X17810501Y-14491038D01*
X17851025Y-14491073D01*
X13470320Y-18871778D01*
X13424833Y-18871738D01*
X13081057Y-19013783D01*
X12817808Y-19276573D01*
X12675162Y-19620101D01*
X12675121Y-19666977D01*
X9038085Y-23304013D01*
X8837328Y-22818143D01*
X8504539Y-22484773D01*
X8835909Y-22153980D01*
X9054850Y-21626711D01*
X9055348Y-21055793D01*
X8844676Y-20545926D01*
X12913701Y-16476901D01*
X13078448Y-16230339D01*
X13136300Y-15939500D01*
X13136300Y-13587563D01*
X13168492Y-13555427D01*
X13311138Y-13211899D01*
X13311462Y-12839933D01*
X13169417Y-12496157D01*
X13068256Y-12394819D01*
X13208392Y-12254927D01*
X13351038Y-11911399D01*
X13351362Y-11539433D01*
X13209317Y-11195657D01*
X12946527Y-10932408D01*
X12602999Y-10789762D01*
X12231033Y-10789438D01*
X11887257Y-10931483D01*
X11624008Y-11194273D01*
X11481362Y-11537801D01*
X11481321Y-11584677D01*
X10817811Y-12248187D01*
X10817862Y-12189733D01*
X10675817Y-11845957D01*
X10413027Y-11582708D01*
X10069499Y-11440062D01*
X9697533Y-11439738D01*
X9353757Y-11581783D01*
X9320582Y-11614900D01*
X9010200Y-11614900D01*
X8719360Y-11672752D01*
X8472799Y-11837499D01*
X3934168Y-16376130D01*
X3757328Y-15948143D01*
X3353980Y-15544091D01*
X2826711Y-15325150D01*
X2255793Y-15324652D01*
X1728143Y-15542672D01*
X1397000Y-15873238D01*
X1397000Y-9618832D01*
X2412538Y-9618832D01*
X2817709Y-10599421D01*
X3567293Y-11350315D01*
X4547173Y-11757196D01*
X5608172Y-11758122D01*
X6588761Y-11352951D01*
X7339655Y-10603367D01*
X7746536Y-9623487D01*
X7747462Y-8562488D01*
X7342291Y-7581899D01*
X6592707Y-6831005D01*
X5612827Y-6424124D01*
X4551828Y-6423198D01*
X3571239Y-6828369D01*
X2820345Y-7577953D01*
X2413464Y-8557833D01*
X2412538Y-9618832D01*
X1397000Y-9618832D01*
X1397000Y-3862606D01*
X3862606Y-1397000D01*
X65987394Y-1397000D01*
X68453000Y-3862606D01*
X68453000Y-3862606D01*
G37*
X68453000Y-3862606D02*
X68453000Y-33078980D01*
X68397206Y-33023186D01*
X68282926Y-33137466D01*
X68184264Y-32870613D01*
X67574539Y-32644092D01*
X66924540Y-32668144D01*
X66435736Y-32870613D01*
X66337073Y-33137468D01*
X67310000Y-34110395D01*
X67324143Y-34096253D01*
X67503748Y-34275858D01*
X67489605Y-34290000D01*
X67503748Y-34304143D01*
X67324143Y-34483748D01*
X67310000Y-34469605D01*
X66337073Y-35442532D01*
X66435736Y-35709387D01*
X67045461Y-35935908D01*
X67695460Y-35911856D01*
X68184264Y-35709387D01*
X68282926Y-35442534D01*
X68397206Y-35556814D01*
X68453000Y-35501020D01*
X68453000Y-39578980D01*
X68397206Y-39523186D01*
X68282926Y-39637466D01*
X68184264Y-39370613D01*
X67574539Y-39144092D01*
X66924540Y-39168144D01*
X66435736Y-39370613D01*
X66337073Y-39637468D01*
X67310000Y-40610395D01*
X67324143Y-40596253D01*
X67503748Y-40775858D01*
X67489605Y-40790000D01*
X67503748Y-40804143D01*
X67324143Y-40983748D01*
X67310000Y-40969605D01*
X66337073Y-41942532D01*
X66435736Y-42209387D01*
X67045461Y-42435908D01*
X67695460Y-42411856D01*
X68042136Y-42268258D01*
X66291124Y-44019270D01*
X64930069Y-44290000D01*
X5069931Y-44290000D01*
X3521630Y-43982024D01*
X1397000Y-41857394D01*
X1397000Y-34617512D01*
X2412538Y-34617512D01*
X2817709Y-35598101D01*
X3567293Y-36348995D01*
X4547173Y-36755876D01*
X5608172Y-36756802D01*
X6588761Y-36351631D01*
X7339655Y-35602047D01*
X7746536Y-34622167D01*
X7747462Y-33561168D01*
X7342291Y-32580579D01*
X6592707Y-31829685D01*
X5612827Y-31422804D01*
X4551828Y-31421878D01*
X3571239Y-31827049D01*
X2820345Y-32576633D01*
X2413464Y-33556513D01*
X2412538Y-34617512D01*
X1397000Y-34617512D01*
X1397000Y-26806315D01*
X1726020Y-27135909D01*
X2253289Y-27354850D01*
X2824207Y-27355348D01*
X3351857Y-27137328D01*
X3645092Y-26844604D01*
X3644652Y-27349207D01*
X3862672Y-27876857D01*
X4266020Y-28280909D01*
X4793289Y-28499850D01*
X5364207Y-28500348D01*
X5891857Y-28282328D01*
X6295909Y-27878980D01*
X6514850Y-27351711D01*
X6515292Y-26844674D01*
X6806020Y-27135909D01*
X7333289Y-27354850D01*
X7904207Y-27355348D01*
X8431857Y-27137328D01*
X8835909Y-26733980D01*
X9054850Y-26206711D01*
X9055348Y-25635793D01*
X8977453Y-25447271D01*
X9179301Y-25312401D01*
X13749680Y-20742022D01*
X13795167Y-20742062D01*
X14138943Y-20600017D01*
X14402192Y-20337227D01*
X14544838Y-19993699D01*
X14544879Y-19946823D01*
X20937102Y-13554600D01*
X21362560Y-13554600D01*
X21362560Y-14820000D01*
X21406838Y-15055317D01*
X21545910Y-15271441D01*
X21758110Y-15416431D01*
X22010000Y-15467440D01*
X23710000Y-15467440D01*
X23945317Y-15423162D01*
X24116900Y-15312751D01*
X24116900Y-27155973D01*
X23939147Y-26889946D01*
X23457378Y-26568039D01*
X22889093Y-26455000D01*
X22830907Y-26455000D01*
X22262622Y-26568039D01*
X21780853Y-26889946D01*
X21458946Y-27371715D01*
X21345907Y-27940000D01*
X21458946Y-28508285D01*
X21780853Y-28990054D01*
X21822452Y-29017850D01*
X21774683Y-29026838D01*
X21558559Y-29165910D01*
X21413569Y-29378110D01*
X21362560Y-29630000D01*
X21362560Y-31330000D01*
X21406838Y-31565317D01*
X21471576Y-31665922D01*
X13947720Y-39189778D01*
X13902233Y-39189738D01*
X13558457Y-39331783D01*
X13295208Y-39594573D01*
X13152562Y-39938101D01*
X13152238Y-40310067D01*
X13294283Y-40653843D01*
X13557073Y-40917092D01*
X13900601Y-41059738D01*
X14272567Y-41060062D01*
X14616343Y-40918017D01*
X14879592Y-40655227D01*
X15022238Y-40311699D01*
X15022279Y-40264823D01*
X22874733Y-32412369D01*
X23150839Y-32357448D01*
X23397401Y-32192701D01*
X23541233Y-31977440D01*
X23710000Y-31977440D01*
X23945317Y-31933162D01*
X24161441Y-31794090D01*
X24306431Y-31581890D01*
X24357440Y-31330000D01*
X24357440Y-29630000D01*
X24313162Y-29394683D01*
X24259701Y-29311601D01*
X24496398Y-29074904D01*
X24512983Y-29115043D01*
X24775773Y-29378292D01*
X25119301Y-29520938D01*
X25491267Y-29521262D01*
X25835043Y-29379217D01*
X26098292Y-29116427D01*
X26240938Y-28772899D01*
X26240979Y-28726023D01*
X31785202Y-23181800D01*
X33951498Y-23181800D01*
X28672599Y-28460699D01*
X28507852Y-28707261D01*
X28450000Y-28998100D01*
X28450000Y-40637046D01*
X28159946Y-40830853D01*
X27838039Y-41312622D01*
X27725000Y-41880907D01*
X27725000Y-41939093D01*
X27838039Y-42507378D01*
X28159946Y-42989147D01*
X28641715Y-43311054D01*
X29210000Y-43424093D01*
X29778285Y-43311054D01*
X30260054Y-42989147D01*
X30287850Y-42947548D01*
X30296838Y-42995317D01*
X30435910Y-43211441D01*
X30648110Y-43356431D01*
X30900000Y-43407440D01*
X32600000Y-43407440D01*
X32835317Y-43363162D01*
X33051441Y-43224090D01*
X33196431Y-43011890D01*
X33247440Y-42760000D01*
X33247440Y-41060000D01*
X33203162Y-40824683D01*
X33064090Y-40608559D01*
X32851890Y-40463569D01*
X32600000Y-40412560D01*
X30900000Y-40412560D01*
X30664683Y-40456838D01*
X30448559Y-40595910D01*
X30303569Y-40808110D01*
X30289914Y-40875541D01*
X30260054Y-40830853D01*
X29970000Y-40637046D01*
X29970000Y-29312902D01*
X34398294Y-24884608D01*
X34629873Y-25116592D01*
X34973401Y-25259238D01*
X35020277Y-25259279D01*
X38515400Y-28754402D01*
X38515400Y-40412560D01*
X37250000Y-40412560D01*
X37014683Y-40456838D01*
X36798559Y-40595910D01*
X36752631Y-40663129D01*
X33589601Y-37500099D01*
X33343039Y-37335352D01*
X33052200Y-37277500D01*
X31657263Y-37277500D01*
X31625127Y-37245308D01*
X31281599Y-37102662D01*
X30909633Y-37102338D01*
X30565857Y-37244383D01*
X30302608Y-37507173D01*
X30159962Y-37850701D01*
X30159638Y-38222667D01*
X30301683Y-38566443D01*
X30564473Y-38829692D01*
X30908001Y-38972338D01*
X31279967Y-38972662D01*
X31623743Y-38830617D01*
X31656918Y-38797500D01*
X32737398Y-38797500D01*
X36387299Y-42447401D01*
X36602560Y-42591233D01*
X36602560Y-42760000D01*
X36646838Y-42995317D01*
X36785910Y-43211441D01*
X36998110Y-43356431D01*
X37250000Y-43407440D01*
X38950000Y-43407440D01*
X39185317Y-43363162D01*
X39262861Y-43313263D01*
X39572299Y-43622701D01*
X39818860Y-43787448D01*
X40109700Y-43845300D01*
X46276800Y-43845300D01*
X46567639Y-43787448D01*
X46814201Y-43622701D01*
X47352502Y-43084400D01*
X47691715Y-43311054D01*
X48260000Y-43424093D01*
X48828285Y-43311054D01*
X49310054Y-42989147D01*
X49523301Y-42670000D01*
X61690000Y-42670000D01*
X61980839Y-42612148D01*
X62227401Y-42447401D01*
X62318527Y-42356275D01*
X62483352Y-42424716D01*
X63133795Y-42425284D01*
X63734943Y-42176894D01*
X64195278Y-41717363D01*
X64444716Y-41116648D01*
X64445232Y-40525461D01*
X65664092Y-40525461D01*
X65688144Y-41175460D01*
X65890613Y-41664264D01*
X66157468Y-41762927D01*
X67130395Y-40790000D01*
X66157468Y-39817073D01*
X65890613Y-39915736D01*
X65664092Y-40525461D01*
X64445232Y-40525461D01*
X64445284Y-40466205D01*
X64196894Y-39865057D01*
X63737363Y-39404722D01*
X63570000Y-39335227D01*
X63570000Y-35745047D01*
X63734943Y-35676894D01*
X64195278Y-35217363D01*
X64444716Y-34616648D01*
X64445232Y-34025461D01*
X65664092Y-34025461D01*
X65688144Y-34675460D01*
X65890613Y-35164264D01*
X66157468Y-35262927D01*
X67130395Y-34290000D01*
X66157468Y-33317073D01*
X65890613Y-33415736D01*
X65664092Y-34025461D01*
X64445232Y-34025461D01*
X64445284Y-33966205D01*
X64196894Y-33365057D01*
X63737363Y-32904722D01*
X63136648Y-32655284D01*
X62486205Y-32654716D01*
X61885057Y-32903106D01*
X61424722Y-33362637D01*
X61175284Y-33963352D01*
X61174716Y-34613795D01*
X61423106Y-35214943D01*
X61882637Y-35675278D01*
X62050000Y-35744773D01*
X62050000Y-39334953D01*
X61885057Y-39403106D01*
X61424722Y-39862637D01*
X61175284Y-40463352D01*
X61174716Y-41113795D01*
X61189676Y-41150000D01*
X49523301Y-41150000D01*
X49310054Y-40830853D01*
X48828285Y-40508946D01*
X48260000Y-40395907D01*
X47691715Y-40508946D01*
X47209946Y-40830853D01*
X46990000Y-41160026D01*
X46770054Y-40830853D01*
X46288285Y-40508946D01*
X45720000Y-40395907D01*
X45151715Y-40508946D01*
X44669946Y-40830853D01*
X44442298Y-41171553D01*
X44375183Y-41028642D01*
X43946924Y-40638355D01*
X43536890Y-40468524D01*
X43307000Y-40589845D01*
X43307000Y-41783000D01*
X43327000Y-41783000D01*
X43327000Y-42037000D01*
X43307000Y-42037000D01*
X43307000Y-42057000D01*
X43053000Y-42057000D01*
X43053000Y-42037000D01*
X43033000Y-42037000D01*
X43033000Y-41783000D01*
X43053000Y-41783000D01*
X43053000Y-40589845D01*
X42823110Y-40468524D01*
X42413076Y-40638355D01*
X41984817Y-41028642D01*
X41917702Y-41171553D01*
X41690054Y-40830853D01*
X41647250Y-40802252D01*
X43887001Y-38562501D01*
X44051748Y-38315939D01*
X44109600Y-38025100D01*
X44109600Y-28995593D01*
X64434012Y-28995593D01*
X64575478Y-29298782D01*
X65311955Y-29583737D01*
X66101418Y-29565164D01*
X66744522Y-29298782D01*
X66885988Y-28995593D01*
X65660000Y-27769605D01*
X64434012Y-28995593D01*
X44109600Y-28995593D01*
X44109600Y-27241955D01*
X63666263Y-27241955D01*
X63684836Y-28031418D01*
X63951218Y-28674522D01*
X64254407Y-28815988D01*
X65480395Y-27590000D01*
X65839605Y-27590000D01*
X67065593Y-28815988D01*
X67368782Y-28674522D01*
X67653737Y-27938045D01*
X67635164Y-27148582D01*
X67368782Y-26505478D01*
X67065593Y-26364012D01*
X65839605Y-27590000D01*
X65480395Y-27590000D01*
X64254407Y-26364012D01*
X63951218Y-26505478D01*
X63666263Y-27241955D01*
X44109600Y-27241955D01*
X44109600Y-26184407D01*
X64434012Y-26184407D01*
X65660000Y-27410395D01*
X66885988Y-26184407D01*
X66744522Y-25881218D01*
X66008045Y-25596263D01*
X65218582Y-25614836D01*
X64575478Y-25881218D01*
X64434012Y-26184407D01*
X44109600Y-26184407D01*
X44109600Y-24486890D01*
X54438524Y-24486890D01*
X54608355Y-24896924D01*
X54998642Y-25325183D01*
X55523108Y-25571486D01*
X55753000Y-25450819D01*
X55753000Y-24257000D01*
X56007000Y-24257000D01*
X56007000Y-25450819D01*
X56236892Y-25571486D01*
X56761358Y-25325183D01*
X57151645Y-24896924D01*
X57321476Y-24486890D01*
X57200155Y-24257000D01*
X56007000Y-24257000D01*
X55753000Y-24257000D01*
X54559845Y-24257000D01*
X54438524Y-24486890D01*
X44109600Y-24486890D01*
X44109600Y-17684163D01*
X44141792Y-17652027D01*
X44284438Y-17308499D01*
X44284762Y-16936533D01*
X44142717Y-16592757D01*
X43879927Y-16329508D01*
X43536399Y-16186862D01*
X43164433Y-16186538D01*
X42820657Y-16328583D01*
X42738055Y-16411041D01*
X42678127Y-16351008D01*
X42334599Y-16208362D01*
X41962633Y-16208038D01*
X41618857Y-16350083D01*
X41355608Y-16612873D01*
X41212962Y-16956401D01*
X41212921Y-17003277D01*
X41197914Y-17018284D01*
X41197962Y-16962933D01*
X41055917Y-16619157D01*
X40793127Y-16355908D01*
X40449599Y-16213262D01*
X40402723Y-16213221D01*
X39774001Y-15584499D01*
X39745268Y-15565300D01*
X42010537Y-15565300D01*
X42042673Y-15597492D01*
X42386201Y-15740138D01*
X42758167Y-15740462D01*
X43101943Y-15598417D01*
X43365192Y-15335627D01*
X43507838Y-14992099D01*
X43508162Y-14620133D01*
X43366117Y-14276357D01*
X43103327Y-14013108D01*
X42759799Y-13870462D01*
X42387833Y-13870138D01*
X42044057Y-14012183D01*
X42010882Y-14045300D01*
X25185402Y-14045300D01*
X24694702Y-13554600D01*
X45594498Y-13554600D01*
X54167299Y-22127401D01*
X54413861Y-22292148D01*
X54592077Y-22327598D01*
X54800853Y-22640054D01*
X55141553Y-22867702D01*
X54998642Y-22934817D01*
X54608355Y-23363076D01*
X54438524Y-23773110D01*
X54559845Y-24003000D01*
X55753000Y-24003000D01*
X55753000Y-23983000D01*
X56007000Y-23983000D01*
X56007000Y-24003000D01*
X57200155Y-24003000D01*
X57321476Y-23773110D01*
X57151645Y-23363076D01*
X56761358Y-22934817D01*
X56618447Y-22867702D01*
X56959147Y-22640054D01*
X57167923Y-22327598D01*
X57346139Y-22292148D01*
X57592701Y-22127401D01*
X58640102Y-21080000D01*
X59764633Y-21080000D01*
X59776687Y-21109172D01*
X60168764Y-21501934D01*
X60380738Y-21589954D01*
X60170828Y-21676687D01*
X59778066Y-22068764D01*
X59565242Y-22581300D01*
X59564758Y-23136265D01*
X59776687Y-23649172D01*
X60168764Y-24041934D01*
X60681300Y-24254758D01*
X61236265Y-24255242D01*
X61749172Y-24043313D01*
X61960024Y-23832829D01*
X62168764Y-24041934D01*
X62681300Y-24254758D01*
X63236265Y-24255242D01*
X63749172Y-24043313D01*
X64141934Y-23651236D01*
X64354758Y-23138700D01*
X64355242Y-22583735D01*
X64143313Y-22070828D01*
X63751236Y-21678066D01*
X63555066Y-21596609D01*
X63689941Y-21540742D01*
X63759159Y-21298764D01*
X62960000Y-20499605D01*
X62160841Y-21298764D01*
X62230059Y-21540742D01*
X62374862Y-21592382D01*
X62170828Y-21676687D01*
X61959976Y-21887171D01*
X61751236Y-21678066D01*
X61539262Y-21590046D01*
X61749172Y-21503313D01*
X62141934Y-21111236D01*
X62250419Y-20849976D01*
X62780395Y-20320000D01*
X63139605Y-20320000D01*
X63938764Y-21119159D01*
X64180742Y-21049941D01*
X64367155Y-20527220D01*
X64339341Y-19972951D01*
X64180742Y-19590059D01*
X63938764Y-19520841D01*
X63139605Y-20320000D01*
X62780395Y-20320000D01*
X62250405Y-19790010D01*
X62143313Y-19530828D01*
X61954052Y-19341236D01*
X62160841Y-19341236D01*
X62960000Y-20140395D01*
X63759159Y-19341236D01*
X63689941Y-19099258D01*
X63167220Y-18912845D01*
X62612951Y-18940659D01*
X62230059Y-19099258D01*
X62160841Y-19341236D01*
X61954052Y-19341236D01*
X61751236Y-19138066D01*
X61238700Y-18925242D01*
X60683735Y-18924758D01*
X60170828Y-19136687D01*
X59778066Y-19528764D01*
X59765096Y-19560000D01*
X58325300Y-19560000D01*
X58034460Y-19617852D01*
X57787899Y-19782599D01*
X56987748Y-20582750D01*
X56959147Y-20539946D01*
X56917548Y-20512150D01*
X56965317Y-20503162D01*
X57181441Y-20364090D01*
X57326431Y-20151890D01*
X57377440Y-19900000D01*
X57377440Y-18200000D01*
X57333162Y-17964683D01*
X57194090Y-17748559D01*
X56981890Y-17603569D01*
X56730000Y-17552560D01*
X55030000Y-17552560D01*
X54794683Y-17596838D01*
X54578559Y-17735910D01*
X54433569Y-17948110D01*
X54382560Y-18200000D01*
X54382560Y-19900000D01*
X54426838Y-20135317D01*
X54565910Y-20351441D01*
X54778110Y-20496431D01*
X54845541Y-20510086D01*
X54800853Y-20539946D01*
X54772252Y-20582750D01*
X51185095Y-16995593D01*
X64434012Y-16995593D01*
X64575478Y-17298782D01*
X65311955Y-17583737D01*
X66101418Y-17565164D01*
X66744522Y-17298782D01*
X66885988Y-16995593D01*
X65660000Y-15769605D01*
X64434012Y-16995593D01*
X51185095Y-16995593D01*
X49431457Y-15241955D01*
X63666263Y-15241955D01*
X63684836Y-16031418D01*
X63951218Y-16674522D01*
X64254407Y-16815988D01*
X65480395Y-15590000D01*
X65839605Y-15590000D01*
X67065593Y-16815988D01*
X67368782Y-16674522D01*
X67653737Y-15938045D01*
X67635164Y-15148582D01*
X67368782Y-14505478D01*
X67065593Y-14364012D01*
X65839605Y-15590000D01*
X65480395Y-15590000D01*
X64254407Y-14364012D01*
X63951218Y-14505478D01*
X63666263Y-15241955D01*
X49431457Y-15241955D01*
X48373909Y-14184407D01*
X64434012Y-14184407D01*
X65660000Y-15410395D01*
X66885988Y-14184407D01*
X66744522Y-13881218D01*
X66008045Y-13596263D01*
X65218582Y-13614836D01*
X64575478Y-13881218D01*
X64434012Y-14184407D01*
X48373909Y-14184407D01*
X46446701Y-12257199D01*
X46200139Y-12092452D01*
X45909300Y-12034600D01*
X42230777Y-12034600D01*
X42230862Y-11937233D01*
X42106343Y-11635873D01*
X42216038Y-11371699D01*
X42216362Y-10999733D01*
X42074317Y-10655957D01*
X41811527Y-10392708D01*
X41467999Y-10250062D01*
X41421123Y-10250021D01*
X40376201Y-9205099D01*
X40129639Y-9040352D01*
X39838800Y-8982500D01*
X21126900Y-8982500D01*
X20836061Y-9040352D01*
X20589499Y-9205099D01*
X18039920Y-11754678D01*
X17994433Y-11754638D01*
X17650657Y-11896683D01*
X17387408Y-12159473D01*
X17244762Y-12503001D01*
X17244438Y-12874967D01*
X17277097Y-12954009D01*
X17205108Y-13025873D01*
X17062462Y-13369401D01*
X17062138Y-13741367D01*
X17204183Y-14085143D01*
X17466973Y-14348392D01*
X17810501Y-14491038D01*
X17851025Y-14491073D01*
X13470320Y-18871778D01*
X13424833Y-18871738D01*
X13081057Y-19013783D01*
X12817808Y-19276573D01*
X12675162Y-19620101D01*
X12675121Y-19666977D01*
X9038085Y-23304013D01*
X8837328Y-22818143D01*
X8504539Y-22484773D01*
X8835909Y-22153980D01*
X9054850Y-21626711D01*
X9055348Y-21055793D01*
X8844676Y-20545926D01*
X12913701Y-16476901D01*
X13078448Y-16230339D01*
X13136300Y-15939500D01*
X13136300Y-13587563D01*
X13168492Y-13555427D01*
X13311138Y-13211899D01*
X13311462Y-12839933D01*
X13169417Y-12496157D01*
X13068256Y-12394819D01*
X13208392Y-12254927D01*
X13351038Y-11911399D01*
X13351362Y-11539433D01*
X13209317Y-11195657D01*
X12946527Y-10932408D01*
X12602999Y-10789762D01*
X12231033Y-10789438D01*
X11887257Y-10931483D01*
X11624008Y-11194273D01*
X11481362Y-11537801D01*
X11481321Y-11584677D01*
X10817811Y-12248187D01*
X10817862Y-12189733D01*
X10675817Y-11845957D01*
X10413027Y-11582708D01*
X10069499Y-11440062D01*
X9697533Y-11439738D01*
X9353757Y-11581783D01*
X9320582Y-11614900D01*
X9010200Y-11614900D01*
X8719360Y-11672752D01*
X8472799Y-11837499D01*
X3934168Y-16376130D01*
X3757328Y-15948143D01*
X3353980Y-15544091D01*
X2826711Y-15325150D01*
X2255793Y-15324652D01*
X1728143Y-15542672D01*
X1397000Y-15873238D01*
X1397000Y-9618832D01*
X2412538Y-9618832D01*
X2817709Y-10599421D01*
X3567293Y-11350315D01*
X4547173Y-11757196D01*
X5608172Y-11758122D01*
X6588761Y-11352951D01*
X7339655Y-10603367D01*
X7746536Y-9623487D01*
X7747462Y-8562488D01*
X7342291Y-7581899D01*
X6592707Y-6831005D01*
X5612827Y-6424124D01*
X4551828Y-6423198D01*
X3571239Y-6828369D01*
X2820345Y-7577953D01*
X2413464Y-8557833D01*
X2412538Y-9618832D01*
X1397000Y-9618832D01*
X1397000Y-3862606D01*
X3862606Y-1397000D01*
X65987394Y-1397000D01*
X68453000Y-3862606D01*
G36*
X5273748Y-20180858D02*
X5259605Y-20195000D01*
X5273748Y-20209143D01*
X5094143Y-20388748D01*
X5080000Y-20374605D01*
X4251788Y-21202817D01*
X4270973Y-21266503D01*
X4268143Y-21267672D01*
X3974908Y-21560396D01*
X3975348Y-21055793D01*
X3946205Y-20985261D01*
X4072183Y-21023212D01*
X4900395Y-20195000D01*
X4886253Y-20180858D01*
X5065858Y-20001253D01*
X5080000Y-20015395D01*
X5094143Y-20001253D01*
X5273748Y-20180858D01*
X5273748Y-20180858D01*
G37*
X5273748Y-20180858D02*
X5259605Y-20195000D01*
X5273748Y-20209143D01*
X5094143Y-20388748D01*
X5080000Y-20374605D01*
X4251788Y-21202817D01*
X4270973Y-21266503D01*
X4268143Y-21267672D01*
X3974908Y-21560396D01*
X3975348Y-21055793D01*
X3946205Y-20985261D01*
X4072183Y-21023212D01*
X4900395Y-20195000D01*
X4886253Y-20180858D01*
X5065858Y-20001253D01*
X5080000Y-20015395D01*
X5094143Y-20001253D01*
X5273748Y-20180858D01*
M02*
