G04 #@! TF.FileFunction,Legend,Top*
%FSLAX46Y46*%
G04 Gerber Fmt 4.6, Leading zero omitted, Abs format (unit mm)*
G04 Created by KiCad (PCBNEW 4.0.6+dfsg1-1) date Wed Jan 10 10:56:04 2018*
%MOMM*%
%LPD*%
G01*
G04 APERTURE LIST*
%ADD10C,0.100000*%
%ADD11C,0.300000*%
%ADD12C,0.120000*%
%ADD13C,0.254000*%
%ADD14C,0.150000*%
G04 APERTURE END LIST*
D10*
D11*
X53225000Y-42417857D02*
X53153571Y-42560714D01*
X53153571Y-42775000D01*
X53225000Y-42989285D01*
X53367857Y-43132143D01*
X53510714Y-43203571D01*
X53796429Y-43275000D01*
X54010714Y-43275000D01*
X54296429Y-43203571D01*
X54439286Y-43132143D01*
X54582143Y-42989285D01*
X54653571Y-42775000D01*
X54653571Y-42632143D01*
X54582143Y-42417857D01*
X54510714Y-42346428D01*
X54010714Y-42346428D01*
X54010714Y-42632143D01*
X54653571Y-41703571D02*
X53153571Y-41703571D01*
X54653571Y-40846428D01*
X53153571Y-40846428D01*
X54653571Y-40132142D02*
X53153571Y-40132142D01*
X53153571Y-39774999D01*
X53225000Y-39560714D01*
X53367857Y-39417856D01*
X53510714Y-39346428D01*
X53796429Y-39274999D01*
X54010714Y-39274999D01*
X54296429Y-39346428D01*
X54439286Y-39417856D01*
X54582143Y-39560714D01*
X54653571Y-39774999D01*
X54653571Y-40132142D01*
X50613571Y-41489285D02*
X50613571Y-42203571D01*
X51327857Y-42275000D01*
X51256429Y-42203571D01*
X51185000Y-42060714D01*
X51185000Y-41703571D01*
X51256429Y-41560714D01*
X51327857Y-41489285D01*
X51470714Y-41417857D01*
X51827857Y-41417857D01*
X51970714Y-41489285D01*
X52042143Y-41560714D01*
X52113571Y-41703571D01*
X52113571Y-42060714D01*
X52042143Y-42203571D01*
X51970714Y-42275000D01*
X51113571Y-40917857D02*
X52113571Y-40560714D01*
X51113571Y-40203572D01*
X48073571Y-43417856D02*
X48073571Y-42489285D01*
X48645000Y-42989285D01*
X48645000Y-42774999D01*
X48716429Y-42632142D01*
X48787857Y-42560713D01*
X48930714Y-42489285D01*
X49287857Y-42489285D01*
X49430714Y-42560713D01*
X49502143Y-42632142D01*
X49573571Y-42774999D01*
X49573571Y-43203571D01*
X49502143Y-43346428D01*
X49430714Y-43417856D01*
X49430714Y-41846428D02*
X49502143Y-41775000D01*
X49573571Y-41846428D01*
X49502143Y-41917857D01*
X49430714Y-41846428D01*
X49573571Y-41846428D01*
X48073571Y-41274999D02*
X48073571Y-40346428D01*
X48645000Y-40846428D01*
X48645000Y-40632142D01*
X48716429Y-40489285D01*
X48787857Y-40417856D01*
X48930714Y-40346428D01*
X49287857Y-40346428D01*
X49430714Y-40417856D01*
X49502143Y-40489285D01*
X49573571Y-40632142D01*
X49573571Y-41060714D01*
X49502143Y-41203571D01*
X49430714Y-41274999D01*
X48573571Y-39846428D02*
X49573571Y-39489285D01*
X48573571Y-39132143D01*
X24808571Y-40254999D02*
X24094286Y-40754999D01*
X24808571Y-41112142D02*
X23308571Y-41112142D01*
X23308571Y-40540714D01*
X23380000Y-40397856D01*
X23451429Y-40326428D01*
X23594286Y-40254999D01*
X23808571Y-40254999D01*
X23951429Y-40326428D01*
X24022857Y-40397856D01*
X24094286Y-40540714D01*
X24094286Y-41112142D01*
X23308571Y-39754999D02*
X24808571Y-38754999D01*
X23308571Y-38754999D02*
X24808571Y-39754999D01*
X20768571Y-41147857D02*
X20768571Y-40290714D01*
X22268571Y-40719285D02*
X20768571Y-40719285D01*
X20768571Y-39933571D02*
X22268571Y-38933571D01*
X20768571Y-38933571D02*
X22268571Y-39933571D01*
X32111429Y-43223571D02*
X31611429Y-42509286D01*
X31254286Y-43223571D02*
X31254286Y-41723571D01*
X31825714Y-41723571D01*
X31968572Y-41795000D01*
X32040000Y-41866429D01*
X32111429Y-42009286D01*
X32111429Y-42223571D01*
X32040000Y-42366429D01*
X31968572Y-42437857D01*
X31825714Y-42509286D01*
X31254286Y-42509286D01*
X32754286Y-42437857D02*
X33254286Y-42437857D01*
X33468572Y-43223571D02*
X32754286Y-43223571D01*
X32754286Y-41723571D01*
X33468572Y-41723571D01*
X34040000Y-43152143D02*
X34254286Y-43223571D01*
X34611429Y-43223571D01*
X34754286Y-43152143D01*
X34825715Y-43080714D01*
X34897143Y-42937857D01*
X34897143Y-42795000D01*
X34825715Y-42652143D01*
X34754286Y-42580714D01*
X34611429Y-42509286D01*
X34325715Y-42437857D01*
X34182857Y-42366429D01*
X34111429Y-42295000D01*
X34040000Y-42152143D01*
X34040000Y-42009286D01*
X34111429Y-41866429D01*
X34182857Y-41795000D01*
X34325715Y-41723571D01*
X34682857Y-41723571D01*
X34897143Y-41795000D01*
X35540000Y-42437857D02*
X36040000Y-42437857D01*
X36254286Y-43223571D02*
X35540000Y-43223571D01*
X35540000Y-41723571D01*
X36254286Y-41723571D01*
X36682857Y-41723571D02*
X37540000Y-41723571D01*
X37111429Y-43223571D02*
X37111429Y-41723571D01*
X39183571Y-6445000D02*
X40683571Y-5945000D01*
X39183571Y-5445000D01*
X40683571Y-4945000D02*
X39183571Y-4945000D01*
X39183571Y-4587857D01*
X39255000Y-4373572D01*
X39397857Y-4230714D01*
X39540714Y-4159286D01*
X39826429Y-4087857D01*
X40040714Y-4087857D01*
X40326429Y-4159286D01*
X40469286Y-4230714D01*
X40612143Y-4373572D01*
X40683571Y-4587857D01*
X40683571Y-4945000D01*
X40683571Y-3445000D02*
X39183571Y-3445000D01*
X39183571Y-3087857D01*
X39255000Y-2873572D01*
X39397857Y-2730714D01*
X39540714Y-2659286D01*
X39826429Y-2587857D01*
X40040714Y-2587857D01*
X40326429Y-2659286D01*
X40469286Y-2730714D01*
X40612143Y-2873572D01*
X40683571Y-3087857D01*
X40683571Y-3445000D01*
X30523571Y-6274285D02*
X29023571Y-6274285D01*
X30523571Y-5417142D01*
X29023571Y-5417142D01*
X30523571Y-3845713D02*
X29809286Y-4345713D01*
X30523571Y-4702856D02*
X29023571Y-4702856D01*
X29023571Y-4131428D01*
X29095000Y-3988570D01*
X29166429Y-3917142D01*
X29309286Y-3845713D01*
X29523571Y-3845713D01*
X29666429Y-3917142D01*
X29737857Y-3988570D01*
X29809286Y-4131428D01*
X29809286Y-4702856D01*
X30452143Y-3274285D02*
X30523571Y-3059999D01*
X30523571Y-2702856D01*
X30452143Y-2559999D01*
X30380714Y-2488570D01*
X30237857Y-2417142D01*
X30095000Y-2417142D01*
X29952143Y-2488570D01*
X29880714Y-2559999D01*
X29809286Y-2702856D01*
X29737857Y-2988570D01*
X29666429Y-3131428D01*
X29595000Y-3202856D01*
X29452143Y-3274285D01*
X29309286Y-3274285D01*
X29166429Y-3202856D01*
X29095000Y-3131428D01*
X29023571Y-2988570D01*
X29023571Y-2631428D01*
X29095000Y-2417142D01*
X29023571Y-1988571D02*
X29023571Y-1131428D01*
X30523571Y-1559999D02*
X29023571Y-1559999D01*
X32992143Y-6988572D02*
X33063571Y-6774286D01*
X33063571Y-6417143D01*
X32992143Y-6274286D01*
X32920714Y-6202857D01*
X32777857Y-6131429D01*
X32635000Y-6131429D01*
X32492143Y-6202857D01*
X32420714Y-6274286D01*
X32349286Y-6417143D01*
X32277857Y-6702857D01*
X32206429Y-6845715D01*
X32135000Y-6917143D01*
X31992143Y-6988572D01*
X31849286Y-6988572D01*
X31706429Y-6917143D01*
X31635000Y-6845715D01*
X31563571Y-6702857D01*
X31563571Y-6345715D01*
X31635000Y-6131429D01*
X31563571Y-5631429D02*
X33063571Y-5274286D01*
X31992143Y-4988572D01*
X33063571Y-4702858D01*
X31563571Y-4345715D01*
X33063571Y-3774286D02*
X31563571Y-3774286D01*
X31563571Y-3417143D01*
X31635000Y-3202858D01*
X31777857Y-3060000D01*
X31920714Y-2988572D01*
X32206429Y-2917143D01*
X32420714Y-2917143D01*
X32706429Y-2988572D01*
X32849286Y-3060000D01*
X32992143Y-3202858D01*
X33063571Y-3417143D01*
X33063571Y-3774286D01*
X33063571Y-2274286D02*
X31563571Y-2274286D01*
X31563571Y-1274286D02*
X31563571Y-988572D01*
X31635000Y-845714D01*
X31777857Y-702857D01*
X32063571Y-631429D01*
X32563571Y-631429D01*
X32849286Y-702857D01*
X32992143Y-845714D01*
X33063571Y-988572D01*
X33063571Y-1274286D01*
X32992143Y-1417143D01*
X32849286Y-1560000D01*
X32563571Y-1631429D01*
X32063571Y-1631429D01*
X31777857Y-1560000D01*
X31635000Y-1417143D01*
X31563571Y-1274286D01*
X34175000Y-5587857D02*
X34103571Y-5730714D01*
X34103571Y-5945000D01*
X34175000Y-6159285D01*
X34317857Y-6302143D01*
X34460714Y-6373571D01*
X34746429Y-6445000D01*
X34960714Y-6445000D01*
X35246429Y-6373571D01*
X35389286Y-6302143D01*
X35532143Y-6159285D01*
X35603571Y-5945000D01*
X35603571Y-5802143D01*
X35532143Y-5587857D01*
X35460714Y-5516428D01*
X34960714Y-5516428D01*
X34960714Y-5802143D01*
X35603571Y-4873571D02*
X34103571Y-4873571D01*
X35603571Y-4016428D01*
X34103571Y-4016428D01*
X35603571Y-3302142D02*
X34103571Y-3302142D01*
X34103571Y-2944999D01*
X34175000Y-2730714D01*
X34317857Y-2587856D01*
X34460714Y-2516428D01*
X34746429Y-2444999D01*
X34960714Y-2444999D01*
X35246429Y-2516428D01*
X35389286Y-2587856D01*
X35532143Y-2730714D01*
X35603571Y-2944999D01*
X35603571Y-3302142D01*
X38072143Y-7202857D02*
X38143571Y-6988571D01*
X38143571Y-6631428D01*
X38072143Y-6488571D01*
X38000714Y-6417142D01*
X37857857Y-6345714D01*
X37715000Y-6345714D01*
X37572143Y-6417142D01*
X37500714Y-6488571D01*
X37429286Y-6631428D01*
X37357857Y-6917142D01*
X37286429Y-7060000D01*
X37215000Y-7131428D01*
X37072143Y-7202857D01*
X36929286Y-7202857D01*
X36786429Y-7131428D01*
X36715000Y-7060000D01*
X36643571Y-6917142D01*
X36643571Y-6560000D01*
X36715000Y-6345714D01*
X36643571Y-5845714D02*
X38143571Y-5488571D01*
X37072143Y-5202857D01*
X38143571Y-4917143D01*
X36643571Y-4560000D01*
X38000714Y-3131428D02*
X38072143Y-3202857D01*
X38143571Y-3417143D01*
X38143571Y-3560000D01*
X38072143Y-3774285D01*
X37929286Y-3917143D01*
X37786429Y-3988571D01*
X37500714Y-4060000D01*
X37286429Y-4060000D01*
X37000714Y-3988571D01*
X36857857Y-3917143D01*
X36715000Y-3774285D01*
X36643571Y-3560000D01*
X36643571Y-3417143D01*
X36715000Y-3202857D01*
X36786429Y-3131428D01*
X38143571Y-1774285D02*
X38143571Y-2488571D01*
X36643571Y-2488571D01*
X38143571Y-1274285D02*
X36643571Y-1274285D01*
X38143571Y-417142D02*
X37286429Y-1059999D01*
X36643571Y-417142D02*
X37500714Y-1274285D01*
X67353571Y-40187143D02*
X65853571Y-40187143D01*
X65853571Y-39830000D01*
X65925000Y-39615715D01*
X66067857Y-39472857D01*
X66210714Y-39401429D01*
X66496429Y-39330000D01*
X66710714Y-39330000D01*
X66996429Y-39401429D01*
X67139286Y-39472857D01*
X67282143Y-39615715D01*
X67353571Y-39830000D01*
X67353571Y-40187143D01*
X66567857Y-38687143D02*
X66567857Y-38187143D01*
X67353571Y-37972857D02*
X67353571Y-38687143D01*
X65853571Y-38687143D01*
X65853571Y-37972857D01*
X66567857Y-36830000D02*
X66639286Y-36615714D01*
X66710714Y-36544286D01*
X66853571Y-36472857D01*
X67067857Y-36472857D01*
X67210714Y-36544286D01*
X67282143Y-36615714D01*
X67353571Y-36758572D01*
X67353571Y-37330000D01*
X65853571Y-37330000D01*
X65853571Y-36830000D01*
X65925000Y-36687143D01*
X65996429Y-36615714D01*
X66139286Y-36544286D01*
X66282143Y-36544286D01*
X66425000Y-36615714D01*
X66496429Y-36687143D01*
X66567857Y-36830000D01*
X66567857Y-37330000D01*
X65853571Y-35830000D02*
X67067857Y-35830000D01*
X67210714Y-35758572D01*
X67282143Y-35687143D01*
X67353571Y-35544286D01*
X67353571Y-35258572D01*
X67282143Y-35115714D01*
X67210714Y-35044286D01*
X67067857Y-34972857D01*
X65853571Y-34972857D01*
X65925000Y-33472857D02*
X65853571Y-33615714D01*
X65853571Y-33830000D01*
X65925000Y-34044285D01*
X66067857Y-34187143D01*
X66210714Y-34258571D01*
X66496429Y-34330000D01*
X66710714Y-34330000D01*
X66996429Y-34258571D01*
X67139286Y-34187143D01*
X67282143Y-34044285D01*
X67353571Y-33830000D01*
X67353571Y-33687143D01*
X67282143Y-33472857D01*
X67210714Y-33401428D01*
X66710714Y-33401428D01*
X66710714Y-33687143D01*
X67353571Y-10890000D02*
X65853571Y-10890000D01*
X65853571Y-10318572D01*
X65925000Y-10175714D01*
X65996429Y-10104286D01*
X66139286Y-10032857D01*
X66353571Y-10032857D01*
X66496429Y-10104286D01*
X66567857Y-10175714D01*
X66639286Y-10318572D01*
X66639286Y-10890000D01*
X65853571Y-9532857D02*
X67353571Y-9175714D01*
X66282143Y-8890000D01*
X67353571Y-8604286D01*
X65853571Y-8247143D01*
X67353571Y-6818571D02*
X66639286Y-7318571D01*
X67353571Y-7675714D02*
X65853571Y-7675714D01*
X65853571Y-7104286D01*
X65925000Y-6961428D01*
X65996429Y-6890000D01*
X66139286Y-6818571D01*
X66353571Y-6818571D01*
X66496429Y-6890000D01*
X66567857Y-6961428D01*
X66639286Y-7104286D01*
X66639286Y-7675714D01*
D12*
X22050000Y-17675000D02*
X22050000Y-14075000D01*
X18590000Y-14075000D02*
X18590000Y-17675000D01*
X32490000Y-15700000D02*
X36090000Y-15700000D01*
X36090000Y-12240000D02*
X32490000Y-12240000D01*
X36090000Y-27480000D02*
X32490000Y-27480000D01*
X32490000Y-30940000D02*
X36090000Y-30940000D01*
X40180000Y-36300000D02*
X40180000Y-39900000D01*
X43640000Y-39900000D02*
X43640000Y-36300000D01*
X18590000Y-25505000D02*
X18590000Y-29105000D01*
X22050000Y-29105000D02*
X22050000Y-25505000D01*
X40180000Y-19790000D02*
X40180000Y-23390000D01*
X43640000Y-23390000D02*
X43640000Y-19790000D01*
X48010000Y-9910000D02*
X48010000Y-10310000D01*
X43430000Y-9140000D02*
X43430000Y-10310000D01*
X43430000Y-13720000D02*
X43430000Y-12550000D01*
X48010000Y-12950000D02*
X48010000Y-12550000D01*
X47240000Y-9140000D02*
X43430000Y-9140000D01*
X47240000Y-9140000D02*
X48010000Y-9910000D01*
X47240000Y-13720000D02*
X43430000Y-13720000D01*
X47240000Y-13720000D02*
X48010000Y-12950000D01*
X48010000Y-3560000D02*
X48010000Y-3960000D01*
X43430000Y-2790000D02*
X43430000Y-3960000D01*
X43430000Y-7370000D02*
X43430000Y-6200000D01*
X48010000Y-6600000D02*
X48010000Y-6200000D01*
X47240000Y-2790000D02*
X43430000Y-2790000D01*
X47240000Y-2790000D02*
X48010000Y-3560000D01*
X47240000Y-7370000D02*
X43430000Y-7370000D01*
X47240000Y-7370000D02*
X48010000Y-6600000D01*
X56410000Y-10970000D02*
X52810000Y-10970000D01*
X52810000Y-14430000D02*
X56410000Y-14430000D01*
X62650000Y-11390000D02*
X64350000Y-11390000D01*
X64350000Y-11340000D02*
X64350000Y-7290000D01*
X62650000Y-11340000D02*
X62650000Y-7290000D01*
X62650000Y-39330000D02*
X64350000Y-39330000D01*
X64350000Y-39280000D02*
X64350000Y-35230000D01*
X62650000Y-39280000D02*
X62650000Y-35230000D01*
X50165000Y-37585000D02*
X55365000Y-37585000D01*
X55365000Y-37585000D02*
X55365000Y-34805000D01*
X55365000Y-34805000D02*
X50165000Y-34805000D01*
X50165000Y-34805000D02*
X50165000Y-37585000D01*
X48895000Y-37585000D02*
X47505000Y-37585000D01*
X47505000Y-37585000D02*
X47505000Y-36195000D01*
X22860000Y-34805000D02*
X20200000Y-34805000D01*
X20200000Y-34805000D02*
X20200000Y-37585000D01*
X20200000Y-37585000D02*
X22860000Y-37585000D01*
X22860000Y-37585000D02*
X22860000Y-34805000D01*
X24130000Y-34805000D02*
X25520000Y-34805000D01*
X25520000Y-34805000D02*
X25520000Y-36195000D01*
X60960000Y-28600000D02*
X69600000Y-28600000D01*
X52580000Y-28600000D02*
X57660000Y-28600000D01*
X60960000Y-16400000D02*
X69600000Y-16400000D01*
X52580000Y-16400000D02*
X57660000Y-16400000D01*
X69600000Y-16400000D02*
X69600000Y-28600000D01*
X52580000Y-28600000D02*
X52580000Y-16400000D01*
D13*
X-6096000Y-30666100D02*
X0Y-30666100D01*
X-6096000Y-30666100D02*
X-6096000Y-14333900D01*
X-6096000Y-14333900D02*
X0Y-14333900D01*
X0Y-37905100D02*
X0Y-7094900D01*
X0Y-7094900D02*
X16002000Y-7094900D01*
X16002000Y-7094900D02*
X16002000Y-37905100D01*
X0Y-37905100D02*
X16002000Y-37905100D01*
D12*
X38735000Y-8135000D02*
X28455000Y-8135000D01*
X28455000Y-8135000D02*
X28455000Y-10915000D01*
X28455000Y-10915000D02*
X38735000Y-10915000D01*
X38735000Y-10915000D02*
X38735000Y-8135000D01*
X40005000Y-8135000D02*
X41395000Y-8135000D01*
X41395000Y-8135000D02*
X41395000Y-9525000D01*
X64500000Y-5290000D02*
X62500000Y-5290000D01*
X62500000Y-2330000D02*
X64500000Y-2330000D01*
X64500000Y-43390000D02*
X62500000Y-43390000D01*
X62500000Y-40430000D02*
X64500000Y-40430000D01*
X23860000Y-9735000D02*
X21860000Y-9735000D01*
X21860000Y-6775000D02*
X23860000Y-6775000D01*
D14*
X32115000Y-39790000D02*
X36615000Y-39790000D01*
X30865000Y-35790000D02*
X30865000Y-37290000D01*
X36615000Y-33290000D02*
X32115000Y-33290000D01*
X37865000Y-37290000D02*
X37865000Y-35790000D01*
D12*
X56520000Y-9760000D02*
X56520000Y-8500000D01*
X56520000Y-2940000D02*
X56520000Y-4200000D01*
X52760000Y-9760000D02*
X56520000Y-9760000D01*
X50510000Y-2940000D02*
X56520000Y-2940000D01*
D14*
X30665000Y-17965000D02*
X30665000Y-18415000D01*
X37915000Y-17965000D02*
X37915000Y-18490000D01*
X37915000Y-25215000D02*
X37915000Y-24690000D01*
X30665000Y-25215000D02*
X30665000Y-24690000D01*
X30665000Y-17965000D02*
X31190000Y-17965000D01*
X30665000Y-25215000D02*
X31190000Y-25215000D01*
X37915000Y-25215000D02*
X37390000Y-25215000D01*
X37915000Y-17965000D02*
X37390000Y-17965000D01*
X30665000Y-18415000D02*
X29290000Y-18415000D01*
D12*
X27950000Y-27490000D02*
X27950000Y-11515000D01*
X27950000Y-11515000D02*
X22850000Y-11515000D01*
X22850000Y-11515000D02*
X22850000Y-27490000D01*
D14*
X18137143Y-16041666D02*
X18184762Y-16089285D01*
X18232381Y-16232142D01*
X18232381Y-16327380D01*
X18184762Y-16470238D01*
X18089524Y-16565476D01*
X17994286Y-16613095D01*
X17803810Y-16660714D01*
X17660952Y-16660714D01*
X17470476Y-16613095D01*
X17375238Y-16565476D01*
X17280000Y-16470238D01*
X17232381Y-16327380D01*
X17232381Y-16232142D01*
X17280000Y-16089285D01*
X17327619Y-16041666D01*
X18232381Y-15089285D02*
X18232381Y-15660714D01*
X18232381Y-15375000D02*
X17232381Y-15375000D01*
X17375238Y-15470238D01*
X17470476Y-15565476D01*
X17518095Y-15660714D01*
X39727143Y-14136666D02*
X39774762Y-14184285D01*
X39822381Y-14327142D01*
X39822381Y-14422380D01*
X39774762Y-14565238D01*
X39679524Y-14660476D01*
X39584286Y-14708095D01*
X39393810Y-14755714D01*
X39250952Y-14755714D01*
X39060476Y-14708095D01*
X38965238Y-14660476D01*
X38870000Y-14565238D01*
X38822381Y-14422380D01*
X38822381Y-14327142D01*
X38870000Y-14184285D01*
X38917619Y-14136666D01*
X38917619Y-13755714D02*
X38870000Y-13708095D01*
X38822381Y-13612857D01*
X38822381Y-13374761D01*
X38870000Y-13279523D01*
X38917619Y-13231904D01*
X39012857Y-13184285D01*
X39108095Y-13184285D01*
X39250952Y-13231904D01*
X39822381Y-13803333D01*
X39822381Y-13184285D01*
X39727143Y-29376666D02*
X39774762Y-29424285D01*
X39822381Y-29567142D01*
X39822381Y-29662380D01*
X39774762Y-29805238D01*
X39679524Y-29900476D01*
X39584286Y-29948095D01*
X39393810Y-29995714D01*
X39250952Y-29995714D01*
X39060476Y-29948095D01*
X38965238Y-29900476D01*
X38870000Y-29805238D01*
X38822381Y-29662380D01*
X38822381Y-29567142D01*
X38870000Y-29424285D01*
X38917619Y-29376666D01*
X38822381Y-29043333D02*
X38822381Y-28424285D01*
X39203333Y-28757619D01*
X39203333Y-28614761D01*
X39250952Y-28519523D01*
X39298571Y-28471904D01*
X39393810Y-28424285D01*
X39631905Y-28424285D01*
X39727143Y-28471904D01*
X39774762Y-28519523D01*
X39822381Y-28614761D01*
X39822381Y-28900476D01*
X39774762Y-28995714D01*
X39727143Y-29043333D01*
X44807143Y-38266666D02*
X44854762Y-38314285D01*
X44902381Y-38457142D01*
X44902381Y-38552380D01*
X44854762Y-38695238D01*
X44759524Y-38790476D01*
X44664286Y-38838095D01*
X44473810Y-38885714D01*
X44330952Y-38885714D01*
X44140476Y-38838095D01*
X44045238Y-38790476D01*
X43950000Y-38695238D01*
X43902381Y-38552380D01*
X43902381Y-38457142D01*
X43950000Y-38314285D01*
X43997619Y-38266666D01*
X44235714Y-37409523D02*
X44902381Y-37409523D01*
X43854762Y-37647619D02*
X44569048Y-37885714D01*
X44569048Y-37266666D01*
X17927143Y-27471666D02*
X17974762Y-27519285D01*
X18022381Y-27662142D01*
X18022381Y-27757380D01*
X17974762Y-27900238D01*
X17879524Y-27995476D01*
X17784286Y-28043095D01*
X17593810Y-28090714D01*
X17450952Y-28090714D01*
X17260476Y-28043095D01*
X17165238Y-27995476D01*
X17070000Y-27900238D01*
X17022381Y-27757380D01*
X17022381Y-27662142D01*
X17070000Y-27519285D01*
X17117619Y-27471666D01*
X17022381Y-26566904D02*
X17022381Y-27043095D01*
X17498571Y-27090714D01*
X17450952Y-27043095D01*
X17403333Y-26947857D01*
X17403333Y-26709761D01*
X17450952Y-26614523D01*
X17498571Y-26566904D01*
X17593810Y-26519285D01*
X17831905Y-26519285D01*
X17927143Y-26566904D01*
X17974762Y-26614523D01*
X18022381Y-26709761D01*
X18022381Y-26947857D01*
X17974762Y-27043095D01*
X17927143Y-27090714D01*
X44807143Y-21756666D02*
X44854762Y-21804285D01*
X44902381Y-21947142D01*
X44902381Y-22042380D01*
X44854762Y-22185238D01*
X44759524Y-22280476D01*
X44664286Y-22328095D01*
X44473810Y-22375714D01*
X44330952Y-22375714D01*
X44140476Y-22328095D01*
X44045238Y-22280476D01*
X43950000Y-22185238D01*
X43902381Y-22042380D01*
X43902381Y-21947142D01*
X43950000Y-21804285D01*
X43997619Y-21756666D01*
X43902381Y-20899523D02*
X43902381Y-21090000D01*
X43950000Y-21185238D01*
X43997619Y-21232857D01*
X44140476Y-21328095D01*
X44330952Y-21375714D01*
X44711905Y-21375714D01*
X44807143Y-21328095D01*
X44854762Y-21280476D01*
X44902381Y-21185238D01*
X44902381Y-20994761D01*
X44854762Y-20899523D01*
X44807143Y-20851904D01*
X44711905Y-20804285D01*
X44473810Y-20804285D01*
X44378571Y-20851904D01*
X44330952Y-20899523D01*
X44283333Y-20994761D01*
X44283333Y-21185238D01*
X44330952Y-21280476D01*
X44378571Y-21328095D01*
X44473810Y-21375714D01*
X45553334Y-15597143D02*
X45505715Y-15644762D01*
X45362858Y-15692381D01*
X45267620Y-15692381D01*
X45124762Y-15644762D01*
X45029524Y-15549524D01*
X44981905Y-15454286D01*
X44934286Y-15263810D01*
X44934286Y-15120952D01*
X44981905Y-14930476D01*
X45029524Y-14835238D01*
X45124762Y-14740000D01*
X45267620Y-14692381D01*
X45362858Y-14692381D01*
X45505715Y-14740000D01*
X45553334Y-14787619D01*
X46124762Y-15120952D02*
X46029524Y-15073333D01*
X45981905Y-15025714D01*
X45934286Y-14930476D01*
X45934286Y-14882857D01*
X45981905Y-14787619D01*
X46029524Y-14740000D01*
X46124762Y-14692381D01*
X46315239Y-14692381D01*
X46410477Y-14740000D01*
X46458096Y-14787619D01*
X46505715Y-14882857D01*
X46505715Y-14930476D01*
X46458096Y-15025714D01*
X46410477Y-15073333D01*
X46315239Y-15120952D01*
X46124762Y-15120952D01*
X46029524Y-15168571D01*
X45981905Y-15216190D01*
X45934286Y-15311429D01*
X45934286Y-15501905D01*
X45981905Y-15597143D01*
X46029524Y-15644762D01*
X46124762Y-15692381D01*
X46315239Y-15692381D01*
X46410477Y-15644762D01*
X46458096Y-15597143D01*
X46505715Y-15501905D01*
X46505715Y-15311429D01*
X46458096Y-15216190D01*
X46410477Y-15168571D01*
X46315239Y-15120952D01*
X48119048Y-9491429D02*
X48880953Y-9491429D01*
X48500001Y-9872381D02*
X48500001Y-9110476D01*
X45077143Y-1897143D02*
X45029524Y-1944762D01*
X44886667Y-1992381D01*
X44791429Y-1992381D01*
X44648571Y-1944762D01*
X44553333Y-1849524D01*
X44505714Y-1754286D01*
X44458095Y-1563810D01*
X44458095Y-1420952D01*
X44505714Y-1230476D01*
X44553333Y-1135238D01*
X44648571Y-1040000D01*
X44791429Y-992381D01*
X44886667Y-992381D01*
X45029524Y-1040000D01*
X45077143Y-1087619D01*
X46029524Y-1992381D02*
X45458095Y-1992381D01*
X45743809Y-1992381D02*
X45743809Y-992381D01*
X45648571Y-1135238D01*
X45553333Y-1230476D01*
X45458095Y-1278095D01*
X46981905Y-1992381D02*
X46410476Y-1992381D01*
X46696190Y-1992381D02*
X46696190Y-992381D01*
X46600952Y-1135238D01*
X46505714Y-1230476D01*
X46410476Y-1278095D01*
X48119048Y-3141429D02*
X48880953Y-3141429D01*
X48500001Y-3522381D02*
X48500001Y-2760476D01*
X60047143Y-13342857D02*
X60094762Y-13390476D01*
X60142381Y-13533333D01*
X60142381Y-13628571D01*
X60094762Y-13771429D01*
X59999524Y-13866667D01*
X59904286Y-13914286D01*
X59713810Y-13961905D01*
X59570952Y-13961905D01*
X59380476Y-13914286D01*
X59285238Y-13866667D01*
X59190000Y-13771429D01*
X59142381Y-13628571D01*
X59142381Y-13533333D01*
X59190000Y-13390476D01*
X59237619Y-13342857D01*
X60142381Y-12390476D02*
X60142381Y-12961905D01*
X60142381Y-12676191D02*
X59142381Y-12676191D01*
X59285238Y-12771429D01*
X59380476Y-12866667D01*
X59428095Y-12961905D01*
X59237619Y-12009524D02*
X59190000Y-11961905D01*
X59142381Y-11866667D01*
X59142381Y-11628571D01*
X59190000Y-11533333D01*
X59237619Y-11485714D01*
X59332857Y-11438095D01*
X59428095Y-11438095D01*
X59570952Y-11485714D01*
X60142381Y-12057143D01*
X60142381Y-11438095D01*
X62352381Y-9628095D02*
X61352381Y-9628095D01*
X61352381Y-9390000D01*
X61400000Y-9247142D01*
X61495238Y-9151904D01*
X61590476Y-9104285D01*
X61780952Y-9056666D01*
X61923810Y-9056666D01*
X62114286Y-9104285D01*
X62209524Y-9151904D01*
X62304762Y-9247142D01*
X62352381Y-9390000D01*
X62352381Y-9628095D01*
X62352381Y-8104285D02*
X62352381Y-8675714D01*
X62352381Y-8390000D02*
X61352381Y-8390000D01*
X61495238Y-8485238D01*
X61590476Y-8580476D01*
X61638095Y-8675714D01*
X62352381Y-37568095D02*
X61352381Y-37568095D01*
X61352381Y-37330000D01*
X61400000Y-37187142D01*
X61495238Y-37091904D01*
X61590476Y-37044285D01*
X61780952Y-36996666D01*
X61923810Y-36996666D01*
X62114286Y-37044285D01*
X62209524Y-37091904D01*
X62304762Y-37187142D01*
X62352381Y-37330000D01*
X62352381Y-37568095D01*
X61447619Y-36615714D02*
X61400000Y-36568095D01*
X61352381Y-36472857D01*
X61352381Y-36234761D01*
X61400000Y-36139523D01*
X61447619Y-36091904D01*
X61542857Y-36044285D01*
X61638095Y-36044285D01*
X61780952Y-36091904D01*
X62352381Y-36663333D01*
X62352381Y-36044285D01*
X45957381Y-36528333D02*
X46671667Y-36528333D01*
X46814524Y-36575953D01*
X46909762Y-36671191D01*
X46957381Y-36814048D01*
X46957381Y-36909286D01*
X46957381Y-35528333D02*
X46957381Y-36099762D01*
X46957381Y-35814048D02*
X45957381Y-35814048D01*
X46100238Y-35909286D01*
X46195476Y-36004524D01*
X46243095Y-36099762D01*
X25972381Y-36528333D02*
X26686667Y-36528333D01*
X26829524Y-36575953D01*
X26924762Y-36671191D01*
X26972381Y-36814048D01*
X26972381Y-36909286D01*
X26305714Y-35623571D02*
X26972381Y-35623571D01*
X25924762Y-35861667D02*
X26639048Y-36099762D01*
X26639048Y-35480714D01*
X58721667Y-30567381D02*
X58721667Y-31281667D01*
X58674047Y-31424524D01*
X58578809Y-31519762D01*
X58435952Y-31567381D01*
X58340714Y-31567381D01*
X59674048Y-30567381D02*
X59197857Y-30567381D01*
X59150238Y-31043571D01*
X59197857Y-30995952D01*
X59293095Y-30948333D01*
X59531191Y-30948333D01*
X59626429Y-30995952D01*
X59674048Y-31043571D01*
X59721667Y-31138810D01*
X59721667Y-31376905D01*
X59674048Y-31472143D01*
X59626429Y-31519762D01*
X59531191Y-31567381D01*
X59293095Y-31567381D01*
X59197857Y-31519762D01*
X59150238Y-31472143D01*
X41847381Y-9858333D02*
X42561667Y-9858333D01*
X42704524Y-9905953D01*
X42799762Y-10001191D01*
X42847381Y-10144048D01*
X42847381Y-10239286D01*
X41847381Y-9477381D02*
X41847381Y-8810714D01*
X42847381Y-9239286D01*
X63333334Y-1962381D02*
X63000000Y-1486190D01*
X62761905Y-1962381D02*
X62761905Y-962381D01*
X63142858Y-962381D01*
X63238096Y-1010000D01*
X63285715Y-1057619D01*
X63333334Y-1152857D01*
X63333334Y-1295714D01*
X63285715Y-1390952D01*
X63238096Y-1438571D01*
X63142858Y-1486190D01*
X62761905Y-1486190D01*
X64285715Y-1962381D02*
X63714286Y-1962381D01*
X64000000Y-1962381D02*
X64000000Y-962381D01*
X63904762Y-1105238D01*
X63809524Y-1200476D01*
X63714286Y-1248095D01*
X60142381Y-42076666D02*
X59666190Y-42410000D01*
X60142381Y-42648095D02*
X59142381Y-42648095D01*
X59142381Y-42267142D01*
X59190000Y-42171904D01*
X59237619Y-42124285D01*
X59332857Y-42076666D01*
X59475714Y-42076666D01*
X59570952Y-42124285D01*
X59618571Y-42171904D01*
X59666190Y-42267142D01*
X59666190Y-42648095D01*
X59237619Y-41695714D02*
X59190000Y-41648095D01*
X59142381Y-41552857D01*
X59142381Y-41314761D01*
X59190000Y-41219523D01*
X59237619Y-41171904D01*
X59332857Y-41124285D01*
X59428095Y-41124285D01*
X59570952Y-41171904D01*
X60142381Y-41743333D01*
X60142381Y-41124285D01*
X22693334Y-6407381D02*
X22360000Y-5931190D01*
X22121905Y-6407381D02*
X22121905Y-5407381D01*
X22502858Y-5407381D01*
X22598096Y-5455000D01*
X22645715Y-5502619D01*
X22693334Y-5597857D01*
X22693334Y-5740714D01*
X22645715Y-5835952D01*
X22598096Y-5883571D01*
X22502858Y-5931190D01*
X22121905Y-5931190D01*
X23026667Y-5407381D02*
X23645715Y-5407381D01*
X23312381Y-5788333D01*
X23455239Y-5788333D01*
X23550477Y-5835952D01*
X23598096Y-5883571D01*
X23645715Y-5978810D01*
X23645715Y-6216905D01*
X23598096Y-6312143D01*
X23550477Y-6359762D01*
X23455239Y-6407381D01*
X23169524Y-6407381D01*
X23074286Y-6359762D01*
X23026667Y-6312143D01*
X33031667Y-32694762D02*
X33174524Y-32742381D01*
X33412620Y-32742381D01*
X33507858Y-32694762D01*
X33555477Y-32647143D01*
X33603096Y-32551905D01*
X33603096Y-32456667D01*
X33555477Y-32361429D01*
X33507858Y-32313810D01*
X33412620Y-32266190D01*
X33222143Y-32218571D01*
X33126905Y-32170952D01*
X33079286Y-32123333D01*
X33031667Y-32028095D01*
X33031667Y-31932857D01*
X33079286Y-31837619D01*
X33126905Y-31790000D01*
X33222143Y-31742381D01*
X33460239Y-31742381D01*
X33603096Y-31790000D01*
X33936429Y-31742381D02*
X34174524Y-32742381D01*
X34365001Y-32028095D01*
X34555477Y-32742381D01*
X34793572Y-31742381D01*
X35698334Y-32742381D02*
X35126905Y-32742381D01*
X35412619Y-32742381D02*
X35412619Y-31742381D01*
X35317381Y-31885238D01*
X35222143Y-31980476D01*
X35126905Y-32028095D01*
X53848095Y-1302381D02*
X53848095Y-2111905D01*
X53895714Y-2207143D01*
X53943333Y-2254762D01*
X54038571Y-2302381D01*
X54229048Y-2302381D01*
X54324286Y-2254762D01*
X54371905Y-2207143D01*
X54419524Y-2111905D01*
X54419524Y-1302381D01*
X55419524Y-2302381D02*
X54848095Y-2302381D01*
X55133809Y-2302381D02*
X55133809Y-1302381D01*
X55038571Y-1445238D01*
X54943333Y-1540476D01*
X54848095Y-1588095D01*
X28027381Y-22351905D02*
X28836905Y-22351905D01*
X28932143Y-22304286D01*
X28979762Y-22256667D01*
X29027381Y-22161429D01*
X29027381Y-21970952D01*
X28979762Y-21875714D01*
X28932143Y-21828095D01*
X28836905Y-21780476D01*
X28027381Y-21780476D01*
X28122619Y-21351905D02*
X28075000Y-21304286D01*
X28027381Y-21209048D01*
X28027381Y-20970952D01*
X28075000Y-20875714D01*
X28122619Y-20828095D01*
X28217857Y-20780476D01*
X28313095Y-20780476D01*
X28455952Y-20828095D01*
X29027381Y-21399524D01*
X29027381Y-20780476D01*
X21566190Y-22066191D02*
X22042381Y-22066191D01*
X21042381Y-22399524D02*
X21566190Y-22066191D01*
X21042381Y-21732857D01*
X22042381Y-20875714D02*
X22042381Y-21447143D01*
X22042381Y-21161429D02*
X21042381Y-21161429D01*
X21185238Y-21256667D01*
X21280476Y-21351905D01*
X21328095Y-21447143D01*
M02*
