%FSLAX45Y45*%
G04 Gerber Fmt 4.5, Leading zero omitted, Abs format (unit mm)*
G04 Created by KiCad (PCBNEW 4.0.6+dfsg1-1) date Wed Jan 10 10:56:11 2018*
%MOMM*%
%LPD*%
G01*
G04 APERTURE LIST*
%ADD10C,0.127000*%
%ADD11C,0.150000*%
%ADD12C,0.200000*%
%ADD13C,0.300000*%
G04 APERTURE END LIST*
D10*
D11*
X6500000Y-4500000D02*
G75*
G03X7000000Y-4000000I0J500000D01*
G01*
X7000000Y-500000D02*
G75*
G03X6500000Y0I-500000J0D01*
G01*
X0Y-4000000D02*
G75*
G03X500000Y-4500000I500000J0D01*
G01*
X500000Y0D02*
G75*
G03X0Y-500000I0J-500000D01*
G01*
X500000Y-4500000D02*
X6500000Y-4500000D01*
X7000000Y-500000D02*
X7000000Y-4000000D01*
X0Y-500000D02*
X0Y-4000000D01*
X500000Y0D02*
X6500000Y0D01*
D12*
X2265700Y-858650D02*
X2305700Y-898650D01*
X2305700Y-858650D02*
X2265700Y-898650D01*
X2931770Y-2510830D02*
X2971770Y-2550830D01*
X2971770Y-2510830D02*
X2931770Y-2550830D01*
X3100610Y-2164000D02*
X3140610Y-2204000D01*
X3140610Y-2164000D02*
X3100610Y-2204000D01*
X3138440Y-1890630D02*
X3178440Y-1930630D01*
X3178440Y-1890630D02*
X3138440Y-1930630D01*
X3155310Y-2317450D02*
X3195310Y-2357450D01*
X3195310Y-2317450D02*
X3155310Y-2357450D01*
X3234950Y-2413720D02*
X3274950Y-2453720D01*
X3274950Y-2413720D02*
X3234950Y-2453720D01*
X3243100Y-1819860D02*
X3283100Y-1859860D01*
X3283100Y-1819860D02*
X3243100Y-1859860D01*
X3274370Y-1588330D02*
X3314370Y-1628330D01*
X3314370Y-1588330D02*
X3274370Y-1628330D01*
X3338060Y-1828090D02*
X3378060Y-1868090D01*
X3378060Y-1828090D02*
X3338060Y-1868090D01*
X3473030Y-1823560D02*
X3513030Y-1863560D01*
X3513030Y-1823560D02*
X3473030Y-1863560D01*
X3549300Y-1583000D02*
X3589300Y-1623000D01*
X3589300Y-1583000D02*
X3549300Y-1623000D01*
X3665390Y-1821930D02*
X3705390Y-1861930D01*
X3705390Y-1821930D02*
X3665390Y-1861930D01*
X3698930Y-1588010D02*
X3738930Y-1628010D01*
X3738930Y-1588010D02*
X3698930Y-1628010D01*
X3726330Y-1984320D02*
X3766330Y-2024320D01*
X3766330Y-1984320D02*
X3726330Y-2024320D01*
X4289720Y-714920D02*
X4329720Y-754920D01*
X4329720Y-714920D02*
X4289720Y-754920D01*
X6164260Y-3992490D02*
X6204260Y-4032490D01*
X6204260Y-3992490D02*
X6164260Y-4032490D01*
X5501500Y-2123000D02*
G75*
G03X5501500Y-2123000I-40500J0D01*
G01*
X5501500Y-2377000D02*
G75*
G03X5501500Y-2377000I-40500J0D01*
G01*
X5701500Y-2123000D02*
G75*
G03X5701500Y-2123000I-40500J0D01*
G01*
X5701500Y-2377000D02*
G75*
G03X5701500Y-2377000I-40500J0D01*
G01*
X2159000Y-3569500D02*
X2159000Y-3669500D01*
X2109000Y-3619500D02*
X2209000Y-3619500D01*
X2413000Y-3569500D02*
X2413000Y-3669500D01*
X2363000Y-3619500D02*
X2463000Y-3619500D01*
X2984500Y-902500D02*
X2984500Y-1002500D01*
X2934500Y-952500D02*
X3034500Y-952500D01*
X3238500Y-902500D02*
X3238500Y-1002500D01*
X3188500Y-952500D02*
X3288500Y-952500D01*
X3492500Y-902500D02*
X3492500Y-1002500D01*
X3442500Y-952500D02*
X3542500Y-952500D01*
X3746500Y-902500D02*
X3746500Y-1002500D01*
X3696500Y-952500D02*
X3796500Y-952500D01*
X4000500Y-902500D02*
X4000500Y-1002500D01*
X3950500Y-952500D02*
X4050500Y-952500D01*
X4889500Y-3569500D02*
X4889500Y-3669500D01*
X4839500Y-3619500D02*
X4939500Y-3619500D01*
X5143500Y-3569500D02*
X5143500Y-3669500D01*
X5093500Y-3619500D02*
X5193500Y-3619500D01*
X5397500Y-3569500D02*
X5397500Y-3669500D01*
X5347500Y-3619500D02*
X5447500Y-3619500D01*
X3150391Y-3467891D02*
X3150391Y-3390109D01*
X3072609Y-3390109D01*
X3072609Y-3467891D01*
X3150391Y-3467891D01*
X3150391Y-3917891D02*
X3150391Y-3840109D01*
X3072609Y-3840109D01*
X3072609Y-3917891D01*
X3150391Y-3917891D01*
X3800391Y-3467891D02*
X3800391Y-3390109D01*
X3722609Y-3390109D01*
X3722609Y-3467891D01*
X3800391Y-3467891D01*
X3800391Y-3917891D02*
X3800391Y-3840109D01*
X3722609Y-3840109D01*
X3722609Y-3917891D01*
X3800391Y-3917891D01*
X889000Y-1826563D02*
X948563Y-1767000D01*
X889000Y-1707437D01*
X829437Y-1767000D01*
X889000Y-1826563D01*
X889000Y-2055563D02*
X948563Y-1996000D01*
X889000Y-1936437D01*
X829437Y-1996000D01*
X889000Y-2055563D01*
X889000Y-2284563D02*
X948563Y-2225000D01*
X889000Y-2165437D01*
X829437Y-2225000D01*
X889000Y-2284563D01*
X889000Y-2513563D02*
X948563Y-2454000D01*
X889000Y-2394437D01*
X829437Y-2454000D01*
X889000Y-2513563D01*
X889000Y-2742563D02*
X948563Y-2683000D01*
X889000Y-2623437D01*
X829437Y-2683000D01*
X889000Y-2742563D01*
X1143000Y-1941063D02*
X1202563Y-1881500D01*
X1143000Y-1821937D01*
X1083437Y-1881500D01*
X1143000Y-1941063D01*
X1143000Y-2170063D02*
X1202563Y-2110500D01*
X1143000Y-2050937D01*
X1083437Y-2110500D01*
X1143000Y-2170063D01*
X1143000Y-2399063D02*
X1202563Y-2339500D01*
X1143000Y-2279937D01*
X1083437Y-2339500D01*
X1143000Y-2399063D01*
X1143000Y-2628063D02*
X1202563Y-2568500D01*
X1143000Y-2508937D01*
X1083437Y-2568500D01*
X1143000Y-2628063D01*
X1397000Y-1826563D02*
X1456563Y-1767000D01*
X1397000Y-1707437D01*
X1337437Y-1767000D01*
X1397000Y-1826563D01*
X1397000Y-2055563D02*
X1456563Y-1996000D01*
X1397000Y-1936437D01*
X1337437Y-1996000D01*
X1397000Y-2055563D01*
X1397000Y-2284563D02*
X1456563Y-2225000D01*
X1397000Y-2165437D01*
X1337437Y-2225000D01*
X1397000Y-2284563D01*
X1397000Y-2513563D02*
X1456563Y-2454000D01*
X1397000Y-2394437D01*
X1337437Y-2454000D01*
X1397000Y-2513563D01*
X1397000Y-2742563D02*
X1456563Y-2683000D01*
X1397000Y-2623437D01*
X1337437Y-2683000D01*
X1397000Y-2742563D01*
X1083000Y-2737500D02*
X1203000Y-2857500D01*
X1203000Y-2737500D02*
X1083000Y-2857500D01*
X1203000Y-2797500D02*
G75*
G03X1203000Y-2797500I-60000J0D01*
G01*
X5816000Y-1535000D02*
X6046000Y-1765000D01*
X6046000Y-1535000D02*
X5816000Y-1765000D01*
X5931000Y-1535000D02*
X5931000Y-1765000D01*
X5816000Y-1650000D02*
X6046000Y-1650000D01*
X5816000Y-2735000D02*
X6046000Y-2965000D01*
X6046000Y-2735000D02*
X5816000Y-2965000D01*
X5931000Y-2735000D02*
X5931000Y-2965000D01*
X5816000Y-2850000D02*
X6046000Y-2850000D01*
X982980Y-840046D02*
X1303020Y-1160086D01*
X1303020Y-840046D02*
X982980Y-1160086D01*
X1256152Y-1113218D02*
X1256152Y-886914D01*
X1029848Y-886914D01*
X1029848Y-1113218D01*
X1256152Y-1113218D01*
X982980Y-3339914D02*
X1303020Y-3659954D01*
X1303020Y-3339914D02*
X982980Y-3659954D01*
X1256152Y-3613086D02*
X1256152Y-3386782D01*
X1029848Y-3386782D01*
X1029848Y-3613086D01*
X1256152Y-3613086D01*
D13*
X263929Y-4973214D02*
X263929Y-4673214D01*
X335357Y-4673214D01*
X378214Y-4687500D01*
X406786Y-4716072D01*
X421071Y-4744643D01*
X435357Y-4801786D01*
X435357Y-4844643D01*
X421071Y-4901786D01*
X406786Y-4930357D01*
X378214Y-4958929D01*
X335357Y-4973214D01*
X263929Y-4973214D01*
X563929Y-4973214D02*
X563929Y-4773214D01*
X563929Y-4830357D02*
X578214Y-4801786D01*
X592500Y-4787500D01*
X621071Y-4773214D01*
X649643Y-4773214D01*
X749643Y-4973214D02*
X749643Y-4773214D01*
X749643Y-4673214D02*
X735357Y-4687500D01*
X749643Y-4701786D01*
X763928Y-4687500D01*
X749643Y-4673214D01*
X749643Y-4701786D01*
X935357Y-4973214D02*
X906786Y-4958929D01*
X892500Y-4930357D01*
X892500Y-4673214D01*
X1092500Y-4973214D02*
X1063929Y-4958929D01*
X1049643Y-4930357D01*
X1049643Y-4673214D01*
X1435357Y-4973214D02*
X1435357Y-4673214D01*
X1535357Y-4887500D01*
X1635357Y-4673214D01*
X1635357Y-4973214D01*
X1906786Y-4973214D02*
X1906786Y-4816072D01*
X1892500Y-4787500D01*
X1863928Y-4773214D01*
X1806786Y-4773214D01*
X1778214Y-4787500D01*
X1906786Y-4958929D02*
X1878214Y-4973214D01*
X1806786Y-4973214D01*
X1778214Y-4958929D01*
X1763928Y-4930357D01*
X1763928Y-4901786D01*
X1778214Y-4873214D01*
X1806786Y-4858929D01*
X1878214Y-4858929D01*
X1906786Y-4844643D01*
X2049643Y-4773214D02*
X2049643Y-5073214D01*
X2049643Y-4787500D02*
X2078214Y-4773214D01*
X2135357Y-4773214D01*
X2163929Y-4787500D01*
X2178214Y-4801786D01*
X2192500Y-4830357D01*
X2192500Y-4916072D01*
X2178214Y-4944643D01*
X2163929Y-4958929D01*
X2135357Y-4973214D01*
X2078214Y-4973214D01*
X2049643Y-4958929D01*
X2321071Y-4944643D02*
X2335357Y-4958929D01*
X2321071Y-4973214D01*
X2306786Y-4958929D01*
X2321071Y-4944643D01*
X2321071Y-4973214D01*
X2321071Y-4787500D02*
X2335357Y-4801786D01*
X2321071Y-4816072D01*
X2306786Y-4801786D01*
X2321071Y-4787500D01*
X2321071Y-4816072D01*
X-47500Y-5447500D02*
X-7500Y-5487500D01*
X-7500Y-5447500D02*
X-47500Y-5487500D01*
X321071Y-5303214D02*
X349643Y-5303214D01*
X378214Y-5317500D01*
X392500Y-5331786D01*
X406786Y-5360357D01*
X421071Y-5417500D01*
X421071Y-5488929D01*
X406786Y-5546072D01*
X392500Y-5574643D01*
X378214Y-5588929D01*
X349643Y-5603214D01*
X321071Y-5603214D01*
X292500Y-5588929D01*
X278214Y-5574643D01*
X263929Y-5546072D01*
X249643Y-5488929D01*
X249643Y-5417500D01*
X263929Y-5360357D01*
X278214Y-5331786D01*
X292500Y-5317500D01*
X321071Y-5303214D01*
X549643Y-5574643D02*
X563929Y-5588929D01*
X549643Y-5603214D01*
X535357Y-5588929D01*
X549643Y-5574643D01*
X549643Y-5603214D01*
X821071Y-5403214D02*
X821071Y-5603214D01*
X749643Y-5288929D02*
X678214Y-5503214D01*
X863928Y-5503214D01*
X1035357Y-5303214D02*
X1063929Y-5303214D01*
X1092500Y-5317500D01*
X1106786Y-5331786D01*
X1121071Y-5360357D01*
X1135357Y-5417500D01*
X1135357Y-5488929D01*
X1121071Y-5546072D01*
X1106786Y-5574643D01*
X1092500Y-5588929D01*
X1063929Y-5603214D01*
X1035357Y-5603214D01*
X1006786Y-5588929D01*
X992500Y-5574643D01*
X978214Y-5546072D01*
X963928Y-5488929D01*
X963928Y-5417500D01*
X978214Y-5360357D01*
X992500Y-5331786D01*
X1006786Y-5317500D01*
X1035357Y-5303214D01*
X1263929Y-5603214D02*
X1263929Y-5403214D01*
X1263929Y-5431786D02*
X1278214Y-5417500D01*
X1306786Y-5403214D01*
X1349643Y-5403214D01*
X1378214Y-5417500D01*
X1392500Y-5446072D01*
X1392500Y-5603214D01*
X1392500Y-5446072D02*
X1406786Y-5417500D01*
X1435357Y-5403214D01*
X1478214Y-5403214D01*
X1506786Y-5417500D01*
X1521071Y-5446072D01*
X1521071Y-5603214D01*
X1663928Y-5603214D02*
X1663928Y-5403214D01*
X1663928Y-5431786D02*
X1678214Y-5417500D01*
X1706786Y-5403214D01*
X1749643Y-5403214D01*
X1778214Y-5417500D01*
X1792500Y-5446072D01*
X1792500Y-5603214D01*
X1792500Y-5446072D02*
X1806786Y-5417500D01*
X1835357Y-5403214D01*
X1878214Y-5403214D01*
X1906786Y-5417500D01*
X1921071Y-5446072D01*
X1921071Y-5603214D01*
X2506786Y-5288929D02*
X2249643Y-5674643D01*
X2892500Y-5303214D02*
X2921071Y-5303214D01*
X2949643Y-5317500D01*
X2963928Y-5331786D01*
X2978214Y-5360357D01*
X2992500Y-5417500D01*
X2992500Y-5488929D01*
X2978214Y-5546072D01*
X2963928Y-5574643D01*
X2949643Y-5588929D01*
X2921071Y-5603214D01*
X2892500Y-5603214D01*
X2863928Y-5588929D01*
X2849643Y-5574643D01*
X2835357Y-5546072D01*
X2821071Y-5488929D01*
X2821071Y-5417500D01*
X2835357Y-5360357D01*
X2849643Y-5331786D01*
X2863928Y-5317500D01*
X2892500Y-5303214D01*
X3121071Y-5574643D02*
X3135357Y-5588929D01*
X3121071Y-5603214D01*
X3106786Y-5588929D01*
X3121071Y-5574643D01*
X3121071Y-5603214D01*
X3321071Y-5303214D02*
X3349643Y-5303214D01*
X3378214Y-5317500D01*
X3392500Y-5331786D01*
X3406785Y-5360357D01*
X3421071Y-5417500D01*
X3421071Y-5488929D01*
X3406785Y-5546072D01*
X3392500Y-5574643D01*
X3378214Y-5588929D01*
X3349643Y-5603214D01*
X3321071Y-5603214D01*
X3292500Y-5588929D01*
X3278214Y-5574643D01*
X3263928Y-5546072D01*
X3249643Y-5488929D01*
X3249643Y-5417500D01*
X3263928Y-5360357D01*
X3278214Y-5331786D01*
X3292500Y-5317500D01*
X3321071Y-5303214D01*
X3706785Y-5603214D02*
X3535357Y-5603214D01*
X3621071Y-5603214D02*
X3621071Y-5303214D01*
X3592500Y-5346072D01*
X3563928Y-5374643D01*
X3535357Y-5388929D01*
X3963928Y-5303214D02*
X3906785Y-5303214D01*
X3878214Y-5317500D01*
X3863928Y-5331786D01*
X3835357Y-5374643D01*
X3821071Y-5431786D01*
X3821071Y-5546072D01*
X3835357Y-5574643D01*
X3849643Y-5588929D01*
X3878214Y-5603214D01*
X3935357Y-5603214D01*
X3963928Y-5588929D01*
X3978214Y-5574643D01*
X3992500Y-5546072D01*
X3992500Y-5474643D01*
X3978214Y-5446072D01*
X3963928Y-5431786D01*
X3935357Y-5417500D01*
X3878214Y-5417500D01*
X3849643Y-5431786D01*
X3835357Y-5446072D01*
X3821071Y-5474643D01*
X4106786Y-5303214D02*
X4106786Y-5360357D01*
X4221071Y-5303214D02*
X4221071Y-5360357D01*
X4663928Y-5717500D02*
X4649643Y-5703214D01*
X4621071Y-5660357D01*
X4606786Y-5631786D01*
X4592500Y-5588929D01*
X4578214Y-5517500D01*
X4578214Y-5460357D01*
X4592500Y-5388929D01*
X4606786Y-5346072D01*
X4621071Y-5317500D01*
X4649643Y-5274643D01*
X4663928Y-5260357D01*
X4935357Y-5603214D02*
X4763928Y-5603214D01*
X4849643Y-5603214D02*
X4849643Y-5303214D01*
X4821071Y-5346072D01*
X4792500Y-5374643D01*
X4763928Y-5388929D01*
X5192500Y-5303214D02*
X5135357Y-5303214D01*
X5106786Y-5317500D01*
X5092500Y-5331786D01*
X5063928Y-5374643D01*
X5049643Y-5431786D01*
X5049643Y-5546072D01*
X5063928Y-5574643D01*
X5078214Y-5588929D01*
X5106786Y-5603214D01*
X5163928Y-5603214D01*
X5192500Y-5588929D01*
X5206786Y-5574643D01*
X5221071Y-5546072D01*
X5221071Y-5474643D01*
X5206786Y-5446072D01*
X5192500Y-5431786D01*
X5163928Y-5417500D01*
X5106786Y-5417500D01*
X5078214Y-5431786D01*
X5063928Y-5446072D01*
X5049643Y-5474643D01*
X5578214Y-5603214D02*
X5578214Y-5303214D01*
X5706785Y-5603214D02*
X5706785Y-5446072D01*
X5692500Y-5417500D01*
X5663928Y-5403214D01*
X5621071Y-5403214D01*
X5592500Y-5417500D01*
X5578214Y-5431786D01*
X5892500Y-5603214D02*
X5863928Y-5588929D01*
X5849643Y-5574643D01*
X5835357Y-5546072D01*
X5835357Y-5460357D01*
X5849643Y-5431786D01*
X5863928Y-5417500D01*
X5892500Y-5403214D01*
X5935357Y-5403214D01*
X5963928Y-5417500D01*
X5978214Y-5431786D01*
X5992500Y-5460357D01*
X5992500Y-5546072D01*
X5978214Y-5574643D01*
X5963928Y-5588929D01*
X5935357Y-5603214D01*
X5892500Y-5603214D01*
X6163928Y-5603214D02*
X6135357Y-5588929D01*
X6121071Y-5560357D01*
X6121071Y-5303214D01*
X6392500Y-5588929D02*
X6363928Y-5603214D01*
X6306786Y-5603214D01*
X6278214Y-5588929D01*
X6263928Y-5560357D01*
X6263928Y-5446072D01*
X6278214Y-5417500D01*
X6306786Y-5403214D01*
X6363928Y-5403214D01*
X6392500Y-5417500D01*
X6406786Y-5446072D01*
X6406786Y-5474643D01*
X6263928Y-5503214D01*
X6521071Y-5588929D02*
X6549643Y-5603214D01*
X6606786Y-5603214D01*
X6635357Y-5588929D01*
X6649643Y-5560357D01*
X6649643Y-5546072D01*
X6635357Y-5517500D01*
X6606786Y-5503214D01*
X6563928Y-5503214D01*
X6535357Y-5488929D01*
X6521071Y-5460357D01*
X6521071Y-5446072D01*
X6535357Y-5417500D01*
X6563928Y-5403214D01*
X6606786Y-5403214D01*
X6635357Y-5417500D01*
X6749643Y-5717500D02*
X6763928Y-5703214D01*
X6792500Y-5660357D01*
X6806786Y-5631786D01*
X6821071Y-5588929D01*
X6835357Y-5517500D01*
X6835357Y-5460357D01*
X6821071Y-5388929D01*
X6806786Y-5346072D01*
X6792500Y-5317500D01*
X6763928Y-5274643D01*
X6749643Y-5260357D01*
X-7500Y-5863500D02*
G75*
G03X-7500Y-5863500I-40500J0D01*
G01*
X321071Y-5699214D02*
X349643Y-5699214D01*
X378214Y-5713500D01*
X392500Y-5727786D01*
X406786Y-5756357D01*
X421071Y-5813500D01*
X421071Y-5884929D01*
X406786Y-5942071D01*
X392500Y-5970643D01*
X378214Y-5984929D01*
X349643Y-5999214D01*
X321071Y-5999214D01*
X292500Y-5984929D01*
X278214Y-5970643D01*
X263929Y-5942071D01*
X249643Y-5884929D01*
X249643Y-5813500D01*
X263929Y-5756357D01*
X278214Y-5727786D01*
X292500Y-5713500D01*
X321071Y-5699214D01*
X549643Y-5970643D02*
X563929Y-5984929D01*
X549643Y-5999214D01*
X535357Y-5984929D01*
X549643Y-5970643D01*
X549643Y-5999214D01*
X735357Y-5827786D02*
X706786Y-5813500D01*
X692500Y-5799214D01*
X678214Y-5770643D01*
X678214Y-5756357D01*
X692500Y-5727786D01*
X706786Y-5713500D01*
X735357Y-5699214D01*
X792500Y-5699214D01*
X821071Y-5713500D01*
X835357Y-5727786D01*
X849643Y-5756357D01*
X849643Y-5770643D01*
X835357Y-5799214D01*
X821071Y-5813500D01*
X792500Y-5827786D01*
X735357Y-5827786D01*
X706786Y-5842071D01*
X692500Y-5856357D01*
X678214Y-5884929D01*
X678214Y-5942071D01*
X692500Y-5970643D01*
X706786Y-5984929D01*
X735357Y-5999214D01*
X792500Y-5999214D01*
X821071Y-5984929D01*
X835357Y-5970643D01*
X849643Y-5942071D01*
X849643Y-5884929D01*
X835357Y-5856357D01*
X821071Y-5842071D01*
X792500Y-5827786D01*
X1135357Y-5999214D02*
X963928Y-5999214D01*
X1049643Y-5999214D02*
X1049643Y-5699214D01*
X1021071Y-5742071D01*
X992500Y-5770643D01*
X963928Y-5784929D01*
X1263929Y-5999214D02*
X1263929Y-5799214D01*
X1263929Y-5827786D02*
X1278214Y-5813500D01*
X1306786Y-5799214D01*
X1349643Y-5799214D01*
X1378214Y-5813500D01*
X1392500Y-5842071D01*
X1392500Y-5999214D01*
X1392500Y-5842071D02*
X1406786Y-5813500D01*
X1435357Y-5799214D01*
X1478214Y-5799214D01*
X1506786Y-5813500D01*
X1521071Y-5842071D01*
X1521071Y-5999214D01*
X1663928Y-5999214D02*
X1663928Y-5799214D01*
X1663928Y-5827786D02*
X1678214Y-5813500D01*
X1706786Y-5799214D01*
X1749643Y-5799214D01*
X1778214Y-5813500D01*
X1792500Y-5842071D01*
X1792500Y-5999214D01*
X1792500Y-5842071D02*
X1806786Y-5813500D01*
X1835357Y-5799214D01*
X1878214Y-5799214D01*
X1906786Y-5813500D01*
X1921071Y-5842071D01*
X1921071Y-5999214D01*
X2506786Y-5684929D02*
X2249643Y-6070643D01*
X2892500Y-5699214D02*
X2921071Y-5699214D01*
X2949643Y-5713500D01*
X2963928Y-5727786D01*
X2978214Y-5756357D01*
X2992500Y-5813500D01*
X2992500Y-5884929D01*
X2978214Y-5942071D01*
X2963928Y-5970643D01*
X2949643Y-5984929D01*
X2921071Y-5999214D01*
X2892500Y-5999214D01*
X2863928Y-5984929D01*
X2849643Y-5970643D01*
X2835357Y-5942071D01*
X2821071Y-5884929D01*
X2821071Y-5813500D01*
X2835357Y-5756357D01*
X2849643Y-5727786D01*
X2863928Y-5713500D01*
X2892500Y-5699214D01*
X3121071Y-5970643D02*
X3135357Y-5984929D01*
X3121071Y-5999214D01*
X3106786Y-5984929D01*
X3121071Y-5970643D01*
X3121071Y-5999214D01*
X3321071Y-5699214D02*
X3349643Y-5699214D01*
X3378214Y-5713500D01*
X3392500Y-5727786D01*
X3406785Y-5756357D01*
X3421071Y-5813500D01*
X3421071Y-5884929D01*
X3406785Y-5942071D01*
X3392500Y-5970643D01*
X3378214Y-5984929D01*
X3349643Y-5999214D01*
X3321071Y-5999214D01*
X3292500Y-5984929D01*
X3278214Y-5970643D01*
X3263928Y-5942071D01*
X3249643Y-5884929D01*
X3249643Y-5813500D01*
X3263928Y-5756357D01*
X3278214Y-5727786D01*
X3292500Y-5713500D01*
X3321071Y-5699214D01*
X3521071Y-5699214D02*
X3706785Y-5699214D01*
X3606785Y-5813500D01*
X3649643Y-5813500D01*
X3678214Y-5827786D01*
X3692500Y-5842071D01*
X3706785Y-5870643D01*
X3706785Y-5942071D01*
X3692500Y-5970643D01*
X3678214Y-5984929D01*
X3649643Y-5999214D01*
X3563928Y-5999214D01*
X3535357Y-5984929D01*
X3521071Y-5970643D01*
X3821071Y-5727786D02*
X3835357Y-5713500D01*
X3863928Y-5699214D01*
X3935357Y-5699214D01*
X3963928Y-5713500D01*
X3978214Y-5727786D01*
X3992500Y-5756357D01*
X3992500Y-5784929D01*
X3978214Y-5827786D01*
X3806785Y-5999214D01*
X3992500Y-5999214D01*
X4106786Y-5699214D02*
X4106786Y-5756357D01*
X4221071Y-5699214D02*
X4221071Y-5756357D01*
X4663928Y-6113500D02*
X4649643Y-6099214D01*
X4621071Y-6056357D01*
X4606786Y-6027786D01*
X4592500Y-5984929D01*
X4578214Y-5913500D01*
X4578214Y-5856357D01*
X4592500Y-5784929D01*
X4606786Y-5742071D01*
X4621071Y-5713500D01*
X4649643Y-5670643D01*
X4663928Y-5656357D01*
X4906786Y-5799214D02*
X4906786Y-5999214D01*
X4835357Y-5684929D02*
X4763928Y-5899214D01*
X4949643Y-5899214D01*
X5292500Y-5999214D02*
X5292500Y-5699214D01*
X5421071Y-5999214D02*
X5421071Y-5842071D01*
X5406786Y-5813500D01*
X5378214Y-5799214D01*
X5335357Y-5799214D01*
X5306786Y-5813500D01*
X5292500Y-5827786D01*
X5606785Y-5999214D02*
X5578214Y-5984929D01*
X5563928Y-5970643D01*
X5549643Y-5942071D01*
X5549643Y-5856357D01*
X5563928Y-5827786D01*
X5578214Y-5813500D01*
X5606785Y-5799214D01*
X5649643Y-5799214D01*
X5678214Y-5813500D01*
X5692500Y-5827786D01*
X5706785Y-5856357D01*
X5706785Y-5942071D01*
X5692500Y-5970643D01*
X5678214Y-5984929D01*
X5649643Y-5999214D01*
X5606785Y-5999214D01*
X5878214Y-5999214D02*
X5849643Y-5984929D01*
X5835357Y-5956357D01*
X5835357Y-5699214D01*
X6106786Y-5984929D02*
X6078214Y-5999214D01*
X6021071Y-5999214D01*
X5992500Y-5984929D01*
X5978214Y-5956357D01*
X5978214Y-5842071D01*
X5992500Y-5813500D01*
X6021071Y-5799214D01*
X6078214Y-5799214D01*
X6106786Y-5813500D01*
X6121071Y-5842071D01*
X6121071Y-5870643D01*
X5978214Y-5899214D01*
X6235357Y-5984929D02*
X6263928Y-5999214D01*
X6321071Y-5999214D01*
X6349643Y-5984929D01*
X6363928Y-5956357D01*
X6363928Y-5942071D01*
X6349643Y-5913500D01*
X6321071Y-5899214D01*
X6278214Y-5899214D01*
X6249643Y-5884929D01*
X6235357Y-5856357D01*
X6235357Y-5842071D01*
X6249643Y-5813500D01*
X6278214Y-5799214D01*
X6321071Y-5799214D01*
X6349643Y-5813500D01*
X6463928Y-6113500D02*
X6478214Y-6099214D01*
X6506786Y-6056357D01*
X6521071Y-6027786D01*
X6535357Y-5984929D01*
X6549643Y-5913500D01*
X6549643Y-5856357D01*
X6535357Y-5784929D01*
X6521071Y-5742071D01*
X6506786Y-5713500D01*
X6478214Y-5670643D01*
X6463928Y-5656357D01*
X-57500Y-6209500D02*
X-57500Y-6309500D01*
X-107500Y-6259500D02*
X-7500Y-6259500D01*
X421071Y-6395214D02*
X249643Y-6395214D01*
X335357Y-6395214D02*
X335357Y-6095214D01*
X306786Y-6138071D01*
X278214Y-6166643D01*
X249643Y-6180929D01*
X549643Y-6366643D02*
X563929Y-6380929D01*
X549643Y-6395214D01*
X535357Y-6380929D01*
X549643Y-6366643D01*
X549643Y-6395214D01*
X749643Y-6095214D02*
X778214Y-6095214D01*
X806786Y-6109500D01*
X821071Y-6123786D01*
X835357Y-6152357D01*
X849643Y-6209500D01*
X849643Y-6280929D01*
X835357Y-6338071D01*
X821071Y-6366643D01*
X806786Y-6380929D01*
X778214Y-6395214D01*
X749643Y-6395214D01*
X721071Y-6380929D01*
X706786Y-6366643D01*
X692500Y-6338071D01*
X678214Y-6280929D01*
X678214Y-6209500D01*
X692500Y-6152357D01*
X706786Y-6123786D01*
X721071Y-6109500D01*
X749643Y-6095214D01*
X1035357Y-6095214D02*
X1063929Y-6095214D01*
X1092500Y-6109500D01*
X1106786Y-6123786D01*
X1121071Y-6152357D01*
X1135357Y-6209500D01*
X1135357Y-6280929D01*
X1121071Y-6338071D01*
X1106786Y-6366643D01*
X1092500Y-6380929D01*
X1063929Y-6395214D01*
X1035357Y-6395214D01*
X1006786Y-6380929D01*
X992500Y-6366643D01*
X978214Y-6338071D01*
X963928Y-6280929D01*
X963928Y-6209500D01*
X978214Y-6152357D01*
X992500Y-6123786D01*
X1006786Y-6109500D01*
X1035357Y-6095214D01*
X1263929Y-6395214D02*
X1263929Y-6195214D01*
X1263929Y-6223786D02*
X1278214Y-6209500D01*
X1306786Y-6195214D01*
X1349643Y-6195214D01*
X1378214Y-6209500D01*
X1392500Y-6238071D01*
X1392500Y-6395214D01*
X1392500Y-6238071D02*
X1406786Y-6209500D01*
X1435357Y-6195214D01*
X1478214Y-6195214D01*
X1506786Y-6209500D01*
X1521071Y-6238071D01*
X1521071Y-6395214D01*
X1663928Y-6395214D02*
X1663928Y-6195214D01*
X1663928Y-6223786D02*
X1678214Y-6209500D01*
X1706786Y-6195214D01*
X1749643Y-6195214D01*
X1778214Y-6209500D01*
X1792500Y-6238071D01*
X1792500Y-6395214D01*
X1792500Y-6238071D02*
X1806786Y-6209500D01*
X1835357Y-6195214D01*
X1878214Y-6195214D01*
X1906786Y-6209500D01*
X1921071Y-6238071D01*
X1921071Y-6395214D01*
X2506786Y-6080929D02*
X2249643Y-6466643D01*
X2892500Y-6095214D02*
X2921071Y-6095214D01*
X2949643Y-6109500D01*
X2963928Y-6123786D01*
X2978214Y-6152357D01*
X2992500Y-6209500D01*
X2992500Y-6280929D01*
X2978214Y-6338071D01*
X2963928Y-6366643D01*
X2949643Y-6380929D01*
X2921071Y-6395214D01*
X2892500Y-6395214D01*
X2863928Y-6380929D01*
X2849643Y-6366643D01*
X2835357Y-6338071D01*
X2821071Y-6280929D01*
X2821071Y-6209500D01*
X2835357Y-6152357D01*
X2849643Y-6123786D01*
X2863928Y-6109500D01*
X2892500Y-6095214D01*
X3121071Y-6366643D02*
X3135357Y-6380929D01*
X3121071Y-6395214D01*
X3106786Y-6380929D01*
X3121071Y-6366643D01*
X3121071Y-6395214D01*
X3321071Y-6095214D02*
X3349643Y-6095214D01*
X3378214Y-6109500D01*
X3392500Y-6123786D01*
X3406785Y-6152357D01*
X3421071Y-6209500D01*
X3421071Y-6280929D01*
X3406785Y-6338071D01*
X3392500Y-6366643D01*
X3378214Y-6380929D01*
X3349643Y-6395214D01*
X3321071Y-6395214D01*
X3292500Y-6380929D01*
X3278214Y-6366643D01*
X3263928Y-6338071D01*
X3249643Y-6280929D01*
X3249643Y-6209500D01*
X3263928Y-6152357D01*
X3278214Y-6123786D01*
X3292500Y-6109500D01*
X3321071Y-6095214D01*
X3521071Y-6095214D02*
X3706785Y-6095214D01*
X3606785Y-6209500D01*
X3649643Y-6209500D01*
X3678214Y-6223786D01*
X3692500Y-6238071D01*
X3706785Y-6266643D01*
X3706785Y-6338071D01*
X3692500Y-6366643D01*
X3678214Y-6380929D01*
X3649643Y-6395214D01*
X3563928Y-6395214D01*
X3535357Y-6380929D01*
X3521071Y-6366643D01*
X3849643Y-6395214D02*
X3906785Y-6395214D01*
X3935357Y-6380929D01*
X3949643Y-6366643D01*
X3978214Y-6323786D01*
X3992500Y-6266643D01*
X3992500Y-6152357D01*
X3978214Y-6123786D01*
X3963928Y-6109500D01*
X3935357Y-6095214D01*
X3878214Y-6095214D01*
X3849643Y-6109500D01*
X3835357Y-6123786D01*
X3821071Y-6152357D01*
X3821071Y-6223786D01*
X3835357Y-6252357D01*
X3849643Y-6266643D01*
X3878214Y-6280929D01*
X3935357Y-6280929D01*
X3963928Y-6266643D01*
X3978214Y-6252357D01*
X3992500Y-6223786D01*
X4106786Y-6095214D02*
X4106786Y-6152357D01*
X4221071Y-6095214D02*
X4221071Y-6152357D01*
X4663928Y-6509500D02*
X4649643Y-6495214D01*
X4621071Y-6452357D01*
X4606786Y-6423786D01*
X4592500Y-6380929D01*
X4578214Y-6309500D01*
X4578214Y-6252357D01*
X4592500Y-6180929D01*
X4606786Y-6138071D01*
X4621071Y-6109500D01*
X4649643Y-6066643D01*
X4663928Y-6052357D01*
X4935357Y-6395214D02*
X4763928Y-6395214D01*
X4849643Y-6395214D02*
X4849643Y-6095214D01*
X4821071Y-6138071D01*
X4792500Y-6166643D01*
X4763928Y-6180929D01*
X5121071Y-6095214D02*
X5149643Y-6095214D01*
X5178214Y-6109500D01*
X5192500Y-6123786D01*
X5206786Y-6152357D01*
X5221071Y-6209500D01*
X5221071Y-6280929D01*
X5206786Y-6338071D01*
X5192500Y-6366643D01*
X5178214Y-6380929D01*
X5149643Y-6395214D01*
X5121071Y-6395214D01*
X5092500Y-6380929D01*
X5078214Y-6366643D01*
X5063928Y-6338071D01*
X5049643Y-6280929D01*
X5049643Y-6209500D01*
X5063928Y-6152357D01*
X5078214Y-6123786D01*
X5092500Y-6109500D01*
X5121071Y-6095214D01*
X5578214Y-6395214D02*
X5578214Y-6095214D01*
X5706785Y-6395214D02*
X5706785Y-6238071D01*
X5692500Y-6209500D01*
X5663928Y-6195214D01*
X5621071Y-6195214D01*
X5592500Y-6209500D01*
X5578214Y-6223786D01*
X5892500Y-6395214D02*
X5863928Y-6380929D01*
X5849643Y-6366643D01*
X5835357Y-6338071D01*
X5835357Y-6252357D01*
X5849643Y-6223786D01*
X5863928Y-6209500D01*
X5892500Y-6195214D01*
X5935357Y-6195214D01*
X5963928Y-6209500D01*
X5978214Y-6223786D01*
X5992500Y-6252357D01*
X5992500Y-6338071D01*
X5978214Y-6366643D01*
X5963928Y-6380929D01*
X5935357Y-6395214D01*
X5892500Y-6395214D01*
X6163928Y-6395214D02*
X6135357Y-6380929D01*
X6121071Y-6352357D01*
X6121071Y-6095214D01*
X6392500Y-6380929D02*
X6363928Y-6395214D01*
X6306786Y-6395214D01*
X6278214Y-6380929D01*
X6263928Y-6352357D01*
X6263928Y-6238071D01*
X6278214Y-6209500D01*
X6306786Y-6195214D01*
X6363928Y-6195214D01*
X6392500Y-6209500D01*
X6406786Y-6238071D01*
X6406786Y-6266643D01*
X6263928Y-6295214D01*
X6521071Y-6380929D02*
X6549643Y-6395214D01*
X6606786Y-6395214D01*
X6635357Y-6380929D01*
X6649643Y-6352357D01*
X6649643Y-6338071D01*
X6635357Y-6309500D01*
X6606786Y-6295214D01*
X6563928Y-6295214D01*
X6535357Y-6280929D01*
X6521071Y-6252357D01*
X6521071Y-6238071D01*
X6535357Y-6209500D01*
X6563928Y-6195214D01*
X6606786Y-6195214D01*
X6635357Y-6209500D01*
X6749643Y-6509500D02*
X6763928Y-6495214D01*
X6792500Y-6452357D01*
X6806786Y-6423786D01*
X6821071Y-6380929D01*
X6835357Y-6309500D01*
X6835357Y-6252357D01*
X6821071Y-6180929D01*
X6806786Y-6138071D01*
X6792500Y-6109500D01*
X6763928Y-6066643D01*
X6749643Y-6052357D01*
X-23609Y-6694391D02*
X-23609Y-6616609D01*
X-101391Y-6616609D01*
X-101391Y-6694391D01*
X-23609Y-6694391D01*
X421071Y-6791214D02*
X249643Y-6791214D01*
X335357Y-6791214D02*
X335357Y-6491214D01*
X306786Y-6534071D01*
X278214Y-6562643D01*
X249643Y-6576929D01*
X549643Y-6762643D02*
X563929Y-6776929D01*
X549643Y-6791214D01*
X535357Y-6776929D01*
X549643Y-6762643D01*
X549643Y-6791214D01*
X849643Y-6791214D02*
X678214Y-6791214D01*
X763928Y-6791214D02*
X763928Y-6491214D01*
X735357Y-6534071D01*
X706786Y-6562643D01*
X678214Y-6576929D01*
X1035357Y-6491214D02*
X1063929Y-6491214D01*
X1092500Y-6505500D01*
X1106786Y-6519786D01*
X1121071Y-6548357D01*
X1135357Y-6605500D01*
X1135357Y-6676929D01*
X1121071Y-6734071D01*
X1106786Y-6762643D01*
X1092500Y-6776929D01*
X1063929Y-6791214D01*
X1035357Y-6791214D01*
X1006786Y-6776929D01*
X992500Y-6762643D01*
X978214Y-6734071D01*
X963928Y-6676929D01*
X963928Y-6605500D01*
X978214Y-6548357D01*
X992500Y-6519786D01*
X1006786Y-6505500D01*
X1035357Y-6491214D01*
X1263929Y-6791214D02*
X1263929Y-6591214D01*
X1263929Y-6619786D02*
X1278214Y-6605500D01*
X1306786Y-6591214D01*
X1349643Y-6591214D01*
X1378214Y-6605500D01*
X1392500Y-6634071D01*
X1392500Y-6791214D01*
X1392500Y-6634071D02*
X1406786Y-6605500D01*
X1435357Y-6591214D01*
X1478214Y-6591214D01*
X1506786Y-6605500D01*
X1521071Y-6634071D01*
X1521071Y-6791214D01*
X1663928Y-6791214D02*
X1663928Y-6591214D01*
X1663928Y-6619786D02*
X1678214Y-6605500D01*
X1706786Y-6591214D01*
X1749643Y-6591214D01*
X1778214Y-6605500D01*
X1792500Y-6634071D01*
X1792500Y-6791214D01*
X1792500Y-6634071D02*
X1806786Y-6605500D01*
X1835357Y-6591214D01*
X1878214Y-6591214D01*
X1906786Y-6605500D01*
X1921071Y-6634071D01*
X1921071Y-6791214D01*
X2506786Y-6476929D02*
X2249643Y-6862643D01*
X2892500Y-6491214D02*
X2921071Y-6491214D01*
X2949643Y-6505500D01*
X2963928Y-6519786D01*
X2978214Y-6548357D01*
X2992500Y-6605500D01*
X2992500Y-6676929D01*
X2978214Y-6734071D01*
X2963928Y-6762643D01*
X2949643Y-6776929D01*
X2921071Y-6791214D01*
X2892500Y-6791214D01*
X2863928Y-6776929D01*
X2849643Y-6762643D01*
X2835357Y-6734071D01*
X2821071Y-6676929D01*
X2821071Y-6605500D01*
X2835357Y-6548357D01*
X2849643Y-6519786D01*
X2863928Y-6505500D01*
X2892500Y-6491214D01*
X3121071Y-6762643D02*
X3135357Y-6776929D01*
X3121071Y-6791214D01*
X3106786Y-6776929D01*
X3121071Y-6762643D01*
X3121071Y-6791214D01*
X3321071Y-6491214D02*
X3349643Y-6491214D01*
X3378214Y-6505500D01*
X3392500Y-6519786D01*
X3406785Y-6548357D01*
X3421071Y-6605500D01*
X3421071Y-6676929D01*
X3406785Y-6734071D01*
X3392500Y-6762643D01*
X3378214Y-6776929D01*
X3349643Y-6791214D01*
X3321071Y-6791214D01*
X3292500Y-6776929D01*
X3278214Y-6762643D01*
X3263928Y-6734071D01*
X3249643Y-6676929D01*
X3249643Y-6605500D01*
X3263928Y-6548357D01*
X3278214Y-6519786D01*
X3292500Y-6505500D01*
X3321071Y-6491214D01*
X3678214Y-6591214D02*
X3678214Y-6791214D01*
X3606785Y-6476929D02*
X3535357Y-6691214D01*
X3721071Y-6691214D01*
X3806785Y-6491214D02*
X3992500Y-6491214D01*
X3892500Y-6605500D01*
X3935357Y-6605500D01*
X3963928Y-6619786D01*
X3978214Y-6634071D01*
X3992500Y-6662643D01*
X3992500Y-6734071D01*
X3978214Y-6762643D01*
X3963928Y-6776929D01*
X3935357Y-6791214D01*
X3849643Y-6791214D01*
X3821071Y-6776929D01*
X3806785Y-6762643D01*
X4106786Y-6491214D02*
X4106786Y-6548357D01*
X4221071Y-6491214D02*
X4221071Y-6548357D01*
X4663928Y-6905500D02*
X4649643Y-6891214D01*
X4621071Y-6848357D01*
X4606786Y-6819786D01*
X4592500Y-6776929D01*
X4578214Y-6705500D01*
X4578214Y-6648357D01*
X4592500Y-6576929D01*
X4606786Y-6534071D01*
X4621071Y-6505500D01*
X4649643Y-6462643D01*
X4663928Y-6448357D01*
X4906786Y-6591214D02*
X4906786Y-6791214D01*
X4835357Y-6476929D02*
X4763928Y-6691214D01*
X4949643Y-6691214D01*
X5292500Y-6791214D02*
X5292500Y-6491214D01*
X5421071Y-6791214D02*
X5421071Y-6634071D01*
X5406786Y-6605500D01*
X5378214Y-6591214D01*
X5335357Y-6591214D01*
X5306786Y-6605500D01*
X5292500Y-6619786D01*
X5606785Y-6791214D02*
X5578214Y-6776929D01*
X5563928Y-6762643D01*
X5549643Y-6734071D01*
X5549643Y-6648357D01*
X5563928Y-6619786D01*
X5578214Y-6605500D01*
X5606785Y-6591214D01*
X5649643Y-6591214D01*
X5678214Y-6605500D01*
X5692500Y-6619786D01*
X5706785Y-6648357D01*
X5706785Y-6734071D01*
X5692500Y-6762643D01*
X5678214Y-6776929D01*
X5649643Y-6791214D01*
X5606785Y-6791214D01*
X5878214Y-6791214D02*
X5849643Y-6776929D01*
X5835357Y-6748357D01*
X5835357Y-6491214D01*
X6106786Y-6776929D02*
X6078214Y-6791214D01*
X6021071Y-6791214D01*
X5992500Y-6776929D01*
X5978214Y-6748357D01*
X5978214Y-6634071D01*
X5992500Y-6605500D01*
X6021071Y-6591214D01*
X6078214Y-6591214D01*
X6106786Y-6605500D01*
X6121071Y-6634071D01*
X6121071Y-6662643D01*
X5978214Y-6691214D01*
X6235357Y-6776929D02*
X6263928Y-6791214D01*
X6321071Y-6791214D01*
X6349643Y-6776929D01*
X6363928Y-6748357D01*
X6363928Y-6734071D01*
X6349643Y-6705500D01*
X6321071Y-6691214D01*
X6278214Y-6691214D01*
X6249643Y-6676929D01*
X6235357Y-6648357D01*
X6235357Y-6634071D01*
X6249643Y-6605500D01*
X6278214Y-6591214D01*
X6321071Y-6591214D01*
X6349643Y-6605500D01*
X6463928Y-6905500D02*
X6478214Y-6891214D01*
X6506786Y-6848357D01*
X6521071Y-6819786D01*
X6535357Y-6776929D01*
X6549643Y-6705500D01*
X6549643Y-6648357D01*
X6535357Y-6576929D01*
X6521071Y-6534071D01*
X6506786Y-6505500D01*
X6478214Y-6462643D01*
X6463928Y-6448357D01*
X-67063Y-7111063D02*
X-7500Y-7051500D01*
X-67063Y-6991937D01*
X-126626Y-7051500D01*
X-67063Y-7111063D01*
X421071Y-7187214D02*
X249643Y-7187214D01*
X335357Y-7187214D02*
X335357Y-6887214D01*
X306786Y-6930071D01*
X278214Y-6958643D01*
X249643Y-6972929D01*
X549643Y-7158643D02*
X563929Y-7172929D01*
X549643Y-7187214D01*
X535357Y-7172929D01*
X549643Y-7158643D01*
X549643Y-7187214D01*
X849643Y-7187214D02*
X678214Y-7187214D01*
X763928Y-7187214D02*
X763928Y-6887214D01*
X735357Y-6930071D01*
X706786Y-6958643D01*
X678214Y-6972929D01*
X992500Y-7187214D02*
X1049643Y-7187214D01*
X1078214Y-7172929D01*
X1092500Y-7158643D01*
X1121071Y-7115786D01*
X1135357Y-7058643D01*
X1135357Y-6944357D01*
X1121071Y-6915786D01*
X1106786Y-6901500D01*
X1078214Y-6887214D01*
X1021071Y-6887214D01*
X992500Y-6901500D01*
X978214Y-6915786D01*
X963928Y-6944357D01*
X963928Y-7015786D01*
X978214Y-7044357D01*
X992500Y-7058643D01*
X1021071Y-7072929D01*
X1078214Y-7072929D01*
X1106786Y-7058643D01*
X1121071Y-7044357D01*
X1135357Y-7015786D01*
X1263929Y-7187214D02*
X1263929Y-6987214D01*
X1263929Y-7015786D02*
X1278214Y-7001500D01*
X1306786Y-6987214D01*
X1349643Y-6987214D01*
X1378214Y-7001500D01*
X1392500Y-7030071D01*
X1392500Y-7187214D01*
X1392500Y-7030071D02*
X1406786Y-7001500D01*
X1435357Y-6987214D01*
X1478214Y-6987214D01*
X1506786Y-7001500D01*
X1521071Y-7030071D01*
X1521071Y-7187214D01*
X1663928Y-7187214D02*
X1663928Y-6987214D01*
X1663928Y-7015786D02*
X1678214Y-7001500D01*
X1706786Y-6987214D01*
X1749643Y-6987214D01*
X1778214Y-7001500D01*
X1792500Y-7030071D01*
X1792500Y-7187214D01*
X1792500Y-7030071D02*
X1806786Y-7001500D01*
X1835357Y-6987214D01*
X1878214Y-6987214D01*
X1906786Y-7001500D01*
X1921071Y-7030071D01*
X1921071Y-7187214D01*
X2506786Y-6872929D02*
X2249643Y-7258643D01*
X2892500Y-6887214D02*
X2921071Y-6887214D01*
X2949643Y-6901500D01*
X2963928Y-6915786D01*
X2978214Y-6944357D01*
X2992500Y-7001500D01*
X2992500Y-7072929D01*
X2978214Y-7130071D01*
X2963928Y-7158643D01*
X2949643Y-7172929D01*
X2921071Y-7187214D01*
X2892500Y-7187214D01*
X2863928Y-7172929D01*
X2849643Y-7158643D01*
X2835357Y-7130071D01*
X2821071Y-7072929D01*
X2821071Y-7001500D01*
X2835357Y-6944357D01*
X2849643Y-6915786D01*
X2863928Y-6901500D01*
X2892500Y-6887214D01*
X3121071Y-7158643D02*
X3135357Y-7172929D01*
X3121071Y-7187214D01*
X3106786Y-7172929D01*
X3121071Y-7158643D01*
X3121071Y-7187214D01*
X3321071Y-6887214D02*
X3349643Y-6887214D01*
X3378214Y-6901500D01*
X3392500Y-6915786D01*
X3406785Y-6944357D01*
X3421071Y-7001500D01*
X3421071Y-7072929D01*
X3406785Y-7130071D01*
X3392500Y-7158643D01*
X3378214Y-7172929D01*
X3349643Y-7187214D01*
X3321071Y-7187214D01*
X3292500Y-7172929D01*
X3278214Y-7158643D01*
X3263928Y-7130071D01*
X3249643Y-7072929D01*
X3249643Y-7001500D01*
X3263928Y-6944357D01*
X3278214Y-6915786D01*
X3292500Y-6901500D01*
X3321071Y-6887214D01*
X3678214Y-6987214D02*
X3678214Y-7187214D01*
X3606785Y-6872929D02*
X3535357Y-7087214D01*
X3721071Y-7087214D01*
X3806785Y-6887214D02*
X4006785Y-6887214D01*
X3878214Y-7187214D01*
X4106786Y-6887214D02*
X4106786Y-6944357D01*
X4221071Y-6887214D02*
X4221071Y-6944357D01*
X4663928Y-7301500D02*
X4649643Y-7287214D01*
X4621071Y-7244357D01*
X4606786Y-7215786D01*
X4592500Y-7172929D01*
X4578214Y-7101500D01*
X4578214Y-7044357D01*
X4592500Y-6972929D01*
X4606786Y-6930071D01*
X4621071Y-6901500D01*
X4649643Y-6858643D01*
X4663928Y-6844357D01*
X4935357Y-7187214D02*
X4763928Y-7187214D01*
X4849643Y-7187214D02*
X4849643Y-6887214D01*
X4821071Y-6930071D01*
X4792500Y-6958643D01*
X4763928Y-6972929D01*
X5192500Y-6987214D02*
X5192500Y-7187214D01*
X5121071Y-6872929D02*
X5049643Y-7087214D01*
X5235357Y-7087214D01*
X5578214Y-7187214D02*
X5578214Y-6887214D01*
X5706785Y-7187214D02*
X5706785Y-7030071D01*
X5692500Y-7001500D01*
X5663928Y-6987214D01*
X5621071Y-6987214D01*
X5592500Y-7001500D01*
X5578214Y-7015786D01*
X5892500Y-7187214D02*
X5863928Y-7172929D01*
X5849643Y-7158643D01*
X5835357Y-7130071D01*
X5835357Y-7044357D01*
X5849643Y-7015786D01*
X5863928Y-7001500D01*
X5892500Y-6987214D01*
X5935357Y-6987214D01*
X5963928Y-7001500D01*
X5978214Y-7015786D01*
X5992500Y-7044357D01*
X5992500Y-7130071D01*
X5978214Y-7158643D01*
X5963928Y-7172929D01*
X5935357Y-7187214D01*
X5892500Y-7187214D01*
X6163928Y-7187214D02*
X6135357Y-7172929D01*
X6121071Y-7144357D01*
X6121071Y-6887214D01*
X6392500Y-7172929D02*
X6363928Y-7187214D01*
X6306786Y-7187214D01*
X6278214Y-7172929D01*
X6263928Y-7144357D01*
X6263928Y-7030071D01*
X6278214Y-7001500D01*
X6306786Y-6987214D01*
X6363928Y-6987214D01*
X6392500Y-7001500D01*
X6406786Y-7030071D01*
X6406786Y-7058643D01*
X6263928Y-7087214D01*
X6521071Y-7172929D02*
X6549643Y-7187214D01*
X6606786Y-7187214D01*
X6635357Y-7172929D01*
X6649643Y-7144357D01*
X6649643Y-7130071D01*
X6635357Y-7101500D01*
X6606786Y-7087214D01*
X6563928Y-7087214D01*
X6535357Y-7072929D01*
X6521071Y-7044357D01*
X6521071Y-7030071D01*
X6535357Y-7001500D01*
X6563928Y-6987214D01*
X6606786Y-6987214D01*
X6635357Y-7001500D01*
X6749643Y-7301500D02*
X6763928Y-7287214D01*
X6792500Y-7244357D01*
X6806786Y-7215786D01*
X6821071Y-7172929D01*
X6835357Y-7101500D01*
X6835357Y-7044357D01*
X6821071Y-6972929D01*
X6806786Y-6930071D01*
X6792500Y-6901500D01*
X6763928Y-6858643D01*
X6749643Y-6844357D01*
X-127500Y-7387500D02*
X-7500Y-7507500D01*
X-7500Y-7387500D02*
X-127500Y-7507500D01*
X-7500Y-7447500D02*
G75*
G03X-7500Y-7447500I-60000J0D01*
G01*
X421071Y-7583214D02*
X249643Y-7583214D01*
X335357Y-7583214D02*
X335357Y-7283214D01*
X306786Y-7326071D01*
X278214Y-7354643D01*
X249643Y-7368929D01*
X549643Y-7554643D02*
X563929Y-7568929D01*
X549643Y-7583214D01*
X535357Y-7568929D01*
X549643Y-7554643D01*
X549643Y-7583214D01*
X678214Y-7311786D02*
X692500Y-7297500D01*
X721071Y-7283214D01*
X792500Y-7283214D01*
X821071Y-7297500D01*
X835357Y-7311786D01*
X849643Y-7340357D01*
X849643Y-7368929D01*
X835357Y-7411786D01*
X663928Y-7583214D01*
X849643Y-7583214D01*
X1035357Y-7283214D02*
X1063929Y-7283214D01*
X1092500Y-7297500D01*
X1106786Y-7311786D01*
X1121071Y-7340357D01*
X1135357Y-7397500D01*
X1135357Y-7468929D01*
X1121071Y-7526071D01*
X1106786Y-7554643D01*
X1092500Y-7568929D01*
X1063929Y-7583214D01*
X1035357Y-7583214D01*
X1006786Y-7568929D01*
X992500Y-7554643D01*
X978214Y-7526071D01*
X963928Y-7468929D01*
X963928Y-7397500D01*
X978214Y-7340357D01*
X992500Y-7311786D01*
X1006786Y-7297500D01*
X1035357Y-7283214D01*
X1263929Y-7583214D02*
X1263929Y-7383214D01*
X1263929Y-7411786D02*
X1278214Y-7397500D01*
X1306786Y-7383214D01*
X1349643Y-7383214D01*
X1378214Y-7397500D01*
X1392500Y-7426071D01*
X1392500Y-7583214D01*
X1392500Y-7426071D02*
X1406786Y-7397500D01*
X1435357Y-7383214D01*
X1478214Y-7383214D01*
X1506786Y-7397500D01*
X1521071Y-7426071D01*
X1521071Y-7583214D01*
X1663928Y-7583214D02*
X1663928Y-7383214D01*
X1663928Y-7411786D02*
X1678214Y-7397500D01*
X1706786Y-7383214D01*
X1749643Y-7383214D01*
X1778214Y-7397500D01*
X1792500Y-7426071D01*
X1792500Y-7583214D01*
X1792500Y-7426071D02*
X1806786Y-7397500D01*
X1835357Y-7383214D01*
X1878214Y-7383214D01*
X1906786Y-7397500D01*
X1921071Y-7426071D01*
X1921071Y-7583214D01*
X2506786Y-7268929D02*
X2249643Y-7654643D01*
X2892500Y-7283214D02*
X2921071Y-7283214D01*
X2949643Y-7297500D01*
X2963928Y-7311786D01*
X2978214Y-7340357D01*
X2992500Y-7397500D01*
X2992500Y-7468929D01*
X2978214Y-7526071D01*
X2963928Y-7554643D01*
X2949643Y-7568929D01*
X2921071Y-7583214D01*
X2892500Y-7583214D01*
X2863928Y-7568929D01*
X2849643Y-7554643D01*
X2835357Y-7526071D01*
X2821071Y-7468929D01*
X2821071Y-7397500D01*
X2835357Y-7340357D01*
X2849643Y-7311786D01*
X2863928Y-7297500D01*
X2892500Y-7283214D01*
X3121071Y-7554643D02*
X3135357Y-7568929D01*
X3121071Y-7583214D01*
X3106786Y-7568929D01*
X3121071Y-7554643D01*
X3121071Y-7583214D01*
X3321071Y-7283214D02*
X3349643Y-7283214D01*
X3378214Y-7297500D01*
X3392500Y-7311786D01*
X3406785Y-7340357D01*
X3421071Y-7397500D01*
X3421071Y-7468929D01*
X3406785Y-7526071D01*
X3392500Y-7554643D01*
X3378214Y-7568929D01*
X3349643Y-7583214D01*
X3321071Y-7583214D01*
X3292500Y-7568929D01*
X3278214Y-7554643D01*
X3263928Y-7526071D01*
X3249643Y-7468929D01*
X3249643Y-7397500D01*
X3263928Y-7340357D01*
X3278214Y-7311786D01*
X3292500Y-7297500D01*
X3321071Y-7283214D01*
X3678214Y-7383214D02*
X3678214Y-7583214D01*
X3606785Y-7268929D02*
X3535357Y-7483214D01*
X3721071Y-7483214D01*
X3806785Y-7283214D02*
X4006785Y-7283214D01*
X3878214Y-7583214D01*
X4106786Y-7283214D02*
X4106786Y-7340357D01*
X4221071Y-7283214D02*
X4221071Y-7340357D01*
X4663928Y-7697500D02*
X4649643Y-7683214D01*
X4621071Y-7640357D01*
X4606786Y-7611786D01*
X4592500Y-7568929D01*
X4578214Y-7497500D01*
X4578214Y-7440357D01*
X4592500Y-7368929D01*
X4606786Y-7326071D01*
X4621071Y-7297500D01*
X4649643Y-7254643D01*
X4663928Y-7240357D01*
X4935357Y-7583214D02*
X4763928Y-7583214D01*
X4849643Y-7583214D02*
X4849643Y-7283214D01*
X4821071Y-7326071D01*
X4792500Y-7354643D01*
X4763928Y-7368929D01*
X5292500Y-7583214D02*
X5292500Y-7283214D01*
X5421071Y-7583214D02*
X5421071Y-7426071D01*
X5406786Y-7397500D01*
X5378214Y-7383214D01*
X5335357Y-7383214D01*
X5306786Y-7397500D01*
X5292500Y-7411786D01*
X5606785Y-7583214D02*
X5578214Y-7568929D01*
X5563928Y-7554643D01*
X5549643Y-7526071D01*
X5549643Y-7440357D01*
X5563928Y-7411786D01*
X5578214Y-7397500D01*
X5606785Y-7383214D01*
X5649643Y-7383214D01*
X5678214Y-7397500D01*
X5692500Y-7411786D01*
X5706785Y-7440357D01*
X5706785Y-7526071D01*
X5692500Y-7554643D01*
X5678214Y-7568929D01*
X5649643Y-7583214D01*
X5606785Y-7583214D01*
X5878214Y-7583214D02*
X5849643Y-7568929D01*
X5835357Y-7540357D01*
X5835357Y-7283214D01*
X6106786Y-7568929D02*
X6078214Y-7583214D01*
X6021071Y-7583214D01*
X5992500Y-7568929D01*
X5978214Y-7540357D01*
X5978214Y-7426071D01*
X5992500Y-7397500D01*
X6021071Y-7383214D01*
X6078214Y-7383214D01*
X6106786Y-7397500D01*
X6121071Y-7426071D01*
X6121071Y-7454643D01*
X5978214Y-7483214D01*
X6221071Y-7697500D02*
X6235357Y-7683214D01*
X6263928Y-7640357D01*
X6278214Y-7611786D01*
X6292500Y-7568929D01*
X6306786Y-7497500D01*
X6306786Y-7440357D01*
X6292500Y-7368929D01*
X6278214Y-7326071D01*
X6263928Y-7297500D01*
X6235357Y-7254643D01*
X6221071Y-7240357D01*
X-237500Y-7728500D02*
X-7500Y-7958500D01*
X-7500Y-7728500D02*
X-237500Y-7958500D01*
X-122500Y-7728500D02*
X-122500Y-7958500D01*
X-237500Y-7843500D02*
X-7500Y-7843500D01*
X249643Y-7707786D02*
X263929Y-7693500D01*
X292500Y-7679214D01*
X363928Y-7679214D01*
X392500Y-7693500D01*
X406786Y-7707786D01*
X421071Y-7736357D01*
X421071Y-7764929D01*
X406786Y-7807786D01*
X235357Y-7979214D01*
X421071Y-7979214D01*
X549643Y-7950643D02*
X563929Y-7964929D01*
X549643Y-7979214D01*
X535357Y-7964929D01*
X549643Y-7950643D01*
X549643Y-7979214D01*
X663928Y-7679214D02*
X849643Y-7679214D01*
X749643Y-7793500D01*
X792500Y-7793500D01*
X821071Y-7807786D01*
X835357Y-7822071D01*
X849643Y-7850643D01*
X849643Y-7922071D01*
X835357Y-7950643D01*
X821071Y-7964929D01*
X792500Y-7979214D01*
X706786Y-7979214D01*
X678214Y-7964929D01*
X663928Y-7950643D01*
X1035357Y-7679214D02*
X1063929Y-7679214D01*
X1092500Y-7693500D01*
X1106786Y-7707786D01*
X1121071Y-7736357D01*
X1135357Y-7793500D01*
X1135357Y-7864929D01*
X1121071Y-7922071D01*
X1106786Y-7950643D01*
X1092500Y-7964929D01*
X1063929Y-7979214D01*
X1035357Y-7979214D01*
X1006786Y-7964929D01*
X992500Y-7950643D01*
X978214Y-7922071D01*
X963928Y-7864929D01*
X963928Y-7793500D01*
X978214Y-7736357D01*
X992500Y-7707786D01*
X1006786Y-7693500D01*
X1035357Y-7679214D01*
X1263929Y-7979214D02*
X1263929Y-7779214D01*
X1263929Y-7807786D02*
X1278214Y-7793500D01*
X1306786Y-7779214D01*
X1349643Y-7779214D01*
X1378214Y-7793500D01*
X1392500Y-7822071D01*
X1392500Y-7979214D01*
X1392500Y-7822071D02*
X1406786Y-7793500D01*
X1435357Y-7779214D01*
X1478214Y-7779214D01*
X1506786Y-7793500D01*
X1521071Y-7822071D01*
X1521071Y-7979214D01*
X1663928Y-7979214D02*
X1663928Y-7779214D01*
X1663928Y-7807786D02*
X1678214Y-7793500D01*
X1706786Y-7779214D01*
X1749643Y-7779214D01*
X1778214Y-7793500D01*
X1792500Y-7822071D01*
X1792500Y-7979214D01*
X1792500Y-7822071D02*
X1806786Y-7793500D01*
X1835357Y-7779214D01*
X1878214Y-7779214D01*
X1906786Y-7793500D01*
X1921071Y-7822071D01*
X1921071Y-7979214D01*
X2506786Y-7664929D02*
X2249643Y-8050643D01*
X2892500Y-7679214D02*
X2921071Y-7679214D01*
X2949643Y-7693500D01*
X2963928Y-7707786D01*
X2978214Y-7736357D01*
X2992500Y-7793500D01*
X2992500Y-7864929D01*
X2978214Y-7922071D01*
X2963928Y-7950643D01*
X2949643Y-7964929D01*
X2921071Y-7979214D01*
X2892500Y-7979214D01*
X2863928Y-7964929D01*
X2849643Y-7950643D01*
X2835357Y-7922071D01*
X2821071Y-7864929D01*
X2821071Y-7793500D01*
X2835357Y-7736357D01*
X2849643Y-7707786D01*
X2863928Y-7693500D01*
X2892500Y-7679214D01*
X3121071Y-7950643D02*
X3135357Y-7964929D01*
X3121071Y-7979214D01*
X3106786Y-7964929D01*
X3121071Y-7950643D01*
X3121071Y-7979214D01*
X3321071Y-7679214D02*
X3349643Y-7679214D01*
X3378214Y-7693500D01*
X3392500Y-7707786D01*
X3406785Y-7736357D01*
X3421071Y-7793500D01*
X3421071Y-7864929D01*
X3406785Y-7922071D01*
X3392500Y-7950643D01*
X3378214Y-7964929D01*
X3349643Y-7979214D01*
X3321071Y-7979214D01*
X3292500Y-7964929D01*
X3278214Y-7950643D01*
X3263928Y-7922071D01*
X3249643Y-7864929D01*
X3249643Y-7793500D01*
X3263928Y-7736357D01*
X3278214Y-7707786D01*
X3292500Y-7693500D01*
X3321071Y-7679214D01*
X3563928Y-7979214D02*
X3621071Y-7979214D01*
X3649643Y-7964929D01*
X3663928Y-7950643D01*
X3692500Y-7907786D01*
X3706785Y-7850643D01*
X3706785Y-7736357D01*
X3692500Y-7707786D01*
X3678214Y-7693500D01*
X3649643Y-7679214D01*
X3592500Y-7679214D01*
X3563928Y-7693500D01*
X3549643Y-7707786D01*
X3535357Y-7736357D01*
X3535357Y-7807786D01*
X3549643Y-7836357D01*
X3563928Y-7850643D01*
X3592500Y-7864929D01*
X3649643Y-7864929D01*
X3678214Y-7850643D01*
X3692500Y-7836357D01*
X3706785Y-7807786D01*
X3992500Y-7979214D02*
X3821071Y-7979214D01*
X3906785Y-7979214D02*
X3906785Y-7679214D01*
X3878214Y-7722071D01*
X3849643Y-7750643D01*
X3821071Y-7764929D01*
X4106786Y-7679214D02*
X4106786Y-7736357D01*
X4221071Y-7679214D02*
X4221071Y-7736357D01*
X4663928Y-8093500D02*
X4649643Y-8079214D01*
X4621071Y-8036357D01*
X4606786Y-8007786D01*
X4592500Y-7964929D01*
X4578214Y-7893500D01*
X4578214Y-7836357D01*
X4592500Y-7764929D01*
X4606786Y-7722071D01*
X4621071Y-7693500D01*
X4649643Y-7650643D01*
X4663928Y-7636357D01*
X4763928Y-7707786D02*
X4778214Y-7693500D01*
X4806786Y-7679214D01*
X4878214Y-7679214D01*
X4906786Y-7693500D01*
X4921071Y-7707786D01*
X4935357Y-7736357D01*
X4935357Y-7764929D01*
X4921071Y-7807786D01*
X4749643Y-7979214D01*
X4935357Y-7979214D01*
X5292500Y-7979214D02*
X5292500Y-7679214D01*
X5421071Y-7979214D02*
X5421071Y-7822071D01*
X5406786Y-7793500D01*
X5378214Y-7779214D01*
X5335357Y-7779214D01*
X5306786Y-7793500D01*
X5292500Y-7807786D01*
X5606785Y-7979214D02*
X5578214Y-7964929D01*
X5563928Y-7950643D01*
X5549643Y-7922071D01*
X5549643Y-7836357D01*
X5563928Y-7807786D01*
X5578214Y-7793500D01*
X5606785Y-7779214D01*
X5649643Y-7779214D01*
X5678214Y-7793500D01*
X5692500Y-7807786D01*
X5706785Y-7836357D01*
X5706785Y-7922071D01*
X5692500Y-7950643D01*
X5678214Y-7964929D01*
X5649643Y-7979214D01*
X5606785Y-7979214D01*
X5878214Y-7979214D02*
X5849643Y-7964929D01*
X5835357Y-7936357D01*
X5835357Y-7679214D01*
X6106786Y-7964929D02*
X6078214Y-7979214D01*
X6021071Y-7979214D01*
X5992500Y-7964929D01*
X5978214Y-7936357D01*
X5978214Y-7822071D01*
X5992500Y-7793500D01*
X6021071Y-7779214D01*
X6078214Y-7779214D01*
X6106786Y-7793500D01*
X6121071Y-7822071D01*
X6121071Y-7850643D01*
X5978214Y-7879214D01*
X6235357Y-7964929D02*
X6263928Y-7979214D01*
X6321071Y-7979214D01*
X6349643Y-7964929D01*
X6363928Y-7936357D01*
X6363928Y-7922071D01*
X6349643Y-7893500D01*
X6321071Y-7879214D01*
X6278214Y-7879214D01*
X6249643Y-7864929D01*
X6235357Y-7836357D01*
X6235357Y-7822071D01*
X6249643Y-7793500D01*
X6278214Y-7779214D01*
X6321071Y-7779214D01*
X6349643Y-7793500D01*
X6463928Y-8093500D02*
X6478214Y-8079214D01*
X6506786Y-8036357D01*
X6521071Y-8007786D01*
X6535357Y-7964929D01*
X6549643Y-7893500D01*
X6549643Y-7836357D01*
X6535357Y-7764929D01*
X6521071Y-7722071D01*
X6506786Y-7693500D01*
X6478214Y-7650643D01*
X6463928Y-7636357D01*
X-327540Y-8079480D02*
X-7500Y-8399520D01*
X-7500Y-8079480D02*
X-327540Y-8399520D01*
X-54368Y-8352652D02*
X-54368Y-8126348D01*
X-280672Y-8126348D01*
X-280672Y-8352652D01*
X-54368Y-8352652D01*
X235357Y-8075214D02*
X421071Y-8075214D01*
X321071Y-8189500D01*
X363928Y-8189500D01*
X392500Y-8203786D01*
X406786Y-8218071D01*
X421071Y-8246643D01*
X421071Y-8318071D01*
X406786Y-8346643D01*
X392500Y-8360929D01*
X363928Y-8375214D01*
X278214Y-8375214D01*
X249643Y-8360929D01*
X235357Y-8346643D01*
X549643Y-8346643D02*
X563929Y-8360929D01*
X549643Y-8375214D01*
X535357Y-8360929D01*
X549643Y-8346643D01*
X549643Y-8375214D01*
X678214Y-8103786D02*
X692500Y-8089500D01*
X721071Y-8075214D01*
X792500Y-8075214D01*
X821071Y-8089500D01*
X835357Y-8103786D01*
X849643Y-8132357D01*
X849643Y-8160929D01*
X835357Y-8203786D01*
X663928Y-8375214D01*
X849643Y-8375214D01*
X1035357Y-8075214D02*
X1063929Y-8075214D01*
X1092500Y-8089500D01*
X1106786Y-8103786D01*
X1121071Y-8132357D01*
X1135357Y-8189500D01*
X1135357Y-8260929D01*
X1121071Y-8318071D01*
X1106786Y-8346643D01*
X1092500Y-8360929D01*
X1063929Y-8375214D01*
X1035357Y-8375214D01*
X1006786Y-8360929D01*
X992500Y-8346643D01*
X978214Y-8318071D01*
X963928Y-8260929D01*
X963928Y-8189500D01*
X978214Y-8132357D01*
X992500Y-8103786D01*
X1006786Y-8089500D01*
X1035357Y-8075214D01*
X1263929Y-8375214D02*
X1263929Y-8175214D01*
X1263929Y-8203786D02*
X1278214Y-8189500D01*
X1306786Y-8175214D01*
X1349643Y-8175214D01*
X1378214Y-8189500D01*
X1392500Y-8218071D01*
X1392500Y-8375214D01*
X1392500Y-8218071D02*
X1406786Y-8189500D01*
X1435357Y-8175214D01*
X1478214Y-8175214D01*
X1506786Y-8189500D01*
X1521071Y-8218071D01*
X1521071Y-8375214D01*
X1663928Y-8375214D02*
X1663928Y-8175214D01*
X1663928Y-8203786D02*
X1678214Y-8189500D01*
X1706786Y-8175214D01*
X1749643Y-8175214D01*
X1778214Y-8189500D01*
X1792500Y-8218071D01*
X1792500Y-8375214D01*
X1792500Y-8218071D02*
X1806786Y-8189500D01*
X1835357Y-8175214D01*
X1878214Y-8175214D01*
X1906786Y-8189500D01*
X1921071Y-8218071D01*
X1921071Y-8375214D01*
X2506786Y-8060929D02*
X2249643Y-8446643D01*
X2892500Y-8075214D02*
X2921071Y-8075214D01*
X2949643Y-8089500D01*
X2963928Y-8103786D01*
X2978214Y-8132357D01*
X2992500Y-8189500D01*
X2992500Y-8260929D01*
X2978214Y-8318071D01*
X2963928Y-8346643D01*
X2949643Y-8360929D01*
X2921071Y-8375214D01*
X2892500Y-8375214D01*
X2863928Y-8360929D01*
X2849643Y-8346643D01*
X2835357Y-8318071D01*
X2821071Y-8260929D01*
X2821071Y-8189500D01*
X2835357Y-8132357D01*
X2849643Y-8103786D01*
X2863928Y-8089500D01*
X2892500Y-8075214D01*
X3121071Y-8346643D02*
X3135357Y-8360929D01*
X3121071Y-8375214D01*
X3106786Y-8360929D01*
X3121071Y-8346643D01*
X3121071Y-8375214D01*
X3421071Y-8375214D02*
X3249643Y-8375214D01*
X3335357Y-8375214D02*
X3335357Y-8075214D01*
X3306785Y-8118071D01*
X3278214Y-8146643D01*
X3249643Y-8160929D01*
X3535357Y-8103786D02*
X3549643Y-8089500D01*
X3578214Y-8075214D01*
X3649643Y-8075214D01*
X3678214Y-8089500D01*
X3692500Y-8103786D01*
X3706785Y-8132357D01*
X3706785Y-8160929D01*
X3692500Y-8203786D01*
X3521071Y-8375214D01*
X3706785Y-8375214D01*
X3963928Y-8075214D02*
X3906785Y-8075214D01*
X3878214Y-8089500D01*
X3863928Y-8103786D01*
X3835357Y-8146643D01*
X3821071Y-8203786D01*
X3821071Y-8318071D01*
X3835357Y-8346643D01*
X3849643Y-8360929D01*
X3878214Y-8375214D01*
X3935357Y-8375214D01*
X3963928Y-8360929D01*
X3978214Y-8346643D01*
X3992500Y-8318071D01*
X3992500Y-8246643D01*
X3978214Y-8218071D01*
X3963928Y-8203786D01*
X3935357Y-8189500D01*
X3878214Y-8189500D01*
X3849643Y-8203786D01*
X3835357Y-8218071D01*
X3821071Y-8246643D01*
X4106786Y-8075214D02*
X4106786Y-8132357D01*
X4221071Y-8075214D02*
X4221071Y-8132357D01*
X4663928Y-8489500D02*
X4649643Y-8475214D01*
X4621071Y-8432357D01*
X4606786Y-8403786D01*
X4592500Y-8360929D01*
X4578214Y-8289500D01*
X4578214Y-8232357D01*
X4592500Y-8160929D01*
X4606786Y-8118071D01*
X4621071Y-8089500D01*
X4649643Y-8046643D01*
X4663928Y-8032357D01*
X4763928Y-8103786D02*
X4778214Y-8089500D01*
X4806786Y-8075214D01*
X4878214Y-8075214D01*
X4906786Y-8089500D01*
X4921071Y-8103786D01*
X4935357Y-8132357D01*
X4935357Y-8160929D01*
X4921071Y-8203786D01*
X4749643Y-8375214D01*
X4935357Y-8375214D01*
X5292500Y-8375214D02*
X5292500Y-8075214D01*
X5421071Y-8375214D02*
X5421071Y-8218071D01*
X5406786Y-8189500D01*
X5378214Y-8175214D01*
X5335357Y-8175214D01*
X5306786Y-8189500D01*
X5292500Y-8203786D01*
X5606785Y-8375214D02*
X5578214Y-8360929D01*
X5563928Y-8346643D01*
X5549643Y-8318071D01*
X5549643Y-8232357D01*
X5563928Y-8203786D01*
X5578214Y-8189500D01*
X5606785Y-8175214D01*
X5649643Y-8175214D01*
X5678214Y-8189500D01*
X5692500Y-8203786D01*
X5706785Y-8232357D01*
X5706785Y-8318071D01*
X5692500Y-8346643D01*
X5678214Y-8360929D01*
X5649643Y-8375214D01*
X5606785Y-8375214D01*
X5878214Y-8375214D02*
X5849643Y-8360929D01*
X5835357Y-8332357D01*
X5835357Y-8075214D01*
X6106786Y-8360929D02*
X6078214Y-8375214D01*
X6021071Y-8375214D01*
X5992500Y-8360929D01*
X5978214Y-8332357D01*
X5978214Y-8218071D01*
X5992500Y-8189500D01*
X6021071Y-8175214D01*
X6078214Y-8175214D01*
X6106786Y-8189500D01*
X6121071Y-8218071D01*
X6121071Y-8246643D01*
X5978214Y-8275214D01*
X6235357Y-8360929D02*
X6263928Y-8375214D01*
X6321071Y-8375214D01*
X6349643Y-8360929D01*
X6363928Y-8332357D01*
X6363928Y-8318071D01*
X6349643Y-8289500D01*
X6321071Y-8275214D01*
X6278214Y-8275214D01*
X6249643Y-8260929D01*
X6235357Y-8232357D01*
X6235357Y-8218071D01*
X6249643Y-8189500D01*
X6278214Y-8175214D01*
X6321071Y-8175214D01*
X6349643Y-8189500D01*
X6463928Y-8489500D02*
X6478214Y-8475214D01*
X6506786Y-8432357D01*
X6521071Y-8403786D01*
X6535357Y-8360929D01*
X6549643Y-8289500D01*
X6549643Y-8232357D01*
X6535357Y-8160929D01*
X6521071Y-8118071D01*
X6506786Y-8089500D01*
X6478214Y-8046643D01*
X6463928Y-8032357D01*
M02*
