G04 #@! TF.FileFunction,Copper,L2,Bot,Signal*
%FSLAX46Y46*%
G04 Gerber Fmt 4.6, Leading zero omitted, Abs format (unit mm)*
G04 Created by KiCad (PCBNEW 4.0.2+dfsg1-stable) date Mon 20 Nov 2017 03:31:45 PM CST*
%MOMM*%
G01*
G04 APERTURE LIST*
%ADD10C,0.100000*%
%ADD11C,4.064000*%
%ADD12C,1.600200*%
%ADD13R,1.727200X2.032000*%
%ADD14O,1.727200X2.032000*%
%ADD15C,1.524000*%
%ADD16C,2.700020*%
%ADD17R,2.032000X1.727200*%
%ADD18O,2.032000X1.727200*%
%ADD19C,0.600000*%
%ADD20C,0.250000*%
%ADD21C,0.254000*%
G04 APERTURE END LIST*
D10*
D11*
X149659340Y-109220000D03*
X124660660Y-109220000D03*
D12*
X132330000Y-111760000D03*
X133475000Y-109220000D03*
X134620000Y-111760000D03*
X136910000Y-111760000D03*
X139200000Y-111760000D03*
X141490000Y-111760000D03*
X135765000Y-109220000D03*
X138055000Y-109220000D03*
X140345000Y-109220000D03*
X142635000Y-109220000D03*
X132330000Y-106680000D03*
X134620000Y-106680000D03*
X136910000Y-106680000D03*
X139200000Y-106680000D03*
X141490000Y-106680000D03*
D13*
X138430000Y-55880000D03*
D14*
X135890000Y-55880000D03*
X133350000Y-55880000D03*
D15*
X138430000Y-50800000D03*
X135890000Y-50800000D03*
X135890000Y-48801020D03*
X138430000Y-48801020D03*
D16*
X143159480Y-46101000D03*
X131160520Y-46101000D03*
D17*
X148590000Y-73660000D03*
D18*
X148590000Y-76200000D03*
X148590000Y-78740000D03*
X148590000Y-81280000D03*
X148590000Y-83820000D03*
D19*
X139926200Y-75713000D03*
X134933300Y-100916100D03*
X136937100Y-104037800D03*
X127838100Y-103730800D03*
X143975900Y-102602600D03*
X126674900Y-92824400D03*
X141228300Y-75011100D03*
X127421800Y-92401700D03*
X139904600Y-77448100D03*
X145074600Y-90785400D03*
X136755300Y-82962500D03*
X145724900Y-91270400D03*
X138170800Y-83118900D03*
X146426500Y-89330100D03*
X136946600Y-80365000D03*
X147066400Y-89835200D03*
X138196400Y-80215500D03*
X148325800Y-89460500D03*
X137832900Y-79181200D03*
D20*
X138590000Y-46101000D02*
X135890000Y-48801000D01*
X143159500Y-46101000D02*
X138590000Y-46101000D01*
X133190000Y-46101000D02*
X131160500Y-46101000D01*
X135890000Y-48801000D02*
X133190000Y-46101000D01*
X133350000Y-51341000D02*
X133350000Y-55880000D01*
X135890000Y-48801000D02*
X133350000Y-51341000D01*
X141764300Y-77551100D02*
X139926200Y-75713000D01*
X148590000Y-77551100D02*
X141764300Y-77551100D01*
X148590000Y-78740000D02*
X148590000Y-77551100D01*
X138055000Y-104037800D02*
X134933300Y-100916100D01*
X138055000Y-107144800D02*
X138055000Y-104037800D01*
X140130200Y-109220000D02*
X138055000Y-107144800D01*
X140345000Y-109220000D02*
X140130200Y-109220000D01*
X135890000Y-55880000D02*
X135377700Y-55880000D01*
X135377700Y-55880000D02*
X134701100Y-55880000D01*
X135377700Y-51312300D02*
X135890000Y-50800000D01*
X135377700Y-55880000D02*
X135377700Y-51312300D01*
X133811400Y-100916100D02*
X134933300Y-100916100D01*
X126023900Y-93128600D02*
X133811400Y-100916100D01*
X126023900Y-65746100D02*
X126023900Y-93128600D01*
X134701100Y-57068900D02*
X126023900Y-65746100D01*
X134701100Y-55880000D02*
X134701100Y-57068900D01*
X138430000Y-62311100D02*
X148590000Y-72471100D01*
X138430000Y-55880000D02*
X138430000Y-62311100D01*
X148590000Y-73660000D02*
X148590000Y-72471100D01*
X135765000Y-105209900D02*
X136937100Y-104037800D01*
X135765000Y-107144800D02*
X135765000Y-105209900D01*
X133689800Y-109220000D02*
X135765000Y-107144800D01*
X133475000Y-109220000D02*
X133689800Y-109220000D01*
X138074500Y-110634500D02*
X139200000Y-111760000D01*
X133224300Y-110634500D02*
X138074500Y-110634500D01*
X127838100Y-105248300D02*
X133224300Y-110634500D01*
X127838100Y-103730800D02*
X127838100Y-105248300D01*
X143975900Y-107879100D02*
X143975900Y-102602600D01*
X142635000Y-109220000D02*
X143975900Y-107879100D01*
X148590000Y-76200000D02*
X148590000Y-75011100D01*
X148590000Y-75011100D02*
X141228300Y-75011100D01*
X139728500Y-75011100D02*
X141228300Y-75011100D01*
X126674900Y-88064700D02*
X139728500Y-75011100D01*
X126674900Y-92824400D02*
X126674900Y-88064700D01*
X148590000Y-81280000D02*
X148590000Y-80091100D01*
X141128700Y-80091100D02*
X139571000Y-78533400D01*
X148590000Y-80091100D02*
X141128700Y-80091100D01*
X139571000Y-77781700D02*
X139904600Y-77448100D01*
X139571000Y-78533400D02*
X139571000Y-77781700D01*
X127421800Y-88681400D02*
X127421800Y-92401700D01*
X137569800Y-78533400D02*
X127421800Y-88681400D01*
X139571000Y-78533400D02*
X137569800Y-78533400D01*
X144578200Y-90785400D02*
X145074600Y-90785400D01*
X136755300Y-82962500D02*
X144578200Y-90785400D01*
X145724900Y-90481700D02*
X145724900Y-91270400D01*
X138362100Y-83118900D02*
X145724900Y-90481700D01*
X138170800Y-83118900D02*
X138362100Y-83118900D01*
X137461400Y-80365000D02*
X136946600Y-80365000D01*
X146426500Y-89330100D02*
X137461400Y-80365000D01*
X147066400Y-89085500D02*
X147066400Y-89835200D01*
X138196400Y-80215500D02*
X147066400Y-89085500D01*
X138046500Y-79181200D02*
X148325800Y-89460500D01*
X137832900Y-79181200D02*
X138046500Y-79181200D01*
D21*
G36*
X129451730Y-47185528D02*
X129754919Y-47326996D01*
X129964915Y-47117000D01*
X130324125Y-47117000D01*
X129934524Y-47506601D01*
X130075992Y-47809790D01*
X130812472Y-48094747D01*
X131601940Y-48076174D01*
X132218450Y-47820807D01*
X135089392Y-47820807D01*
X135890000Y-48621415D01*
X136690608Y-47820807D01*
X136621143Y-47578623D01*
X136097698Y-47391876D01*
X135542632Y-47419658D01*
X135158857Y-47578623D01*
X135089392Y-47820807D01*
X132218450Y-47820807D01*
X132245048Y-47809790D01*
X132386516Y-47506601D01*
X131996915Y-47117000D01*
X132356125Y-47117000D01*
X132566121Y-47326996D01*
X132869310Y-47185528D01*
X132895825Y-47117000D01*
X141422305Y-47117000D01*
X141450690Y-47185528D01*
X141753879Y-47326996D01*
X141963875Y-47117000D01*
X142323085Y-47117000D01*
X141933484Y-47506601D01*
X142074952Y-47809790D01*
X142811432Y-48094747D01*
X143600900Y-48076174D01*
X144244008Y-47809790D01*
X144385476Y-47506601D01*
X143995875Y-47117000D01*
X144355085Y-47117000D01*
X144565081Y-47326996D01*
X144868270Y-47185528D01*
X144894785Y-47117000D01*
X152347394Y-47117000D01*
X154813000Y-49582606D01*
X154813000Y-109167394D01*
X152347394Y-111633000D01*
X150803357Y-111633000D01*
X151168101Y-111482291D01*
X151918995Y-110732707D01*
X152325876Y-109752827D01*
X152326802Y-108691828D01*
X151921631Y-107711239D01*
X151172047Y-106960345D01*
X150192167Y-106553464D01*
X149131168Y-106552538D01*
X148150579Y-106957709D01*
X147399685Y-107707293D01*
X146992804Y-108687173D01*
X146991878Y-109748172D01*
X147397049Y-110728761D01*
X148146633Y-111479655D01*
X148515929Y-111633000D01*
X142925211Y-111633000D01*
X142925348Y-111475793D01*
X142707328Y-110948143D01*
X142414604Y-110654908D01*
X142919207Y-110655348D01*
X143446857Y-110437328D01*
X143850909Y-110033980D01*
X144069850Y-109506711D01*
X144070348Y-108935793D01*
X144048028Y-108881774D01*
X144513301Y-108416501D01*
X144678048Y-108169939D01*
X144735900Y-107879100D01*
X144735900Y-103165063D01*
X144768092Y-103132927D01*
X144910738Y-102789399D01*
X144911062Y-102417433D01*
X144769017Y-102073657D01*
X144506227Y-101810408D01*
X144162699Y-101667762D01*
X143790733Y-101667438D01*
X143446957Y-101809483D01*
X143183708Y-102072273D01*
X143041062Y-102415801D01*
X143040738Y-102787767D01*
X143182783Y-103131543D01*
X143215900Y-103164718D01*
X143215900Y-107564298D01*
X142973531Y-107806667D01*
X142921711Y-107785150D01*
X142414674Y-107784708D01*
X142705909Y-107493980D01*
X142924850Y-106966711D01*
X142925348Y-106395793D01*
X142707328Y-105868143D01*
X142303980Y-105464091D01*
X141776711Y-105245150D01*
X141205793Y-105244652D01*
X140678143Y-105462672D01*
X140344773Y-105795461D01*
X140013980Y-105464091D01*
X139486711Y-105245150D01*
X138915793Y-105244652D01*
X138815000Y-105286299D01*
X138815000Y-104037800D01*
X138757148Y-103746961D01*
X138757148Y-103746960D01*
X138592401Y-103500399D01*
X135868422Y-100776420D01*
X135868462Y-100730933D01*
X135726417Y-100387157D01*
X135463627Y-100123908D01*
X135120099Y-99981262D01*
X134748133Y-99980938D01*
X134404357Y-100122983D01*
X134371182Y-100156100D01*
X134126202Y-100156100D01*
X127395898Y-93425796D01*
X127467092Y-93354727D01*
X127474558Y-93336747D01*
X127606967Y-93336862D01*
X127950743Y-93194817D01*
X128213992Y-92932027D01*
X128356638Y-92588499D01*
X128356962Y-92216533D01*
X128214917Y-91872757D01*
X128181800Y-91839582D01*
X128181800Y-88996202D01*
X136218714Y-80959288D01*
X136416273Y-81157192D01*
X136759801Y-81299838D01*
X137131767Y-81300162D01*
X137266210Y-81244612D01*
X138205528Y-82183930D01*
X137985633Y-82183738D01*
X137641857Y-82325783D01*
X137541169Y-82426296D01*
X137285627Y-82170308D01*
X136942099Y-82027662D01*
X136570133Y-82027338D01*
X136226357Y-82169383D01*
X135963108Y-82432173D01*
X135820462Y-82775701D01*
X135820138Y-83147667D01*
X135962183Y-83491443D01*
X136224973Y-83754692D01*
X136568501Y-83897338D01*
X136615377Y-83897379D01*
X144040799Y-91322801D01*
X144287360Y-91487548D01*
X144495769Y-91529003D01*
X144544273Y-91577592D01*
X144887801Y-91720238D01*
X144899102Y-91720248D01*
X144931783Y-91799343D01*
X145194573Y-92062592D01*
X145538101Y-92205238D01*
X145910067Y-92205562D01*
X146253843Y-92063517D01*
X146517092Y-91800727D01*
X146659738Y-91457199D01*
X146660062Y-91085233D01*
X146518017Y-90741457D01*
X146484900Y-90708282D01*
X146484900Y-90576130D01*
X146536073Y-90627392D01*
X146879601Y-90770038D01*
X147251567Y-90770362D01*
X147595343Y-90628317D01*
X147858592Y-90365527D01*
X147889272Y-90291641D01*
X148139001Y-90395338D01*
X148510967Y-90395662D01*
X148854743Y-90253617D01*
X149117992Y-89990827D01*
X149260638Y-89647299D01*
X149260962Y-89275333D01*
X149118917Y-88931557D01*
X148856127Y-88668308D01*
X148512599Y-88525662D01*
X148465723Y-88525621D01*
X139233502Y-79293400D01*
X139256198Y-79293400D01*
X140591299Y-80628501D01*
X140837860Y-80793248D01*
X140886114Y-80802846D01*
X141128700Y-80851100D01*
X146991968Y-80851100D01*
X146906655Y-81280000D01*
X147020729Y-81853489D01*
X147345585Y-82339670D01*
X147660366Y-82550000D01*
X147345585Y-82760330D01*
X147020729Y-83246511D01*
X146906655Y-83820000D01*
X147020729Y-84393489D01*
X147345585Y-84879670D01*
X147831766Y-85204526D01*
X148405255Y-85318600D01*
X148774745Y-85318600D01*
X149348234Y-85204526D01*
X149834415Y-84879670D01*
X150159271Y-84393489D01*
X150273345Y-83820000D01*
X150159271Y-83246511D01*
X149834415Y-82760330D01*
X149519634Y-82550000D01*
X149834415Y-82339670D01*
X150159271Y-81853489D01*
X150273345Y-81280000D01*
X150159271Y-80706511D01*
X149834415Y-80220330D01*
X149524931Y-80013539D01*
X149940732Y-79642036D01*
X150194709Y-79114791D01*
X150197358Y-79099026D01*
X150076217Y-78867000D01*
X148717000Y-78867000D01*
X148717000Y-78887000D01*
X148463000Y-78887000D01*
X148463000Y-78867000D01*
X147103783Y-78867000D01*
X146982642Y-79099026D01*
X146985291Y-79114791D01*
X147089488Y-79331100D01*
X141443502Y-79331100D01*
X140376987Y-78264585D01*
X140433543Y-78241217D01*
X140696792Y-77978427D01*
X140839438Y-77634899D01*
X140839762Y-77262933D01*
X140697717Y-76919157D01*
X140434927Y-76655908D01*
X140091399Y-76513262D01*
X139719433Y-76512938D01*
X139375657Y-76654983D01*
X139112408Y-76917773D01*
X138969762Y-77261301D01*
X138969694Y-77339941D01*
X138868852Y-77490861D01*
X138812651Y-77773400D01*
X138041002Y-77773400D01*
X140043302Y-75771100D01*
X140665837Y-75771100D01*
X140697973Y-75803292D01*
X141041501Y-75945938D01*
X141413467Y-75946262D01*
X141757243Y-75804217D01*
X141790418Y-75771100D01*
X146991968Y-75771100D01*
X146906655Y-76200000D01*
X147020729Y-76773489D01*
X147345585Y-77259670D01*
X147655069Y-77466461D01*
X147239268Y-77837964D01*
X146985291Y-78365209D01*
X146982642Y-78380974D01*
X147103783Y-78613000D01*
X148463000Y-78613000D01*
X148463000Y-78593000D01*
X148717000Y-78593000D01*
X148717000Y-78613000D01*
X150076217Y-78613000D01*
X150197358Y-78380974D01*
X150194709Y-78365209D01*
X149940732Y-77837964D01*
X149524931Y-77466461D01*
X149834415Y-77259670D01*
X150159271Y-76773489D01*
X150273345Y-76200000D01*
X150159271Y-75626511D01*
X149834415Y-75140330D01*
X149820087Y-75130757D01*
X149841317Y-75126762D01*
X150057441Y-74987690D01*
X150202431Y-74775490D01*
X150253440Y-74523600D01*
X150253440Y-72796400D01*
X150209162Y-72561083D01*
X150070090Y-72344959D01*
X149857890Y-72199969D01*
X149606000Y-72148960D01*
X149271233Y-72148960D01*
X149127401Y-71933699D01*
X139190000Y-61996298D01*
X139190000Y-57543440D01*
X139293600Y-57543440D01*
X139528917Y-57499162D01*
X139745041Y-57360090D01*
X139890031Y-57147890D01*
X139941040Y-56896000D01*
X139941040Y-54864000D01*
X139896762Y-54628683D01*
X139757690Y-54412559D01*
X139545490Y-54267569D01*
X139293600Y-54216560D01*
X137566400Y-54216560D01*
X137331083Y-54260838D01*
X137114959Y-54399910D01*
X136969969Y-54612110D01*
X136961600Y-54653439D01*
X136949670Y-54635585D01*
X136463489Y-54310729D01*
X136137700Y-54245926D01*
X136137700Y-52197217D01*
X136166661Y-52197242D01*
X136680303Y-51985010D01*
X137073629Y-51592370D01*
X137159949Y-51384488D01*
X137244990Y-51590303D01*
X137637630Y-51983629D01*
X138150900Y-52196757D01*
X138706661Y-52197242D01*
X139220303Y-51985010D01*
X139613629Y-51592370D01*
X139826757Y-51079100D01*
X139827242Y-50523339D01*
X139615010Y-50009697D01*
X139406168Y-49800490D01*
X139613629Y-49593390D01*
X139826757Y-49080120D01*
X139827242Y-48524359D01*
X139615010Y-48010717D01*
X139222370Y-47617391D01*
X138709100Y-47404263D01*
X138153339Y-47403778D01*
X137639697Y-47616010D01*
X137246371Y-48008650D01*
X137166605Y-48200747D01*
X137112397Y-48069877D01*
X136870213Y-48000412D01*
X136069605Y-48801020D01*
X136870213Y-49601628D01*
X137112397Y-49532163D01*
X137162509Y-49391702D01*
X137244990Y-49591323D01*
X137453832Y-49800530D01*
X137246371Y-50007630D01*
X137160051Y-50215512D01*
X137075010Y-50009697D01*
X136682370Y-49616371D01*
X136414529Y-49505154D01*
X135890000Y-48980625D01*
X135365436Y-49505189D01*
X135099697Y-49614990D01*
X134706371Y-50007630D01*
X134493243Y-50520900D01*
X134492758Y-51076661D01*
X134617700Y-51379045D01*
X134617700Y-54938534D01*
X134252036Y-54529268D01*
X133724791Y-54275291D01*
X133709026Y-54272642D01*
X133477000Y-54393783D01*
X133477000Y-55753000D01*
X133497000Y-55753000D01*
X133497000Y-56007000D01*
X133477000Y-56007000D01*
X133477000Y-56027000D01*
X133223000Y-56027000D01*
X133223000Y-56007000D01*
X132009076Y-56007000D01*
X131864816Y-56241913D01*
X132058046Y-56794320D01*
X132447964Y-57230732D01*
X132975209Y-57484709D01*
X132990974Y-57487358D01*
X133222998Y-57366218D01*
X133222998Y-57472200D01*
X125486499Y-65208699D01*
X125321752Y-65455261D01*
X125263900Y-65746100D01*
X125263900Y-93128600D01*
X125321752Y-93419439D01*
X125486499Y-93666001D01*
X133273999Y-101453501D01*
X133520561Y-101618248D01*
X133811400Y-101676100D01*
X134370837Y-101676100D01*
X134402973Y-101708292D01*
X134746501Y-101850938D01*
X134793377Y-101850979D01*
X136297523Y-103355125D01*
X136144908Y-103507473D01*
X136002262Y-103851001D01*
X136002221Y-103897877D01*
X135227599Y-104672499D01*
X135062852Y-104919061D01*
X135005000Y-105209900D01*
X135005000Y-105285963D01*
X134906711Y-105245150D01*
X134335793Y-105244652D01*
X133808143Y-105462672D01*
X133474773Y-105795461D01*
X133143980Y-105464091D01*
X132616711Y-105245150D01*
X132045793Y-105244652D01*
X131518143Y-105462672D01*
X131114091Y-105866020D01*
X130895150Y-106393289D01*
X130894652Y-106964207D01*
X131081840Y-107417238D01*
X128598100Y-104933498D01*
X128598100Y-104293263D01*
X128630292Y-104261127D01*
X128772938Y-103917599D01*
X128773262Y-103545633D01*
X128631217Y-103201857D01*
X128368427Y-102938608D01*
X128024899Y-102795962D01*
X127652933Y-102795638D01*
X127309157Y-102937683D01*
X127045908Y-103200473D01*
X126903262Y-103544001D01*
X126902938Y-103915967D01*
X127044983Y-104259743D01*
X127078100Y-104292918D01*
X127078100Y-105248300D01*
X127135952Y-105539139D01*
X127300699Y-105785701D01*
X131899922Y-110384924D01*
X131518143Y-110542672D01*
X131114091Y-110946020D01*
X130895150Y-111473289D01*
X130895011Y-111633000D01*
X125804677Y-111633000D01*
X126169421Y-111482291D01*
X126920315Y-110732707D01*
X127327196Y-109752827D01*
X127328122Y-108691828D01*
X126922951Y-107711239D01*
X126173367Y-106960345D01*
X125193487Y-106553464D01*
X124132488Y-106552538D01*
X123151899Y-106957709D01*
X122401005Y-107707293D01*
X121994124Y-108687173D01*
X121993198Y-109748172D01*
X122398369Y-110728761D01*
X123147953Y-111479655D01*
X123517249Y-111633000D01*
X120702606Y-111633000D01*
X119507000Y-110437394D01*
X119507000Y-55518087D01*
X131864816Y-55518087D01*
X132009076Y-55753000D01*
X133223000Y-55753000D01*
X133223000Y-54393783D01*
X132990974Y-54272642D01*
X132975209Y-54275291D01*
X132447964Y-54529268D01*
X132058046Y-54965680D01*
X131864816Y-55518087D01*
X119507000Y-55518087D01*
X119507000Y-49582606D01*
X120496284Y-48593322D01*
X134480856Y-48593322D01*
X134508638Y-49148388D01*
X134667603Y-49532163D01*
X134909787Y-49601628D01*
X135710395Y-48801020D01*
X134909787Y-48000412D01*
X134667603Y-48069877D01*
X134480856Y-48593322D01*
X120496284Y-48593322D01*
X121972606Y-47117000D01*
X129423345Y-47117000D01*
X129451730Y-47185528D01*
X129451730Y-47185528D01*
G37*
X129451730Y-47185528D02*
X129754919Y-47326996D01*
X129964915Y-47117000D01*
X130324125Y-47117000D01*
X129934524Y-47506601D01*
X130075992Y-47809790D01*
X130812472Y-48094747D01*
X131601940Y-48076174D01*
X132218450Y-47820807D01*
X135089392Y-47820807D01*
X135890000Y-48621415D01*
X136690608Y-47820807D01*
X136621143Y-47578623D01*
X136097698Y-47391876D01*
X135542632Y-47419658D01*
X135158857Y-47578623D01*
X135089392Y-47820807D01*
X132218450Y-47820807D01*
X132245048Y-47809790D01*
X132386516Y-47506601D01*
X131996915Y-47117000D01*
X132356125Y-47117000D01*
X132566121Y-47326996D01*
X132869310Y-47185528D01*
X132895825Y-47117000D01*
X141422305Y-47117000D01*
X141450690Y-47185528D01*
X141753879Y-47326996D01*
X141963875Y-47117000D01*
X142323085Y-47117000D01*
X141933484Y-47506601D01*
X142074952Y-47809790D01*
X142811432Y-48094747D01*
X143600900Y-48076174D01*
X144244008Y-47809790D01*
X144385476Y-47506601D01*
X143995875Y-47117000D01*
X144355085Y-47117000D01*
X144565081Y-47326996D01*
X144868270Y-47185528D01*
X144894785Y-47117000D01*
X152347394Y-47117000D01*
X154813000Y-49582606D01*
X154813000Y-109167394D01*
X152347394Y-111633000D01*
X150803357Y-111633000D01*
X151168101Y-111482291D01*
X151918995Y-110732707D01*
X152325876Y-109752827D01*
X152326802Y-108691828D01*
X151921631Y-107711239D01*
X151172047Y-106960345D01*
X150192167Y-106553464D01*
X149131168Y-106552538D01*
X148150579Y-106957709D01*
X147399685Y-107707293D01*
X146992804Y-108687173D01*
X146991878Y-109748172D01*
X147397049Y-110728761D01*
X148146633Y-111479655D01*
X148515929Y-111633000D01*
X142925211Y-111633000D01*
X142925348Y-111475793D01*
X142707328Y-110948143D01*
X142414604Y-110654908D01*
X142919207Y-110655348D01*
X143446857Y-110437328D01*
X143850909Y-110033980D01*
X144069850Y-109506711D01*
X144070348Y-108935793D01*
X144048028Y-108881774D01*
X144513301Y-108416501D01*
X144678048Y-108169939D01*
X144735900Y-107879100D01*
X144735900Y-103165063D01*
X144768092Y-103132927D01*
X144910738Y-102789399D01*
X144911062Y-102417433D01*
X144769017Y-102073657D01*
X144506227Y-101810408D01*
X144162699Y-101667762D01*
X143790733Y-101667438D01*
X143446957Y-101809483D01*
X143183708Y-102072273D01*
X143041062Y-102415801D01*
X143040738Y-102787767D01*
X143182783Y-103131543D01*
X143215900Y-103164718D01*
X143215900Y-107564298D01*
X142973531Y-107806667D01*
X142921711Y-107785150D01*
X142414674Y-107784708D01*
X142705909Y-107493980D01*
X142924850Y-106966711D01*
X142925348Y-106395793D01*
X142707328Y-105868143D01*
X142303980Y-105464091D01*
X141776711Y-105245150D01*
X141205793Y-105244652D01*
X140678143Y-105462672D01*
X140344773Y-105795461D01*
X140013980Y-105464091D01*
X139486711Y-105245150D01*
X138915793Y-105244652D01*
X138815000Y-105286299D01*
X138815000Y-104037800D01*
X138757148Y-103746961D01*
X138757148Y-103746960D01*
X138592401Y-103500399D01*
X135868422Y-100776420D01*
X135868462Y-100730933D01*
X135726417Y-100387157D01*
X135463627Y-100123908D01*
X135120099Y-99981262D01*
X134748133Y-99980938D01*
X134404357Y-100122983D01*
X134371182Y-100156100D01*
X134126202Y-100156100D01*
X127395898Y-93425796D01*
X127467092Y-93354727D01*
X127474558Y-93336747D01*
X127606967Y-93336862D01*
X127950743Y-93194817D01*
X128213992Y-92932027D01*
X128356638Y-92588499D01*
X128356962Y-92216533D01*
X128214917Y-91872757D01*
X128181800Y-91839582D01*
X128181800Y-88996202D01*
X136218714Y-80959288D01*
X136416273Y-81157192D01*
X136759801Y-81299838D01*
X137131767Y-81300162D01*
X137266210Y-81244612D01*
X138205528Y-82183930D01*
X137985633Y-82183738D01*
X137641857Y-82325783D01*
X137541169Y-82426296D01*
X137285627Y-82170308D01*
X136942099Y-82027662D01*
X136570133Y-82027338D01*
X136226357Y-82169383D01*
X135963108Y-82432173D01*
X135820462Y-82775701D01*
X135820138Y-83147667D01*
X135962183Y-83491443D01*
X136224973Y-83754692D01*
X136568501Y-83897338D01*
X136615377Y-83897379D01*
X144040799Y-91322801D01*
X144287360Y-91487548D01*
X144495769Y-91529003D01*
X144544273Y-91577592D01*
X144887801Y-91720238D01*
X144899102Y-91720248D01*
X144931783Y-91799343D01*
X145194573Y-92062592D01*
X145538101Y-92205238D01*
X145910067Y-92205562D01*
X146253843Y-92063517D01*
X146517092Y-91800727D01*
X146659738Y-91457199D01*
X146660062Y-91085233D01*
X146518017Y-90741457D01*
X146484900Y-90708282D01*
X146484900Y-90576130D01*
X146536073Y-90627392D01*
X146879601Y-90770038D01*
X147251567Y-90770362D01*
X147595343Y-90628317D01*
X147858592Y-90365527D01*
X147889272Y-90291641D01*
X148139001Y-90395338D01*
X148510967Y-90395662D01*
X148854743Y-90253617D01*
X149117992Y-89990827D01*
X149260638Y-89647299D01*
X149260962Y-89275333D01*
X149118917Y-88931557D01*
X148856127Y-88668308D01*
X148512599Y-88525662D01*
X148465723Y-88525621D01*
X139233502Y-79293400D01*
X139256198Y-79293400D01*
X140591299Y-80628501D01*
X140837860Y-80793248D01*
X140886114Y-80802846D01*
X141128700Y-80851100D01*
X146991968Y-80851100D01*
X146906655Y-81280000D01*
X147020729Y-81853489D01*
X147345585Y-82339670D01*
X147660366Y-82550000D01*
X147345585Y-82760330D01*
X147020729Y-83246511D01*
X146906655Y-83820000D01*
X147020729Y-84393489D01*
X147345585Y-84879670D01*
X147831766Y-85204526D01*
X148405255Y-85318600D01*
X148774745Y-85318600D01*
X149348234Y-85204526D01*
X149834415Y-84879670D01*
X150159271Y-84393489D01*
X150273345Y-83820000D01*
X150159271Y-83246511D01*
X149834415Y-82760330D01*
X149519634Y-82550000D01*
X149834415Y-82339670D01*
X150159271Y-81853489D01*
X150273345Y-81280000D01*
X150159271Y-80706511D01*
X149834415Y-80220330D01*
X149524931Y-80013539D01*
X149940732Y-79642036D01*
X150194709Y-79114791D01*
X150197358Y-79099026D01*
X150076217Y-78867000D01*
X148717000Y-78867000D01*
X148717000Y-78887000D01*
X148463000Y-78887000D01*
X148463000Y-78867000D01*
X147103783Y-78867000D01*
X146982642Y-79099026D01*
X146985291Y-79114791D01*
X147089488Y-79331100D01*
X141443502Y-79331100D01*
X140376987Y-78264585D01*
X140433543Y-78241217D01*
X140696792Y-77978427D01*
X140839438Y-77634899D01*
X140839762Y-77262933D01*
X140697717Y-76919157D01*
X140434927Y-76655908D01*
X140091399Y-76513262D01*
X139719433Y-76512938D01*
X139375657Y-76654983D01*
X139112408Y-76917773D01*
X138969762Y-77261301D01*
X138969694Y-77339941D01*
X138868852Y-77490861D01*
X138812651Y-77773400D01*
X138041002Y-77773400D01*
X140043302Y-75771100D01*
X140665837Y-75771100D01*
X140697973Y-75803292D01*
X141041501Y-75945938D01*
X141413467Y-75946262D01*
X141757243Y-75804217D01*
X141790418Y-75771100D01*
X146991968Y-75771100D01*
X146906655Y-76200000D01*
X147020729Y-76773489D01*
X147345585Y-77259670D01*
X147655069Y-77466461D01*
X147239268Y-77837964D01*
X146985291Y-78365209D01*
X146982642Y-78380974D01*
X147103783Y-78613000D01*
X148463000Y-78613000D01*
X148463000Y-78593000D01*
X148717000Y-78593000D01*
X148717000Y-78613000D01*
X150076217Y-78613000D01*
X150197358Y-78380974D01*
X150194709Y-78365209D01*
X149940732Y-77837964D01*
X149524931Y-77466461D01*
X149834415Y-77259670D01*
X150159271Y-76773489D01*
X150273345Y-76200000D01*
X150159271Y-75626511D01*
X149834415Y-75140330D01*
X149820087Y-75130757D01*
X149841317Y-75126762D01*
X150057441Y-74987690D01*
X150202431Y-74775490D01*
X150253440Y-74523600D01*
X150253440Y-72796400D01*
X150209162Y-72561083D01*
X150070090Y-72344959D01*
X149857890Y-72199969D01*
X149606000Y-72148960D01*
X149271233Y-72148960D01*
X149127401Y-71933699D01*
X139190000Y-61996298D01*
X139190000Y-57543440D01*
X139293600Y-57543440D01*
X139528917Y-57499162D01*
X139745041Y-57360090D01*
X139890031Y-57147890D01*
X139941040Y-56896000D01*
X139941040Y-54864000D01*
X139896762Y-54628683D01*
X139757690Y-54412559D01*
X139545490Y-54267569D01*
X139293600Y-54216560D01*
X137566400Y-54216560D01*
X137331083Y-54260838D01*
X137114959Y-54399910D01*
X136969969Y-54612110D01*
X136961600Y-54653439D01*
X136949670Y-54635585D01*
X136463489Y-54310729D01*
X136137700Y-54245926D01*
X136137700Y-52197217D01*
X136166661Y-52197242D01*
X136680303Y-51985010D01*
X137073629Y-51592370D01*
X137159949Y-51384488D01*
X137244990Y-51590303D01*
X137637630Y-51983629D01*
X138150900Y-52196757D01*
X138706661Y-52197242D01*
X139220303Y-51985010D01*
X139613629Y-51592370D01*
X139826757Y-51079100D01*
X139827242Y-50523339D01*
X139615010Y-50009697D01*
X139406168Y-49800490D01*
X139613629Y-49593390D01*
X139826757Y-49080120D01*
X139827242Y-48524359D01*
X139615010Y-48010717D01*
X139222370Y-47617391D01*
X138709100Y-47404263D01*
X138153339Y-47403778D01*
X137639697Y-47616010D01*
X137246371Y-48008650D01*
X137166605Y-48200747D01*
X137112397Y-48069877D01*
X136870213Y-48000412D01*
X136069605Y-48801020D01*
X136870213Y-49601628D01*
X137112397Y-49532163D01*
X137162509Y-49391702D01*
X137244990Y-49591323D01*
X137453832Y-49800530D01*
X137246371Y-50007630D01*
X137160051Y-50215512D01*
X137075010Y-50009697D01*
X136682370Y-49616371D01*
X136414529Y-49505154D01*
X135890000Y-48980625D01*
X135365436Y-49505189D01*
X135099697Y-49614990D01*
X134706371Y-50007630D01*
X134493243Y-50520900D01*
X134492758Y-51076661D01*
X134617700Y-51379045D01*
X134617700Y-54938534D01*
X134252036Y-54529268D01*
X133724791Y-54275291D01*
X133709026Y-54272642D01*
X133477000Y-54393783D01*
X133477000Y-55753000D01*
X133497000Y-55753000D01*
X133497000Y-56007000D01*
X133477000Y-56007000D01*
X133477000Y-56027000D01*
X133223000Y-56027000D01*
X133223000Y-56007000D01*
X132009076Y-56007000D01*
X131864816Y-56241913D01*
X132058046Y-56794320D01*
X132447964Y-57230732D01*
X132975209Y-57484709D01*
X132990974Y-57487358D01*
X133222998Y-57366218D01*
X133222998Y-57472200D01*
X125486499Y-65208699D01*
X125321752Y-65455261D01*
X125263900Y-65746100D01*
X125263900Y-93128600D01*
X125321752Y-93419439D01*
X125486499Y-93666001D01*
X133273999Y-101453501D01*
X133520561Y-101618248D01*
X133811400Y-101676100D01*
X134370837Y-101676100D01*
X134402973Y-101708292D01*
X134746501Y-101850938D01*
X134793377Y-101850979D01*
X136297523Y-103355125D01*
X136144908Y-103507473D01*
X136002262Y-103851001D01*
X136002221Y-103897877D01*
X135227599Y-104672499D01*
X135062852Y-104919061D01*
X135005000Y-105209900D01*
X135005000Y-105285963D01*
X134906711Y-105245150D01*
X134335793Y-105244652D01*
X133808143Y-105462672D01*
X133474773Y-105795461D01*
X133143980Y-105464091D01*
X132616711Y-105245150D01*
X132045793Y-105244652D01*
X131518143Y-105462672D01*
X131114091Y-105866020D01*
X130895150Y-106393289D01*
X130894652Y-106964207D01*
X131081840Y-107417238D01*
X128598100Y-104933498D01*
X128598100Y-104293263D01*
X128630292Y-104261127D01*
X128772938Y-103917599D01*
X128773262Y-103545633D01*
X128631217Y-103201857D01*
X128368427Y-102938608D01*
X128024899Y-102795962D01*
X127652933Y-102795638D01*
X127309157Y-102937683D01*
X127045908Y-103200473D01*
X126903262Y-103544001D01*
X126902938Y-103915967D01*
X127044983Y-104259743D01*
X127078100Y-104292918D01*
X127078100Y-105248300D01*
X127135952Y-105539139D01*
X127300699Y-105785701D01*
X131899922Y-110384924D01*
X131518143Y-110542672D01*
X131114091Y-110946020D01*
X130895150Y-111473289D01*
X130895011Y-111633000D01*
X125804677Y-111633000D01*
X126169421Y-111482291D01*
X126920315Y-110732707D01*
X127327196Y-109752827D01*
X127328122Y-108691828D01*
X126922951Y-107711239D01*
X126173367Y-106960345D01*
X125193487Y-106553464D01*
X124132488Y-106552538D01*
X123151899Y-106957709D01*
X122401005Y-107707293D01*
X121994124Y-108687173D01*
X121993198Y-109748172D01*
X122398369Y-110728761D01*
X123147953Y-111479655D01*
X123517249Y-111633000D01*
X120702606Y-111633000D01*
X119507000Y-110437394D01*
X119507000Y-55518087D01*
X131864816Y-55518087D01*
X132009076Y-55753000D01*
X133223000Y-55753000D01*
X133223000Y-54393783D01*
X132990974Y-54272642D01*
X132975209Y-54275291D01*
X132447964Y-54529268D01*
X132058046Y-54965680D01*
X131864816Y-55518087D01*
X119507000Y-55518087D01*
X119507000Y-49582606D01*
X120496284Y-48593322D01*
X134480856Y-48593322D01*
X134508638Y-49148388D01*
X134667603Y-49532163D01*
X134909787Y-49601628D01*
X135710395Y-48801020D01*
X134909787Y-48000412D01*
X134667603Y-48069877D01*
X134480856Y-48593322D01*
X120496284Y-48593322D01*
X121972606Y-47117000D01*
X129423345Y-47117000D01*
X129451730Y-47185528D01*
G36*
X136623289Y-108114850D02*
X137130326Y-108115292D01*
X136839091Y-108406020D01*
X136836975Y-108411116D01*
X136772817Y-108391788D01*
X135944605Y-109220000D01*
X135958748Y-109234143D01*
X135779143Y-109413748D01*
X135765000Y-109399605D01*
X135750858Y-109413748D01*
X135571253Y-109234143D01*
X135585395Y-109220000D01*
X135571253Y-109205858D01*
X135750858Y-109026253D01*
X135765000Y-109040395D01*
X136593212Y-108212183D01*
X136555398Y-108086659D01*
X136623289Y-108114850D01*
X136623289Y-108114850D01*
G37*
X136623289Y-108114850D02*
X137130326Y-108115292D01*
X136839091Y-108406020D01*
X136836975Y-108411116D01*
X136772817Y-108391788D01*
X135944605Y-109220000D01*
X135958748Y-109234143D01*
X135779143Y-109413748D01*
X135765000Y-109399605D01*
X135750858Y-109413748D01*
X135571253Y-109234143D01*
X135585395Y-109220000D01*
X135571253Y-109205858D01*
X135750858Y-109026253D01*
X135765000Y-109040395D01*
X136593212Y-108212183D01*
X136555398Y-108086659D01*
X136623289Y-108114850D01*
M02*
