G04 #@! TF.FileFunction,Legend,Bot*
%FSLAX46Y46*%
G04 Gerber Fmt 4.6, Leading zero omitted, Abs format (unit mm)*
G04 Created by KiCad (PCBNEW 4.0.2+dfsg1-stable) date Wed 27 Dec 2017 07:46:21 PM CST*
%MOMM*%
G01*
G04 APERTURE LIST*
%ADD10C,0.100000*%
%ADD11C,0.300000*%
%ADD12C,0.010000*%
G04 APERTURE END LIST*
D10*
D11*
X43845714Y-28528571D02*
X43845714Y-29600000D01*
X43917142Y-29814286D01*
X44059999Y-29957143D01*
X44274285Y-30028571D01*
X44417142Y-30028571D01*
X42488571Y-30028571D02*
X42488571Y-29242857D01*
X42560000Y-29100000D01*
X42702857Y-29028571D01*
X42988571Y-29028571D01*
X43131428Y-29100000D01*
X42488571Y-29957143D02*
X42631428Y-30028571D01*
X42988571Y-30028571D01*
X43131428Y-29957143D01*
X43202857Y-29814286D01*
X43202857Y-29671429D01*
X43131428Y-29528571D01*
X42988571Y-29457143D01*
X42631428Y-29457143D01*
X42488571Y-29385714D01*
X41131428Y-29028571D02*
X41131428Y-30242857D01*
X41202857Y-30385714D01*
X41274285Y-30457143D01*
X41417142Y-30528571D01*
X41631428Y-30528571D01*
X41774285Y-30457143D01*
X41131428Y-29957143D02*
X41274285Y-30028571D01*
X41559999Y-30028571D01*
X41702857Y-29957143D01*
X41774285Y-29885714D01*
X41845714Y-29742857D01*
X41845714Y-29314286D01*
X41774285Y-29171429D01*
X41702857Y-29100000D01*
X41559999Y-29028571D01*
X41274285Y-29028571D01*
X41131428Y-29100000D01*
X39774285Y-29028571D02*
X39774285Y-30028571D01*
X40417142Y-29028571D02*
X40417142Y-29814286D01*
X40345714Y-29957143D01*
X40202856Y-30028571D01*
X39988571Y-30028571D01*
X39845714Y-29957143D01*
X39774285Y-29885714D01*
X38417142Y-30028571D02*
X38417142Y-29242857D01*
X38488571Y-29100000D01*
X38631428Y-29028571D01*
X38917142Y-29028571D01*
X39059999Y-29100000D01*
X38417142Y-29957143D02*
X38559999Y-30028571D01*
X38917142Y-30028571D01*
X39059999Y-29957143D01*
X39131428Y-29814286D01*
X39131428Y-29671429D01*
X39059999Y-29528571D01*
X38917142Y-29457143D01*
X38559999Y-29457143D01*
X38417142Y-29385714D01*
X37702856Y-30028571D02*
X37702856Y-29028571D01*
X37702856Y-29314286D02*
X37631428Y-29171429D01*
X37559999Y-29100000D01*
X37417142Y-29028571D01*
X37274285Y-29028571D01*
X35631428Y-28528571D02*
X35631428Y-29742857D01*
X35560000Y-29885714D01*
X35488571Y-29957143D01*
X35345714Y-30028571D01*
X35060000Y-30028571D01*
X34917142Y-29957143D01*
X34845714Y-29885714D01*
X34774285Y-29742857D01*
X34774285Y-28528571D01*
X34131428Y-29957143D02*
X33917142Y-30028571D01*
X33559999Y-30028571D01*
X33417142Y-29957143D01*
X33345713Y-29885714D01*
X33274285Y-29742857D01*
X33274285Y-29600000D01*
X33345713Y-29457143D01*
X33417142Y-29385714D01*
X33559999Y-29314286D01*
X33845713Y-29242857D01*
X33988571Y-29171429D01*
X34059999Y-29100000D01*
X34131428Y-28957143D01*
X34131428Y-28814286D01*
X34059999Y-28671429D01*
X33988571Y-28600000D01*
X33845713Y-28528571D01*
X33488571Y-28528571D01*
X33274285Y-28600000D01*
X32131428Y-29242857D02*
X31917142Y-29314286D01*
X31845714Y-29385714D01*
X31774285Y-29528571D01*
X31774285Y-29742857D01*
X31845714Y-29885714D01*
X31917142Y-29957143D01*
X32060000Y-30028571D01*
X32631428Y-30028571D01*
X32631428Y-28528571D01*
X32131428Y-28528571D01*
X31988571Y-28600000D01*
X31917142Y-28671429D01*
X31845714Y-28814286D01*
X31845714Y-28957143D01*
X31917142Y-29100000D01*
X31988571Y-29171429D01*
X32131428Y-29242857D01*
X32631428Y-29242857D01*
X30202857Y-28528571D02*
X29345714Y-28528571D01*
X29774285Y-30028571D02*
X29774285Y-28528571D01*
X28202857Y-30028571D02*
X28202857Y-29242857D01*
X28274286Y-29100000D01*
X28417143Y-29028571D01*
X28702857Y-29028571D01*
X28845714Y-29100000D01*
X28202857Y-29957143D02*
X28345714Y-30028571D01*
X28702857Y-30028571D01*
X28845714Y-29957143D01*
X28917143Y-29814286D01*
X28917143Y-29671429D01*
X28845714Y-29528571D01*
X28702857Y-29457143D01*
X28345714Y-29457143D01*
X28202857Y-29385714D01*
X27488571Y-29028571D02*
X27488571Y-30528571D01*
X27488571Y-29100000D02*
X27345714Y-29028571D01*
X27060000Y-29028571D01*
X26917143Y-29100000D01*
X26845714Y-29171429D01*
X26774285Y-29314286D01*
X26774285Y-29742857D01*
X26845714Y-29885714D01*
X26917143Y-29957143D01*
X27060000Y-30028571D01*
X27345714Y-30028571D01*
X27488571Y-29957143D01*
X38417143Y-32428571D02*
X38417143Y-30928571D01*
X38417143Y-32357143D02*
X38560000Y-32428571D01*
X38845714Y-32428571D01*
X38988572Y-32357143D01*
X39060000Y-32285714D01*
X39131429Y-32142857D01*
X39131429Y-31714286D01*
X39060000Y-31571429D01*
X38988572Y-31500000D01*
X38845714Y-31428571D01*
X38560000Y-31428571D01*
X38417143Y-31500000D01*
X37060000Y-31428571D02*
X37060000Y-32642857D01*
X37131429Y-32785714D01*
X37202857Y-32857143D01*
X37345714Y-32928571D01*
X37560000Y-32928571D01*
X37702857Y-32857143D01*
X37060000Y-32357143D02*
X37202857Y-32428571D01*
X37488571Y-32428571D01*
X37631429Y-32357143D01*
X37702857Y-32285714D01*
X37774286Y-32142857D01*
X37774286Y-31714286D01*
X37702857Y-31571429D01*
X37631429Y-31500000D01*
X37488571Y-31428571D01*
X37202857Y-31428571D01*
X37060000Y-31500000D01*
X36345714Y-32428571D02*
X36345714Y-31428571D01*
X36345714Y-31714286D02*
X36274286Y-31571429D01*
X36202857Y-31500000D01*
X36060000Y-31428571D01*
X35917143Y-31428571D01*
X34774286Y-31428571D02*
X34774286Y-32428571D01*
X35417143Y-31428571D02*
X35417143Y-32214286D01*
X35345715Y-32357143D01*
X35202857Y-32428571D01*
X34988572Y-32428571D01*
X34845715Y-32357143D01*
X34774286Y-32285714D01*
X34060000Y-32428571D02*
X34060000Y-30928571D01*
X34060000Y-31500000D02*
X33917143Y-31428571D01*
X33631429Y-31428571D01*
X33488572Y-31500000D01*
X33417143Y-31571429D01*
X33345714Y-31714286D01*
X33345714Y-32142857D01*
X33417143Y-32285714D01*
X33488572Y-32357143D01*
X33631429Y-32428571D01*
X33917143Y-32428571D01*
X34060000Y-32357143D01*
X32702857Y-32428571D02*
X32702857Y-30928571D01*
X32702857Y-31500000D02*
X32560000Y-31428571D01*
X32274286Y-31428571D01*
X32131429Y-31500000D01*
X32060000Y-31571429D01*
X31988571Y-31714286D01*
X31988571Y-32142857D01*
X32060000Y-32285714D01*
X32131429Y-32357143D01*
X32274286Y-32428571D01*
X32560000Y-32428571D01*
X32702857Y-32357143D01*
X38667142Y-34828571D02*
X39167142Y-34114286D01*
X39524285Y-34828571D02*
X39524285Y-33328571D01*
X38952857Y-33328571D01*
X38809999Y-33400000D01*
X38738571Y-33471429D01*
X38667142Y-33614286D01*
X38667142Y-33828571D01*
X38738571Y-33971429D01*
X38809999Y-34042857D01*
X38952857Y-34114286D01*
X39524285Y-34114286D01*
X37452857Y-34757143D02*
X37595714Y-34828571D01*
X37881428Y-34828571D01*
X38024285Y-34757143D01*
X38095714Y-34614286D01*
X38095714Y-34042857D01*
X38024285Y-33900000D01*
X37881428Y-33828571D01*
X37595714Y-33828571D01*
X37452857Y-33900000D01*
X37381428Y-34042857D01*
X37381428Y-34185714D01*
X38095714Y-34328571D01*
X36881428Y-33828571D02*
X36524285Y-34828571D01*
X36167143Y-33828571D01*
X34167143Y-33328571D02*
X34024286Y-33328571D01*
X33881429Y-33400000D01*
X33810000Y-33471429D01*
X33738571Y-33614286D01*
X33667143Y-33900000D01*
X33667143Y-34257143D01*
X33738571Y-34542857D01*
X33810000Y-34685714D01*
X33881429Y-34757143D01*
X34024286Y-34828571D01*
X34167143Y-34828571D01*
X34310000Y-34757143D01*
X34381429Y-34685714D01*
X34452857Y-34542857D01*
X34524286Y-34257143D01*
X34524286Y-33900000D01*
X34452857Y-33614286D01*
X34381429Y-33471429D01*
X34310000Y-33400000D01*
X34167143Y-33328571D01*
X33024286Y-34685714D02*
X32952858Y-34757143D01*
X33024286Y-34828571D01*
X33095715Y-34757143D01*
X33024286Y-34685714D01*
X33024286Y-34828571D01*
X32381429Y-33471429D02*
X32310000Y-33400000D01*
X32167143Y-33328571D01*
X31810000Y-33328571D01*
X31667143Y-33400000D01*
X31595714Y-33471429D01*
X31524286Y-33614286D01*
X31524286Y-33757143D01*
X31595714Y-33971429D01*
X32452857Y-34828571D01*
X31524286Y-34828571D01*
D12*
G36*
X37360482Y-11335769D02*
X37156011Y-11560012D01*
X37039103Y-12087022D01*
X36985607Y-13042204D01*
X36971372Y-14550961D01*
X36971111Y-14952544D01*
X37074614Y-17644614D01*
X37414009Y-19807812D01*
X38032621Y-21592035D01*
X38973778Y-23147179D01*
X39540697Y-23842538D01*
X41052194Y-25253342D01*
X42754743Y-26167166D01*
X44328841Y-26623608D01*
X45070026Y-26740360D01*
X45375080Y-26525602D01*
X45437407Y-25806351D01*
X45437777Y-25631777D01*
X45360777Y-24793099D01*
X44995880Y-24324464D01*
X44142246Y-23968820D01*
X44137145Y-23967136D01*
X43182761Y-23479926D01*
X42049098Y-22659761D01*
X41216809Y-21911305D01*
X39817900Y-20145220D01*
X38912047Y-18100194D01*
X38456800Y-15656167D01*
X38382222Y-13894211D01*
X38365056Y-12553914D01*
X38286975Y-11771611D01*
X38108100Y-11400053D01*
X37788557Y-11291993D01*
X37676666Y-11288889D01*
X37360482Y-11335769D01*
X37360482Y-11335769D01*
G37*
X37360482Y-11335769D02*
X37156011Y-11560012D01*
X37039103Y-12087022D01*
X36985607Y-13042204D01*
X36971372Y-14550961D01*
X36971111Y-14952544D01*
X37074614Y-17644614D01*
X37414009Y-19807812D01*
X38032621Y-21592035D01*
X38973778Y-23147179D01*
X39540697Y-23842538D01*
X41052194Y-25253342D01*
X42754743Y-26167166D01*
X44328841Y-26623608D01*
X45070026Y-26740360D01*
X45375080Y-26525602D01*
X45437407Y-25806351D01*
X45437777Y-25631777D01*
X45360777Y-24793099D01*
X44995880Y-24324464D01*
X44142246Y-23968820D01*
X44137145Y-23967136D01*
X43182761Y-23479926D01*
X42049098Y-22659761D01*
X41216809Y-21911305D01*
X39817900Y-20145220D01*
X38912047Y-18100194D01*
X38456800Y-15656167D01*
X38382222Y-13894211D01*
X38365056Y-12553914D01*
X38286975Y-11771611D01*
X38108100Y-11400053D01*
X37788557Y-11291993D01*
X37676666Y-11288889D01*
X37360482Y-11335769D01*
G36*
X34148889Y-26811111D02*
X36618333Y-26811111D01*
X36618333Y-11288889D01*
X34148889Y-11288889D01*
X34148889Y-26811111D01*
X34148889Y-26811111D01*
G37*
X34148889Y-26811111D02*
X36618333Y-26811111D01*
X36618333Y-11288889D01*
X34148889Y-11288889D01*
X34148889Y-26811111D01*
G36*
X32853919Y-11347625D02*
X32635914Y-11609388D01*
X32493024Y-12202507D01*
X32392853Y-13255310D01*
X32311150Y-14728472D01*
X32161781Y-16721416D01*
X31918012Y-18189658D01*
X31546819Y-19311377D01*
X31407587Y-19603231D01*
X30380434Y-21120339D01*
X28997851Y-22514185D01*
X27487144Y-23578230D01*
X26590454Y-23980213D01*
X25743877Y-24326156D01*
X25406062Y-24750379D01*
X25396546Y-25482083D01*
X25397816Y-25494927D01*
X25554908Y-26283626D01*
X25934203Y-26624898D01*
X26708252Y-26601976D01*
X27393483Y-26457562D01*
X29069098Y-25753911D01*
X30697828Y-24515132D01*
X32091401Y-22897344D01*
X32530023Y-22198235D01*
X32976279Y-21366445D01*
X33283675Y-20622187D01*
X33483901Y-19797711D01*
X33608644Y-18725265D01*
X33689592Y-17237101D01*
X33739050Y-15797890D01*
X33791172Y-13945472D01*
X33801930Y-12684659D01*
X33757248Y-11902028D01*
X33643050Y-11484157D01*
X33445257Y-11317623D01*
X33179434Y-11288889D01*
X32853919Y-11347625D01*
X32853919Y-11347625D01*
G37*
X32853919Y-11347625D02*
X32635914Y-11609388D01*
X32493024Y-12202507D01*
X32392853Y-13255310D01*
X32311150Y-14728472D01*
X32161781Y-16721416D01*
X31918012Y-18189658D01*
X31546819Y-19311377D01*
X31407587Y-19603231D01*
X30380434Y-21120339D01*
X28997851Y-22514185D01*
X27487144Y-23578230D01*
X26590454Y-23980213D01*
X25743877Y-24326156D01*
X25406062Y-24750379D01*
X25396546Y-25482083D01*
X25397816Y-25494927D01*
X25554908Y-26283626D01*
X25934203Y-26624898D01*
X26708252Y-26601976D01*
X27393483Y-26457562D01*
X29069098Y-25753911D01*
X30697828Y-24515132D01*
X32091401Y-22897344D01*
X32530023Y-22198235D01*
X32976279Y-21366445D01*
X33283675Y-20622187D01*
X33483901Y-19797711D01*
X33608644Y-18725265D01*
X33689592Y-17237101D01*
X33739050Y-15797890D01*
X33791172Y-13945472D01*
X33801930Y-12684659D01*
X33757248Y-11902028D01*
X33643050Y-11484157D01*
X33445257Y-11317623D01*
X33179434Y-11288889D01*
X32853919Y-11347625D01*
M02*
