G04 #@! TF.FileFunction,Soldermask,Bot*
%FSLAX46Y46*%
G04 Gerber Fmt 4.6, Leading zero omitted, Abs format (unit mm)*
G04 Created by KiCad (PCBNEW 4.0.2+dfsg1-stable) date Wed 27 Dec 2017 07:46:21 PM CST*
%MOMM*%
G01*
G04 APERTURE LIST*
%ADD10C,0.100000*%
%ADD11R,2.100000X2.100000*%
%ADD12O,2.100000X2.100000*%
%ADD13C,1.920000*%
%ADD14C,3.100000*%
%ADD15C,4.464000*%
%ADD16C,2.000200*%
%ADD17C,2.400000*%
G04 APERTURE END LIST*
D10*
D11*
X55880000Y-19050000D03*
D12*
X55880000Y-21590000D03*
X55880000Y-24130000D03*
D11*
X22860000Y-13970000D03*
D12*
X22860000Y-11430000D03*
D11*
X22860000Y-30480000D03*
D12*
X22860000Y-27940000D03*
D11*
X31750000Y-41910000D03*
D12*
X29210000Y-41910000D03*
D13*
X60960000Y-22860000D03*
X60960000Y-20320000D03*
X62960000Y-20320000D03*
X62960000Y-22860000D03*
D14*
X65660000Y-27590000D03*
X65660000Y-15590000D03*
D15*
X5080000Y-34089340D03*
X5080000Y-9090660D03*
D16*
X2540000Y-16760000D03*
X5080000Y-17905000D03*
X2540000Y-19050000D03*
X2540000Y-21340000D03*
X2540000Y-23630000D03*
X2540000Y-25920000D03*
X5080000Y-20195000D03*
X5080000Y-22485000D03*
X5080000Y-24775000D03*
X5080000Y-27065000D03*
X7620000Y-16760000D03*
X7620000Y-19050000D03*
X7620000Y-21340000D03*
X7620000Y-23630000D03*
X7620000Y-25920000D03*
D11*
X38100000Y-41910000D03*
D12*
X40640000Y-41910000D03*
X43180000Y-41910000D03*
X45720000Y-41910000D03*
X48260000Y-41910000D03*
D17*
X62810000Y-34290000D03*
X67310000Y-34290000D03*
X62810000Y-40790000D03*
X67310000Y-40790000D03*
M02*
