M48
;DRILL file {KiCad 4.0.2+dfsg1-stable} date Mon 20 Nov 2017 03:32:05 PM CST
;FORMAT={-:-/ absolute / inch / decimal}
FMAT,2
INCH,TZ
T1C0.016
T2C0.032
T3C0.040
T4C0.047
T5C0.047
T6C0.091
T7C0.126
%
G90
G05
M72
T1
X4.9872Y-3.6545
X5.0166Y-3.6379
X5.033Y-4.0839
X5.3123Y-3.9731
X5.3841Y-3.2662
X5.3912Y-4.096
X5.3916Y-3.164
X5.4265Y-3.1174
X5.4398Y-3.2724
X5.4408Y-3.1581
X5.5081Y-3.0491
X5.5089Y-2.9808
X5.5602Y-2.9532
X5.6683Y-4.0395
X5.7116Y-3.5742
X5.7372Y-3.5933
X5.7648Y-3.5169
X5.79Y-3.5368
X5.8396Y-3.5221
T2
X5.35Y-1.9213
X5.35Y-2.
X5.45Y-1.9213
X5.45Y-2.
T3
X5.25Y-2.2
X5.35Y-2.2
X5.45Y-2.2
X5.85Y-2.9
X5.85Y-3.
X5.85Y-3.1
X5.85Y-3.2
X5.85Y-3.3
T4
X5.2098Y-4.2
X5.2098Y-4.4
X5.2549Y-4.3
X5.3Y-4.2
X5.3Y-4.4
X5.3451Y-4.3
X5.3902Y-4.2
X5.3902Y-4.4
X5.4352Y-4.3
X5.4803Y-4.2
X5.4803Y-4.4
X5.5254Y-4.3
X5.5705Y-4.2
X5.5705Y-4.4
T5
X5.6156Y-4.3
T6
X5.1638Y-1.815
X5.6362Y-1.815
T7
X4.9079Y-4.3
X5.8921Y-4.3
T0
M30
