G04 #@! TF.FileFunction,Soldermask,Top*
%FSLAX46Y46*%
G04 Gerber Fmt 4.6, Leading zero omitted, Abs format (unit mm)*
G04 Created by KiCad (PCBNEW 4.0.2+dfsg1-stable) date Mon 20 Nov 2017 03:31:45 PM CST*
%MOMM*%
G01*
G04 APERTURE LIST*
%ADD10C,0.100000*%
%ADD11R,3.400000X2.600000*%
%ADD12R,3.000960X2.000200*%
%ADD13R,2.600000X3.400000*%
%ADD14R,1.997660X2.200860*%
%ADD15C,4.464000*%
%ADD16C,2.000200*%
%ADD17R,2.127200X2.432000*%
%ADD18O,2.127200X2.432000*%
%ADD19C,1.924000*%
%ADD20C,3.100020*%
%ADD21R,2.432000X2.127200*%
%ADD22O,2.432000X2.127200*%
%ADD23R,2.400000X2.900000*%
%ADD24R,4.057600X2.432000*%
%ADD25R,1.416000X2.432000*%
%ADD26R,1.752400X0.452400*%
%ADD27R,0.750520X1.799540*%
%ADD28R,2.500580X6.000700*%
G04 APERTURE END LIST*
D10*
D11*
X125730000Y-77830000D03*
X125730000Y-72030000D03*
X125730000Y-82190000D03*
X125730000Y-87990000D03*
D12*
X131340860Y-66040000D03*
X127739140Y-66040000D03*
D11*
X144780000Y-75840000D03*
X144780000Y-81640000D03*
D13*
X135530000Y-85090000D03*
X141330000Y-85090000D03*
D11*
X121920000Y-94890000D03*
X121920000Y-100690000D03*
D12*
X120119140Y-66040000D03*
X123720860Y-66040000D03*
D11*
X151130000Y-94890000D03*
X151130000Y-100690000D03*
X120650000Y-61320000D03*
X120650000Y-55520000D03*
X140970000Y-100690000D03*
X140970000Y-94890000D03*
X132080000Y-94890000D03*
X132080000Y-100690000D03*
D14*
X125879860Y-46990000D03*
X123040140Y-46990000D03*
D15*
X149659340Y-109220000D03*
X124660660Y-109220000D03*
D16*
X132330000Y-111760000D03*
X133475000Y-109220000D03*
X134620000Y-111760000D03*
X136910000Y-111760000D03*
X139200000Y-111760000D03*
X141490000Y-111760000D03*
X135765000Y-109220000D03*
X138055000Y-109220000D03*
X140345000Y-109220000D03*
X142635000Y-109220000D03*
X132330000Y-106680000D03*
X134620000Y-106680000D03*
X136910000Y-106680000D03*
X139200000Y-106680000D03*
X141490000Y-106680000D03*
D17*
X138430000Y-55880000D03*
D18*
X135890000Y-55880000D03*
X133350000Y-55880000D03*
D19*
X138430000Y-50800000D03*
X135890000Y-50800000D03*
X135890000Y-48801020D03*
X138430000Y-48801020D03*
D20*
X143159480Y-46101000D03*
X131160520Y-46101000D03*
D21*
X148590000Y-73660000D03*
D22*
X148590000Y-76200000D03*
X148590000Y-78740000D03*
X148590000Y-81280000D03*
X148590000Y-83820000D03*
D23*
X126460000Y-50800000D03*
X122460000Y-50800000D03*
X134080000Y-90170000D03*
X130080000Y-90170000D03*
X140430000Y-72390000D03*
X136430000Y-72390000D03*
D24*
X127000000Y-55118000D03*
D25*
X127000000Y-61722000D03*
X129286000Y-61722000D03*
X124714000Y-61722000D03*
D26*
X141230000Y-76465000D03*
X141230000Y-75815000D03*
X141230000Y-77115000D03*
X141230000Y-77765000D03*
X141230000Y-78415000D03*
X141230000Y-79065000D03*
X141230000Y-79715000D03*
X141230000Y-80365000D03*
X135630000Y-81665000D03*
X135630000Y-81015000D03*
X135630000Y-80365000D03*
X135630000Y-79715000D03*
X135630000Y-75815000D03*
X135630000Y-76465000D03*
X135630000Y-77115000D03*
X135630000Y-77765000D03*
X135630000Y-78415000D03*
X135630000Y-79065000D03*
X141230000Y-81015000D03*
X141230000Y-81665000D03*
D27*
X143774160Y-100665280D03*
X144424400Y-100665280D03*
X145074640Y-100665280D03*
X145724880Y-100665280D03*
X146375120Y-100665280D03*
X147025360Y-100665280D03*
X147675600Y-100665280D03*
X148325840Y-100665280D03*
X148325840Y-94914720D03*
X147675600Y-94914720D03*
X147025360Y-94914720D03*
X146375120Y-94914720D03*
X145724880Y-94914720D03*
X145074640Y-94914720D03*
X144424400Y-94914720D03*
X143774160Y-94914720D03*
X124724160Y-100665280D03*
X125374400Y-100665280D03*
X126024640Y-100665280D03*
X126674880Y-100665280D03*
X127325120Y-100665280D03*
X127975360Y-100665280D03*
X128625600Y-100665280D03*
X129275840Y-100665280D03*
X129275840Y-94914720D03*
X128625600Y-94914720D03*
X127975360Y-94914720D03*
X127325120Y-94914720D03*
X126674880Y-94914720D03*
X126024640Y-94914720D03*
X125374400Y-94914720D03*
X124724160Y-94914720D03*
D28*
X130810000Y-75161140D03*
X130810000Y-84858860D03*
M02*
