G04 #@! TF.FileFunction,Legend,Top*
%FSLAX46Y46*%
G04 Gerber Fmt 4.6, Leading zero omitted, Abs format (unit mm)*
G04 Created by KiCad (PCBNEW 4.0.2+dfsg1-stable) date Tue 21 Nov 2017 04:08:45 PM CST*
%MOMM*%
G01*
G04 APERTURE LIST*
%ADD10C,0.100000*%
%ADD11C,0.300000*%
%ADD12C,0.150000*%
%ADD13C,0.254000*%
%ADD14C,0.203200*%
%ADD15C,0.152400*%
G04 APERTURE END LIST*
D10*
D11*
X147908571Y-65435714D02*
X148980000Y-65435714D01*
X149194286Y-65507142D01*
X149337143Y-65649999D01*
X149408571Y-65864285D01*
X149408571Y-66007142D01*
X149408571Y-64078571D02*
X148622857Y-64078571D01*
X148480000Y-64150000D01*
X148408571Y-64292857D01*
X148408571Y-64578571D01*
X148480000Y-64721428D01*
X149337143Y-64078571D02*
X149408571Y-64221428D01*
X149408571Y-64578571D01*
X149337143Y-64721428D01*
X149194286Y-64792857D01*
X149051429Y-64792857D01*
X148908571Y-64721428D01*
X148837143Y-64578571D01*
X148837143Y-64221428D01*
X148765714Y-64078571D01*
X148408571Y-62721428D02*
X149622857Y-62721428D01*
X149765714Y-62792857D01*
X149837143Y-62864285D01*
X149908571Y-63007142D01*
X149908571Y-63221428D01*
X149837143Y-63364285D01*
X149337143Y-62721428D02*
X149408571Y-62864285D01*
X149408571Y-63149999D01*
X149337143Y-63292857D01*
X149265714Y-63364285D01*
X149122857Y-63435714D01*
X148694286Y-63435714D01*
X148551429Y-63364285D01*
X148480000Y-63292857D01*
X148408571Y-63149999D01*
X148408571Y-62864285D01*
X148480000Y-62721428D01*
X148408571Y-61364285D02*
X149408571Y-61364285D01*
X148408571Y-62007142D02*
X149194286Y-62007142D01*
X149337143Y-61935714D01*
X149408571Y-61792856D01*
X149408571Y-61578571D01*
X149337143Y-61435714D01*
X149265714Y-61364285D01*
X149408571Y-60007142D02*
X148622857Y-60007142D01*
X148480000Y-60078571D01*
X148408571Y-60221428D01*
X148408571Y-60507142D01*
X148480000Y-60649999D01*
X149337143Y-60007142D02*
X149408571Y-60149999D01*
X149408571Y-60507142D01*
X149337143Y-60649999D01*
X149194286Y-60721428D01*
X149051429Y-60721428D01*
X148908571Y-60649999D01*
X148837143Y-60507142D01*
X148837143Y-60149999D01*
X148765714Y-60007142D01*
X149408571Y-59292856D02*
X148408571Y-59292856D01*
X148694286Y-59292856D02*
X148551429Y-59221428D01*
X148480000Y-59149999D01*
X148408571Y-59007142D01*
X148408571Y-58864285D01*
X147908571Y-57221428D02*
X149122857Y-57221428D01*
X149265714Y-57150000D01*
X149337143Y-57078571D01*
X149408571Y-56935714D01*
X149408571Y-56650000D01*
X149337143Y-56507142D01*
X149265714Y-56435714D01*
X149122857Y-56364285D01*
X147908571Y-56364285D01*
X149337143Y-55721428D02*
X149408571Y-55507142D01*
X149408571Y-55149999D01*
X149337143Y-55007142D01*
X149265714Y-54935713D01*
X149122857Y-54864285D01*
X148980000Y-54864285D01*
X148837143Y-54935713D01*
X148765714Y-55007142D01*
X148694286Y-55149999D01*
X148622857Y-55435713D01*
X148551429Y-55578571D01*
X148480000Y-55649999D01*
X148337143Y-55721428D01*
X148194286Y-55721428D01*
X148051429Y-55649999D01*
X147980000Y-55578571D01*
X147908571Y-55435713D01*
X147908571Y-55078571D01*
X147980000Y-54864285D01*
X148622857Y-53721428D02*
X148694286Y-53507142D01*
X148765714Y-53435714D01*
X148908571Y-53364285D01*
X149122857Y-53364285D01*
X149265714Y-53435714D01*
X149337143Y-53507142D01*
X149408571Y-53650000D01*
X149408571Y-54221428D01*
X147908571Y-54221428D01*
X147908571Y-53721428D01*
X147980000Y-53578571D01*
X148051429Y-53507142D01*
X148194286Y-53435714D01*
X148337143Y-53435714D01*
X148480000Y-53507142D01*
X148551429Y-53578571D01*
X148622857Y-53721428D01*
X148622857Y-54221428D01*
X147908571Y-51792857D02*
X147908571Y-50935714D01*
X149408571Y-51364285D02*
X147908571Y-51364285D01*
X149408571Y-49792857D02*
X148622857Y-49792857D01*
X148480000Y-49864286D01*
X148408571Y-50007143D01*
X148408571Y-50292857D01*
X148480000Y-50435714D01*
X149337143Y-49792857D02*
X149408571Y-49935714D01*
X149408571Y-50292857D01*
X149337143Y-50435714D01*
X149194286Y-50507143D01*
X149051429Y-50507143D01*
X148908571Y-50435714D01*
X148837143Y-50292857D01*
X148837143Y-49935714D01*
X148765714Y-49792857D01*
X148408571Y-49078571D02*
X149908571Y-49078571D01*
X148480000Y-49078571D02*
X148408571Y-48935714D01*
X148408571Y-48650000D01*
X148480000Y-48507143D01*
X148551429Y-48435714D01*
X148694286Y-48364285D01*
X149122857Y-48364285D01*
X149265714Y-48435714D01*
X149337143Y-48507143D01*
X149408571Y-48650000D01*
X149408571Y-48935714D01*
X149337143Y-49078571D01*
X151808571Y-60007143D02*
X150308571Y-60007143D01*
X151737143Y-60007143D02*
X151808571Y-60150000D01*
X151808571Y-60435714D01*
X151737143Y-60578572D01*
X151665714Y-60650000D01*
X151522857Y-60721429D01*
X151094286Y-60721429D01*
X150951429Y-60650000D01*
X150880000Y-60578572D01*
X150808571Y-60435714D01*
X150808571Y-60150000D01*
X150880000Y-60007143D01*
X150808571Y-58650000D02*
X152022857Y-58650000D01*
X152165714Y-58721429D01*
X152237143Y-58792857D01*
X152308571Y-58935714D01*
X152308571Y-59150000D01*
X152237143Y-59292857D01*
X151737143Y-58650000D02*
X151808571Y-58792857D01*
X151808571Y-59078571D01*
X151737143Y-59221429D01*
X151665714Y-59292857D01*
X151522857Y-59364286D01*
X151094286Y-59364286D01*
X150951429Y-59292857D01*
X150880000Y-59221429D01*
X150808571Y-59078571D01*
X150808571Y-58792857D01*
X150880000Y-58650000D01*
X151808571Y-57935714D02*
X150808571Y-57935714D01*
X151094286Y-57935714D02*
X150951429Y-57864286D01*
X150880000Y-57792857D01*
X150808571Y-57650000D01*
X150808571Y-57507143D01*
X150808571Y-56364286D02*
X151808571Y-56364286D01*
X150808571Y-57007143D02*
X151594286Y-57007143D01*
X151737143Y-56935715D01*
X151808571Y-56792857D01*
X151808571Y-56578572D01*
X151737143Y-56435715D01*
X151665714Y-56364286D01*
X151808571Y-55650000D02*
X150308571Y-55650000D01*
X150880000Y-55650000D02*
X150808571Y-55507143D01*
X150808571Y-55221429D01*
X150880000Y-55078572D01*
X150951429Y-55007143D01*
X151094286Y-54935714D01*
X151522857Y-54935714D01*
X151665714Y-55007143D01*
X151737143Y-55078572D01*
X151808571Y-55221429D01*
X151808571Y-55507143D01*
X151737143Y-55650000D01*
X151808571Y-54292857D02*
X150308571Y-54292857D01*
X150880000Y-54292857D02*
X150808571Y-54150000D01*
X150808571Y-53864286D01*
X150880000Y-53721429D01*
X150951429Y-53650000D01*
X151094286Y-53578571D01*
X151522857Y-53578571D01*
X151665714Y-53650000D01*
X151737143Y-53721429D01*
X151808571Y-53864286D01*
X151808571Y-54150000D01*
X151737143Y-54292857D01*
X154208571Y-60257142D02*
X153494286Y-60757142D01*
X154208571Y-61114285D02*
X152708571Y-61114285D01*
X152708571Y-60542857D01*
X152780000Y-60399999D01*
X152851429Y-60328571D01*
X152994286Y-60257142D01*
X153208571Y-60257142D01*
X153351429Y-60328571D01*
X153422857Y-60399999D01*
X153494286Y-60542857D01*
X153494286Y-61114285D01*
X154137143Y-59042857D02*
X154208571Y-59185714D01*
X154208571Y-59471428D01*
X154137143Y-59614285D01*
X153994286Y-59685714D01*
X153422857Y-59685714D01*
X153280000Y-59614285D01*
X153208571Y-59471428D01*
X153208571Y-59185714D01*
X153280000Y-59042857D01*
X153422857Y-58971428D01*
X153565714Y-58971428D01*
X153708571Y-59685714D01*
X153208571Y-58471428D02*
X154208571Y-58114285D01*
X153208571Y-57757143D01*
X152708571Y-55757143D02*
X152708571Y-55614286D01*
X152780000Y-55471429D01*
X152851429Y-55400000D01*
X152994286Y-55328571D01*
X153280000Y-55257143D01*
X153637143Y-55257143D01*
X153922857Y-55328571D01*
X154065714Y-55400000D01*
X154137143Y-55471429D01*
X154208571Y-55614286D01*
X154208571Y-55757143D01*
X154137143Y-55900000D01*
X154065714Y-55971429D01*
X153922857Y-56042857D01*
X153637143Y-56114286D01*
X153280000Y-56114286D01*
X152994286Y-56042857D01*
X152851429Y-55971429D01*
X152780000Y-55900000D01*
X152708571Y-55757143D01*
X154065714Y-54614286D02*
X154137143Y-54542858D01*
X154208571Y-54614286D01*
X154137143Y-54685715D01*
X154065714Y-54614286D01*
X154208571Y-54614286D01*
X154208571Y-53114286D02*
X154208571Y-53971429D01*
X154208571Y-53542857D02*
X152708571Y-53542857D01*
X152922857Y-53685714D01*
X153065714Y-53828572D01*
X153137143Y-53971429D01*
X137608571Y-69627142D02*
X137608571Y-68698571D01*
X138180000Y-69198571D01*
X138180000Y-68984285D01*
X138251429Y-68841428D01*
X138322857Y-68769999D01*
X138465714Y-68698571D01*
X138822857Y-68698571D01*
X138965714Y-68769999D01*
X139037143Y-68841428D01*
X139108571Y-68984285D01*
X139108571Y-69412857D01*
X139037143Y-69555714D01*
X138965714Y-69627142D01*
X138965714Y-68055714D02*
X139037143Y-67984286D01*
X139108571Y-68055714D01*
X139037143Y-68127143D01*
X138965714Y-68055714D01*
X139108571Y-68055714D01*
X137608571Y-67484285D02*
X137608571Y-66555714D01*
X138180000Y-67055714D01*
X138180000Y-66841428D01*
X138251429Y-66698571D01*
X138322857Y-66627142D01*
X138465714Y-66555714D01*
X138822857Y-66555714D01*
X138965714Y-66627142D01*
X139037143Y-66698571D01*
X139108571Y-66841428D01*
X139108571Y-67270000D01*
X139037143Y-67412857D01*
X138965714Y-67484285D01*
X138108571Y-66055714D02*
X139108571Y-65698571D01*
X138108571Y-65341429D01*
X137608571Y-63841429D02*
X139108571Y-63341429D01*
X137608571Y-62841429D01*
X139108571Y-62341429D02*
X137608571Y-62341429D01*
X137608571Y-61984286D01*
X137680000Y-61770001D01*
X137822857Y-61627143D01*
X137965714Y-61555715D01*
X138251429Y-61484286D01*
X138465714Y-61484286D01*
X138751429Y-61555715D01*
X138894286Y-61627143D01*
X139037143Y-61770001D01*
X139108571Y-61984286D01*
X139108571Y-62341429D01*
X139108571Y-60841429D02*
X137608571Y-60841429D01*
X137608571Y-60484286D01*
X137680000Y-60270001D01*
X137822857Y-60127143D01*
X137965714Y-60055715D01*
X138251429Y-59984286D01*
X138465714Y-59984286D01*
X138751429Y-60055715D01*
X138894286Y-60127143D01*
X139037143Y-60270001D01*
X139108571Y-60484286D01*
X139108571Y-60841429D01*
X135068571Y-66428570D02*
X135068571Y-67142856D01*
X135782857Y-67214285D01*
X135711429Y-67142856D01*
X135640000Y-66999999D01*
X135640000Y-66642856D01*
X135711429Y-66499999D01*
X135782857Y-66428570D01*
X135925714Y-66357142D01*
X136282857Y-66357142D01*
X136425714Y-66428570D01*
X136497143Y-66499999D01*
X136568571Y-66642856D01*
X136568571Y-66999999D01*
X136497143Y-67142856D01*
X136425714Y-67214285D01*
X135568571Y-65857142D02*
X136568571Y-65499999D01*
X135568571Y-65142857D01*
X135068571Y-63642857D02*
X136568571Y-63142857D01*
X135068571Y-62642857D01*
X136425714Y-61285714D02*
X136497143Y-61357143D01*
X136568571Y-61571429D01*
X136568571Y-61714286D01*
X136497143Y-61928571D01*
X136354286Y-62071429D01*
X136211429Y-62142857D01*
X135925714Y-62214286D01*
X135711429Y-62214286D01*
X135425714Y-62142857D01*
X135282857Y-62071429D01*
X135140000Y-61928571D01*
X135068571Y-61714286D01*
X135068571Y-61571429D01*
X135140000Y-61357143D01*
X135211429Y-61285714D01*
X136425714Y-59785714D02*
X136497143Y-59857143D01*
X136568571Y-60071429D01*
X136568571Y-60214286D01*
X136497143Y-60428571D01*
X136354286Y-60571429D01*
X136211429Y-60642857D01*
X135925714Y-60714286D01*
X135711429Y-60714286D01*
X135425714Y-60642857D01*
X135282857Y-60571429D01*
X135140000Y-60428571D01*
X135068571Y-60214286D01*
X135068571Y-60071429D01*
X135140000Y-59857143D01*
X135211429Y-59785714D01*
X132600000Y-63372857D02*
X132528571Y-63515714D01*
X132528571Y-63730000D01*
X132600000Y-63944285D01*
X132742857Y-64087143D01*
X132885714Y-64158571D01*
X133171429Y-64230000D01*
X133385714Y-64230000D01*
X133671429Y-64158571D01*
X133814286Y-64087143D01*
X133957143Y-63944285D01*
X134028571Y-63730000D01*
X134028571Y-63587143D01*
X133957143Y-63372857D01*
X133885714Y-63301428D01*
X133385714Y-63301428D01*
X133385714Y-63587143D01*
X134028571Y-62658571D02*
X132528571Y-62658571D01*
X134028571Y-61801428D01*
X132528571Y-61801428D01*
X134028571Y-61087142D02*
X132528571Y-61087142D01*
X132528571Y-60729999D01*
X132600000Y-60515714D01*
X132742857Y-60372856D01*
X132885714Y-60301428D01*
X133171429Y-60229999D01*
X133385714Y-60229999D01*
X133671429Y-60301428D01*
X133814286Y-60372856D01*
X133957143Y-60515714D01*
X134028571Y-60729999D01*
X134028571Y-61087142D01*
X151205715Y-84498571D02*
X151205715Y-82998571D01*
X152062858Y-84498571D01*
X152062858Y-82998571D01*
X153634287Y-84498571D02*
X153134287Y-83784286D01*
X152777144Y-84498571D02*
X152777144Y-82998571D01*
X153348572Y-82998571D01*
X153491430Y-83070000D01*
X153562858Y-83141429D01*
X153634287Y-83284286D01*
X153634287Y-83498571D01*
X153562858Y-83641429D01*
X153491430Y-83712857D01*
X153348572Y-83784286D01*
X152777144Y-83784286D01*
X154205715Y-84427143D02*
X154420001Y-84498571D01*
X154777144Y-84498571D01*
X154920001Y-84427143D01*
X154991430Y-84355714D01*
X155062858Y-84212857D01*
X155062858Y-84070000D01*
X154991430Y-83927143D01*
X154920001Y-83855714D01*
X154777144Y-83784286D01*
X154491430Y-83712857D01*
X154348572Y-83641429D01*
X154277144Y-83570000D01*
X154205715Y-83427143D01*
X154205715Y-83284286D01*
X154277144Y-83141429D01*
X154348572Y-83070000D01*
X154491430Y-82998571D01*
X154848572Y-82998571D01*
X155062858Y-83070000D01*
X155491429Y-82998571D02*
X156348572Y-82998571D01*
X155920001Y-84498571D02*
X155920001Y-82998571D01*
X152134286Y-81958571D02*
X152134286Y-80458571D01*
X152491429Y-80458571D01*
X152705714Y-80530000D01*
X152848572Y-80672857D01*
X152920000Y-80815714D01*
X152991429Y-81101429D01*
X152991429Y-81315714D01*
X152920000Y-81601429D01*
X152848572Y-81744286D01*
X152705714Y-81887143D01*
X152491429Y-81958571D01*
X152134286Y-81958571D01*
X153634286Y-81958571D02*
X153634286Y-80458571D01*
X154634286Y-80458571D02*
X154920000Y-80458571D01*
X155062858Y-80530000D01*
X155205715Y-80672857D01*
X155277143Y-80958571D01*
X155277143Y-81458571D01*
X155205715Y-81744286D01*
X155062858Y-81887143D01*
X154920000Y-81958571D01*
X154634286Y-81958571D01*
X154491429Y-81887143D01*
X154348572Y-81744286D01*
X154277143Y-81458571D01*
X154277143Y-80958571D01*
X154348572Y-80672857D01*
X154491429Y-80530000D01*
X154634286Y-80458571D01*
X152527143Y-77990000D02*
X152384286Y-77918571D01*
X152170000Y-77918571D01*
X151955715Y-77990000D01*
X151812857Y-78132857D01*
X151741429Y-78275714D01*
X151670000Y-78561429D01*
X151670000Y-78775714D01*
X151741429Y-79061429D01*
X151812857Y-79204286D01*
X151955715Y-79347143D01*
X152170000Y-79418571D01*
X152312857Y-79418571D01*
X152527143Y-79347143D01*
X152598572Y-79275714D01*
X152598572Y-78775714D01*
X152312857Y-78775714D01*
X153241429Y-79418571D02*
X153241429Y-77918571D01*
X154098572Y-79418571D01*
X154098572Y-77918571D01*
X154812858Y-79418571D02*
X154812858Y-77918571D01*
X155170001Y-77918571D01*
X155384286Y-77990000D01*
X155527144Y-78132857D01*
X155598572Y-78275714D01*
X155670001Y-78561429D01*
X155670001Y-78775714D01*
X155598572Y-79061429D01*
X155527144Y-79204286D01*
X155384286Y-79347143D01*
X155170001Y-79418571D01*
X154812858Y-79418571D01*
X152777143Y-76735714D02*
X152705714Y-76807143D01*
X152491428Y-76878571D01*
X152348571Y-76878571D01*
X152134286Y-76807143D01*
X151991428Y-76664286D01*
X151920000Y-76521429D01*
X151848571Y-76235714D01*
X151848571Y-76021429D01*
X151920000Y-75735714D01*
X151991428Y-75592857D01*
X152134286Y-75450000D01*
X152348571Y-75378571D01*
X152491428Y-75378571D01*
X152705714Y-75450000D01*
X152777143Y-75521429D01*
X154134286Y-76878571D02*
X153420000Y-76878571D01*
X153420000Y-75378571D01*
X154634286Y-76878571D02*
X154634286Y-75378571D01*
X155491429Y-76878571D02*
X154848572Y-76021429D01*
X155491429Y-75378571D02*
X154634286Y-76235714D01*
X151670000Y-72838571D02*
X152170000Y-74338571D01*
X152670000Y-72838571D01*
X153170000Y-74338571D02*
X153170000Y-72838571D01*
X153527143Y-72838571D01*
X153741428Y-72910000D01*
X153884286Y-73052857D01*
X153955714Y-73195714D01*
X154027143Y-73481429D01*
X154027143Y-73695714D01*
X153955714Y-73981429D01*
X153884286Y-74124286D01*
X153741428Y-74267143D01*
X153527143Y-74338571D01*
X153170000Y-74338571D01*
X154670000Y-74338571D02*
X154670000Y-72838571D01*
X155027143Y-72838571D01*
X155241428Y-72910000D01*
X155384286Y-73052857D01*
X155455714Y-73195714D01*
X155527143Y-73481429D01*
X155527143Y-73695714D01*
X155455714Y-73981429D01*
X155384286Y-74124286D01*
X155241428Y-74267143D01*
X155027143Y-74338571D01*
X154670000Y-74338571D01*
D12*
X124005000Y-73130000D02*
X124005000Y-76730000D01*
X127455000Y-76730000D02*
X127455000Y-73130000D01*
X127455000Y-86890000D02*
X127455000Y-83290000D01*
X124005000Y-83290000D02*
X124005000Y-86890000D01*
X131191000Y-66040000D02*
X130429000Y-66040000D01*
X130810000Y-65659000D02*
X130810000Y-66421000D01*
X131064000Y-68326000D02*
X127254000Y-68326000D01*
X131826000Y-64516000D02*
X131826000Y-67564000D01*
X131064000Y-68326000D02*
X131826000Y-67564000D01*
X131064000Y-63754000D02*
X127254000Y-63754000D01*
X131064000Y-63754000D02*
X131826000Y-64516000D01*
X127508000Y-66167000D02*
X127508000Y-65913000D01*
X127635000Y-65405000D02*
X127635000Y-66675000D01*
X127762000Y-66929000D02*
X127762000Y-65151000D01*
X127889000Y-67183000D02*
X127889000Y-64897000D01*
X128016000Y-64770000D02*
X128016000Y-67310000D01*
X128143000Y-67437000D02*
X128143000Y-64643000D01*
X128270000Y-64516000D02*
X128270000Y-67564000D01*
X128397000Y-64389000D02*
X128397000Y-67691000D01*
X127254000Y-63754000D02*
X127254000Y-68326000D01*
X131572000Y-66040000D02*
G75*
G03X131572000Y-66040000I-2032000J0D01*
G01*
X146505000Y-80540000D02*
X146505000Y-76940000D01*
X143055000Y-76940000D02*
X143055000Y-80540000D01*
X140230000Y-83365000D02*
X136630000Y-83365000D01*
X136630000Y-86815000D02*
X140230000Y-86815000D01*
X123645000Y-99590000D02*
X123645000Y-95990000D01*
X120195000Y-95990000D02*
X120195000Y-99590000D01*
X120269000Y-66040000D02*
X121031000Y-66040000D01*
X120650000Y-66421000D02*
X120650000Y-65659000D01*
X120396000Y-63754000D02*
X124206000Y-63754000D01*
X119634000Y-67564000D02*
X119634000Y-64516000D01*
X120396000Y-63754000D02*
X119634000Y-64516000D01*
X120396000Y-68326000D02*
X124206000Y-68326000D01*
X120396000Y-68326000D02*
X119634000Y-67564000D01*
X123952000Y-65913000D02*
X123952000Y-66167000D01*
X123825000Y-66675000D02*
X123825000Y-65405000D01*
X123698000Y-65151000D02*
X123698000Y-66929000D01*
X123571000Y-64897000D02*
X123571000Y-67183000D01*
X123444000Y-67310000D02*
X123444000Y-64770000D01*
X123317000Y-64643000D02*
X123317000Y-67437000D01*
X123190000Y-67564000D02*
X123190000Y-64516000D01*
X123063000Y-67691000D02*
X123063000Y-64389000D01*
X124206000Y-68326000D02*
X124206000Y-63754000D01*
X123952000Y-66040000D02*
G75*
G03X123952000Y-66040000I-2032000J0D01*
G01*
X152855000Y-99590000D02*
X152855000Y-95990000D01*
X149405000Y-95990000D02*
X149405000Y-99590000D01*
X118925000Y-56620000D02*
X118925000Y-60220000D01*
X122375000Y-60220000D02*
X122375000Y-56620000D01*
X139245000Y-95990000D02*
X139245000Y-99590000D01*
X142695000Y-99590000D02*
X142695000Y-95990000D01*
X133805000Y-99590000D02*
X133805000Y-95990000D01*
X130355000Y-95990000D02*
X130355000Y-99590000D01*
X122310000Y-48040000D02*
X125910000Y-48040000D01*
X122310000Y-45940000D02*
X125910000Y-45940000D01*
X124360000Y-46690000D02*
X124360000Y-47290000D01*
X124360000Y-47290000D02*
X124060000Y-46990000D01*
X124060000Y-46990000D02*
X124260000Y-46790000D01*
X124260000Y-46790000D02*
X124260000Y-47040000D01*
X124260000Y-47040000D02*
X124210000Y-46990000D01*
X123960000Y-46490000D02*
X123960000Y-47490000D01*
X124460000Y-46990000D02*
X124960000Y-46990000D01*
X123960000Y-46990000D02*
X124460000Y-46490000D01*
X124460000Y-46490000D02*
X124460000Y-47490000D01*
X124460000Y-47490000D02*
X123960000Y-46990000D01*
D13*
X145326100Y-126746000D02*
X145326100Y-120650000D01*
X145326100Y-126746000D02*
X128993900Y-126746000D01*
X128993900Y-126746000D02*
X128993900Y-120650000D01*
X152565100Y-120650000D02*
X121754900Y-120650000D01*
X121754900Y-120650000D02*
X121754900Y-104648000D01*
X121754900Y-104648000D02*
X152565100Y-104648000D01*
X152565100Y-120650000D02*
X152565100Y-104648000D01*
D12*
X137160000Y-55880000D02*
X132080000Y-55880000D01*
X132080000Y-55880000D02*
X132080000Y-58420000D01*
X132080000Y-58420000D02*
X137160000Y-58420000D01*
X139980000Y-58700000D02*
X138430000Y-58700000D01*
X137160000Y-58420000D02*
X137160000Y-55880000D01*
X138430000Y-55600000D02*
X139980000Y-55600000D01*
X139980000Y-55600000D02*
X139980000Y-58700000D01*
X143256000Y-45720000D02*
X143256000Y-37084000D01*
X143256000Y-54102000D02*
X143256000Y-49022000D01*
X131064000Y-45720000D02*
X131064000Y-37084000D01*
X131064000Y-54102000D02*
X131064000Y-49022000D01*
X131064000Y-37084000D02*
X143256000Y-37084000D01*
X143256000Y-54102000D02*
X131064000Y-54102000D01*
X147040000Y-73660000D02*
X147040000Y-72110000D01*
X147040000Y-72110000D02*
X150140000Y-72110000D01*
X150140000Y-72110000D02*
X150140000Y-73660000D01*
X149860000Y-74930000D02*
X149860000Y-85090000D01*
X149860000Y-85090000D02*
X147320000Y-85090000D01*
X147320000Y-85090000D02*
X147320000Y-74930000D01*
X149860000Y-74930000D02*
X147320000Y-74930000D01*
X123460000Y-49325000D02*
X125460000Y-49325000D01*
X125460000Y-52275000D02*
X123460000Y-52275000D01*
X131080000Y-88695000D02*
X133080000Y-88695000D01*
X133080000Y-91645000D02*
X131080000Y-91645000D01*
X137430000Y-70915000D02*
X139430000Y-70915000D01*
X139430000Y-73865000D02*
X137430000Y-73865000D01*
X123444000Y-59944000D02*
X123444000Y-62992000D01*
X123444000Y-62992000D02*
X130556000Y-62992000D01*
X130556000Y-62992000D02*
X130556000Y-59944000D01*
X123444000Y-56896000D02*
X123444000Y-56134000D01*
X123444000Y-56134000D02*
X124968000Y-53848000D01*
X124968000Y-53848000D02*
X129032000Y-53848000D01*
X129032000Y-53848000D02*
X130556000Y-56134000D01*
X130556000Y-56134000D02*
X130556000Y-56896000D01*
D14*
X134430000Y-75740000D02*
G75*
G03X134430000Y-75740000I-200000J0D01*
G01*
X136230000Y-75340000D02*
X136230000Y-82140000D01*
X136230000Y-82140000D02*
X140630000Y-82140000D01*
X140630000Y-82140000D02*
X140630000Y-75340000D01*
X140630000Y-75340000D02*
X136230000Y-75340000D01*
X148590000Y-93599000D02*
G75*
G03X148590000Y-93599000I-254000J0D01*
G01*
X148549360Y-99989640D02*
X148549360Y-95590360D01*
X148549360Y-95590360D02*
X143550640Y-95590360D01*
X143550640Y-95590360D02*
X143550640Y-99989640D01*
X143550640Y-99989640D02*
X148549360Y-99989640D01*
X129540000Y-93599000D02*
G75*
G03X129540000Y-93599000I-254000J0D01*
G01*
X129499360Y-99989640D02*
X129499360Y-95590360D01*
X129499360Y-95590360D02*
X124500640Y-95590360D01*
X124500640Y-95590360D02*
X124500640Y-99989640D01*
X124500640Y-99989640D02*
X129499360Y-99989640D01*
D12*
X128310640Y-74160380D02*
X128310640Y-85859620D01*
X133309360Y-85859620D02*
X133309360Y-74160380D01*
X128310640Y-85859620D02*
X129159000Y-85859620D01*
X133309360Y-85859620D02*
X132461000Y-85859620D01*
X128310640Y-74160380D02*
X129159000Y-74160380D01*
X133309360Y-74160380D02*
X132461000Y-74160380D01*
X142980000Y-91895000D02*
X146580000Y-91895000D01*
X146580000Y-88445000D02*
X142980000Y-88445000D01*
X120870000Y-79130000D02*
X120870000Y-82730000D01*
X122970000Y-79130000D02*
X122970000Y-82730000D01*
X122220000Y-81180000D02*
X121620000Y-81180000D01*
X121620000Y-81180000D02*
X121920000Y-80880000D01*
X121920000Y-80880000D02*
X122120000Y-81080000D01*
X122120000Y-81080000D02*
X121870000Y-81080000D01*
X121870000Y-81080000D02*
X121920000Y-81030000D01*
X122420000Y-80780000D02*
X121420000Y-80780000D01*
X121920000Y-81280000D02*
X121920000Y-81780000D01*
X121920000Y-80780000D02*
X122420000Y-81280000D01*
X122420000Y-81280000D02*
X121420000Y-81280000D01*
X121420000Y-81280000D02*
X121920000Y-80780000D01*
X123395000Y-87900000D02*
X123395000Y-89900000D01*
X120445000Y-89900000D02*
X120445000Y-87900000D01*
X123087143Y-75096666D02*
X123134762Y-75144285D01*
X123182381Y-75287142D01*
X123182381Y-75382380D01*
X123134762Y-75525238D01*
X123039524Y-75620476D01*
X122944286Y-75668095D01*
X122753810Y-75715714D01*
X122610952Y-75715714D01*
X122420476Y-75668095D01*
X122325238Y-75620476D01*
X122230000Y-75525238D01*
X122182381Y-75382380D01*
X122182381Y-75287142D01*
X122230000Y-75144285D01*
X122277619Y-75096666D01*
X123182381Y-74144285D02*
X123182381Y-74715714D01*
X123182381Y-74430000D02*
X122182381Y-74430000D01*
X122325238Y-74525238D01*
X122420476Y-74620476D01*
X122468095Y-74715714D01*
X123547143Y-85256666D02*
X123594762Y-85304285D01*
X123642381Y-85447142D01*
X123642381Y-85542380D01*
X123594762Y-85685238D01*
X123499524Y-85780476D01*
X123404286Y-85828095D01*
X123213810Y-85875714D01*
X123070952Y-85875714D01*
X122880476Y-85828095D01*
X122785238Y-85780476D01*
X122690000Y-85685238D01*
X122642381Y-85542380D01*
X122642381Y-85447142D01*
X122690000Y-85304285D01*
X122737619Y-85256666D01*
X122737619Y-84875714D02*
X122690000Y-84828095D01*
X122642381Y-84732857D01*
X122642381Y-84494761D01*
X122690000Y-84399523D01*
X122737619Y-84351904D01*
X122832857Y-84304285D01*
X122928095Y-84304285D01*
X123070952Y-84351904D01*
X123642381Y-84923333D01*
X123642381Y-84304285D01*
X129373334Y-70207143D02*
X129325715Y-70254762D01*
X129182858Y-70302381D01*
X129087620Y-70302381D01*
X128944762Y-70254762D01*
X128849524Y-70159524D01*
X128801905Y-70064286D01*
X128754286Y-69873810D01*
X128754286Y-69730952D01*
X128801905Y-69540476D01*
X128849524Y-69445238D01*
X128944762Y-69350000D01*
X129087620Y-69302381D01*
X129182858Y-69302381D01*
X129325715Y-69350000D01*
X129373334Y-69397619D01*
X129706667Y-69302381D02*
X130325715Y-69302381D01*
X129992381Y-69683333D01*
X130135239Y-69683333D01*
X130230477Y-69730952D01*
X130278096Y-69778571D01*
X130325715Y-69873810D01*
X130325715Y-70111905D01*
X130278096Y-70207143D01*
X130230477Y-70254762D01*
X130135239Y-70302381D01*
X129849524Y-70302381D01*
X129754286Y-70254762D01*
X129706667Y-70207143D01*
X144613334Y-74017143D02*
X144565715Y-74064762D01*
X144422858Y-74112381D01*
X144327620Y-74112381D01*
X144184762Y-74064762D01*
X144089524Y-73969524D01*
X144041905Y-73874286D01*
X143994286Y-73683810D01*
X143994286Y-73540952D01*
X144041905Y-73350476D01*
X144089524Y-73255238D01*
X144184762Y-73160000D01*
X144327620Y-73112381D01*
X144422858Y-73112381D01*
X144565715Y-73160000D01*
X144613334Y-73207619D01*
X145470477Y-73445714D02*
X145470477Y-74112381D01*
X145232381Y-73064762D02*
X144994286Y-73779048D01*
X145613334Y-73779048D01*
X138263334Y-87987143D02*
X138215715Y-88034762D01*
X138072858Y-88082381D01*
X137977620Y-88082381D01*
X137834762Y-88034762D01*
X137739524Y-87939524D01*
X137691905Y-87844286D01*
X137644286Y-87653810D01*
X137644286Y-87510952D01*
X137691905Y-87320476D01*
X137739524Y-87225238D01*
X137834762Y-87130000D01*
X137977620Y-87082381D01*
X138072858Y-87082381D01*
X138215715Y-87130000D01*
X138263334Y-87177619D01*
X139168096Y-87082381D02*
X138691905Y-87082381D01*
X138644286Y-87558571D01*
X138691905Y-87510952D01*
X138787143Y-87463333D01*
X139025239Y-87463333D01*
X139120477Y-87510952D01*
X139168096Y-87558571D01*
X139215715Y-87653810D01*
X139215715Y-87891905D01*
X139168096Y-87987143D01*
X139120477Y-88034762D01*
X139025239Y-88082381D01*
X138787143Y-88082381D01*
X138691905Y-88034762D01*
X138644286Y-87987143D01*
X119737143Y-97956666D02*
X119784762Y-98004285D01*
X119832381Y-98147142D01*
X119832381Y-98242380D01*
X119784762Y-98385238D01*
X119689524Y-98480476D01*
X119594286Y-98528095D01*
X119403810Y-98575714D01*
X119260952Y-98575714D01*
X119070476Y-98528095D01*
X118975238Y-98480476D01*
X118880000Y-98385238D01*
X118832381Y-98242380D01*
X118832381Y-98147142D01*
X118880000Y-98004285D01*
X118927619Y-97956666D01*
X118832381Y-97099523D02*
X118832381Y-97290000D01*
X118880000Y-97385238D01*
X118927619Y-97432857D01*
X119070476Y-97528095D01*
X119260952Y-97575714D01*
X119641905Y-97575714D01*
X119737143Y-97528095D01*
X119784762Y-97480476D01*
X119832381Y-97385238D01*
X119832381Y-97194761D01*
X119784762Y-97099523D01*
X119737143Y-97051904D01*
X119641905Y-97004285D01*
X119403810Y-97004285D01*
X119308571Y-97051904D01*
X119260952Y-97099523D01*
X119213333Y-97194761D01*
X119213333Y-97385238D01*
X119260952Y-97480476D01*
X119308571Y-97528095D01*
X119403810Y-97575714D01*
X121753334Y-70207143D02*
X121705715Y-70254762D01*
X121562858Y-70302381D01*
X121467620Y-70302381D01*
X121324762Y-70254762D01*
X121229524Y-70159524D01*
X121181905Y-70064286D01*
X121134286Y-69873810D01*
X121134286Y-69730952D01*
X121181905Y-69540476D01*
X121229524Y-69445238D01*
X121324762Y-69350000D01*
X121467620Y-69302381D01*
X121562858Y-69302381D01*
X121705715Y-69350000D01*
X121753334Y-69397619D01*
X122086667Y-69302381D02*
X122753334Y-69302381D01*
X122324762Y-70302381D01*
X154487143Y-97956666D02*
X154534762Y-98004285D01*
X154582381Y-98147142D01*
X154582381Y-98242380D01*
X154534762Y-98385238D01*
X154439524Y-98480476D01*
X154344286Y-98528095D01*
X154153810Y-98575714D01*
X154010952Y-98575714D01*
X153820476Y-98528095D01*
X153725238Y-98480476D01*
X153630000Y-98385238D01*
X153582381Y-98242380D01*
X153582381Y-98147142D01*
X153630000Y-98004285D01*
X153677619Y-97956666D01*
X154010952Y-97385238D02*
X153963333Y-97480476D01*
X153915714Y-97528095D01*
X153820476Y-97575714D01*
X153772857Y-97575714D01*
X153677619Y-97528095D01*
X153630000Y-97480476D01*
X153582381Y-97385238D01*
X153582381Y-97194761D01*
X153630000Y-97099523D01*
X153677619Y-97051904D01*
X153772857Y-97004285D01*
X153820476Y-97004285D01*
X153915714Y-97051904D01*
X153963333Y-97099523D01*
X154010952Y-97194761D01*
X154010952Y-97385238D01*
X154058571Y-97480476D01*
X154106190Y-97528095D01*
X154201429Y-97575714D01*
X154391905Y-97575714D01*
X154487143Y-97528095D01*
X154534762Y-97480476D01*
X154582381Y-97385238D01*
X154582381Y-97194761D01*
X154534762Y-97099523D01*
X154487143Y-97051904D01*
X154391905Y-97004285D01*
X154201429Y-97004285D01*
X154106190Y-97051904D01*
X154058571Y-97099523D01*
X154010952Y-97194761D01*
X118007143Y-58586666D02*
X118054762Y-58634285D01*
X118102381Y-58777142D01*
X118102381Y-58872380D01*
X118054762Y-59015238D01*
X117959524Y-59110476D01*
X117864286Y-59158095D01*
X117673810Y-59205714D01*
X117530952Y-59205714D01*
X117340476Y-59158095D01*
X117245238Y-59110476D01*
X117150000Y-59015238D01*
X117102381Y-58872380D01*
X117102381Y-58777142D01*
X117150000Y-58634285D01*
X117197619Y-58586666D01*
X118102381Y-58110476D02*
X118102381Y-57920000D01*
X118054762Y-57824761D01*
X118007143Y-57777142D01*
X117864286Y-57681904D01*
X117673810Y-57634285D01*
X117292857Y-57634285D01*
X117197619Y-57681904D01*
X117150000Y-57729523D01*
X117102381Y-57824761D01*
X117102381Y-58015238D01*
X117150000Y-58110476D01*
X117197619Y-58158095D01*
X117292857Y-58205714D01*
X117530952Y-58205714D01*
X117626190Y-58158095D01*
X117673810Y-58110476D01*
X117721429Y-58015238D01*
X117721429Y-57824761D01*
X117673810Y-57729523D01*
X117626190Y-57681904D01*
X117530952Y-57634285D01*
X138327143Y-98432857D02*
X138374762Y-98480476D01*
X138422381Y-98623333D01*
X138422381Y-98718571D01*
X138374762Y-98861429D01*
X138279524Y-98956667D01*
X138184286Y-99004286D01*
X137993810Y-99051905D01*
X137850952Y-99051905D01*
X137660476Y-99004286D01*
X137565238Y-98956667D01*
X137470000Y-98861429D01*
X137422381Y-98718571D01*
X137422381Y-98623333D01*
X137470000Y-98480476D01*
X137517619Y-98432857D01*
X138422381Y-97480476D02*
X138422381Y-98051905D01*
X138422381Y-97766191D02*
X137422381Y-97766191D01*
X137565238Y-97861429D01*
X137660476Y-97956667D01*
X137708095Y-98051905D01*
X137422381Y-96861429D02*
X137422381Y-96766190D01*
X137470000Y-96670952D01*
X137517619Y-96623333D01*
X137612857Y-96575714D01*
X137803333Y-96528095D01*
X138041429Y-96528095D01*
X138231905Y-96575714D01*
X138327143Y-96623333D01*
X138374762Y-96670952D01*
X138422381Y-96766190D01*
X138422381Y-96861429D01*
X138374762Y-96956667D01*
X138327143Y-97004286D01*
X138231905Y-97051905D01*
X138041429Y-97099524D01*
X137803333Y-97099524D01*
X137612857Y-97051905D01*
X137517619Y-97004286D01*
X137470000Y-96956667D01*
X137422381Y-96861429D01*
X135437143Y-98432857D02*
X135484762Y-98480476D01*
X135532381Y-98623333D01*
X135532381Y-98718571D01*
X135484762Y-98861429D01*
X135389524Y-98956667D01*
X135294286Y-99004286D01*
X135103810Y-99051905D01*
X134960952Y-99051905D01*
X134770476Y-99004286D01*
X134675238Y-98956667D01*
X134580000Y-98861429D01*
X134532381Y-98718571D01*
X134532381Y-98623333D01*
X134580000Y-98480476D01*
X134627619Y-98432857D01*
X135532381Y-97480476D02*
X135532381Y-98051905D01*
X135532381Y-97766191D02*
X134532381Y-97766191D01*
X134675238Y-97861429D01*
X134770476Y-97956667D01*
X134818095Y-98051905D01*
X135532381Y-96528095D02*
X135532381Y-97099524D01*
X135532381Y-96813810D02*
X134532381Y-96813810D01*
X134675238Y-96909048D01*
X134770476Y-97004286D01*
X134818095Y-97099524D01*
X121102381Y-47728095D02*
X120102381Y-47728095D01*
X120102381Y-47490000D01*
X120150000Y-47347142D01*
X120245238Y-47251904D01*
X120340476Y-47204285D01*
X120530952Y-47156666D01*
X120673810Y-47156666D01*
X120864286Y-47204285D01*
X120959524Y-47251904D01*
X121054762Y-47347142D01*
X121102381Y-47490000D01*
X121102381Y-47728095D01*
X121102381Y-46204285D02*
X121102381Y-46775714D01*
X121102381Y-46490000D02*
X120102381Y-46490000D01*
X120245238Y-46585238D01*
X120340476Y-46680476D01*
X120388095Y-46775714D01*
X141422381Y-57888095D02*
X140422381Y-57888095D01*
X140422381Y-57507142D01*
X140470000Y-57411904D01*
X140517619Y-57364285D01*
X140612857Y-57316666D01*
X140755714Y-57316666D01*
X140850952Y-57364285D01*
X140898571Y-57411904D01*
X140946190Y-57507142D01*
X140946190Y-57888095D01*
X141422381Y-56364285D02*
X141422381Y-56935714D01*
X141422381Y-56650000D02*
X140422381Y-56650000D01*
X140565238Y-56745238D01*
X140660476Y-56840476D01*
X140708095Y-56935714D01*
X128722381Y-47728095D02*
X127722381Y-47728095D01*
X127722381Y-47347142D01*
X127770000Y-47251904D01*
X127817619Y-47204285D01*
X127912857Y-47156666D01*
X128055714Y-47156666D01*
X128150952Y-47204285D01*
X128198571Y-47251904D01*
X128246190Y-47347142D01*
X128246190Y-47728095D01*
X127817619Y-46775714D02*
X127770000Y-46728095D01*
X127722381Y-46632857D01*
X127722381Y-46394761D01*
X127770000Y-46299523D01*
X127817619Y-46251904D01*
X127912857Y-46204285D01*
X128008095Y-46204285D01*
X128150952Y-46251904D01*
X128722381Y-46823333D01*
X128722381Y-46204285D01*
X147851905Y-86812381D02*
X147851905Y-85812381D01*
X148232858Y-85812381D01*
X148328096Y-85860000D01*
X148375715Y-85907619D01*
X148423334Y-86002857D01*
X148423334Y-86145714D01*
X148375715Y-86240952D01*
X148328096Y-86288571D01*
X148232858Y-86336190D01*
X147851905Y-86336190D01*
X148756667Y-85812381D02*
X149375715Y-85812381D01*
X149042381Y-86193333D01*
X149185239Y-86193333D01*
X149280477Y-86240952D01*
X149328096Y-86288571D01*
X149375715Y-86383810D01*
X149375715Y-86621905D01*
X149328096Y-86717143D01*
X149280477Y-86764762D01*
X149185239Y-86812381D01*
X148899524Y-86812381D01*
X148804286Y-86764762D01*
X148756667Y-86717143D01*
X121102381Y-50966666D02*
X120626190Y-51300000D01*
X121102381Y-51538095D02*
X120102381Y-51538095D01*
X120102381Y-51157142D01*
X120150000Y-51061904D01*
X120197619Y-51014285D01*
X120292857Y-50966666D01*
X120435714Y-50966666D01*
X120530952Y-51014285D01*
X120578571Y-51061904D01*
X120626190Y-51157142D01*
X120626190Y-51538095D01*
X121102381Y-50014285D02*
X121102381Y-50585714D01*
X121102381Y-50300000D02*
X120102381Y-50300000D01*
X120245238Y-50395238D01*
X120340476Y-50490476D01*
X120388095Y-50585714D01*
X131913334Y-93322381D02*
X131580000Y-92846190D01*
X131341905Y-93322381D02*
X131341905Y-92322381D01*
X131722858Y-92322381D01*
X131818096Y-92370000D01*
X131865715Y-92417619D01*
X131913334Y-92512857D01*
X131913334Y-92655714D01*
X131865715Y-92750952D01*
X131818096Y-92798571D01*
X131722858Y-92846190D01*
X131341905Y-92846190D01*
X132294286Y-92417619D02*
X132341905Y-92370000D01*
X132437143Y-92322381D01*
X132675239Y-92322381D01*
X132770477Y-92370000D01*
X132818096Y-92417619D01*
X132865715Y-92512857D01*
X132865715Y-92608095D01*
X132818096Y-92750952D01*
X132246667Y-93322381D01*
X132865715Y-93322381D01*
X138263334Y-75382381D02*
X137930000Y-74906190D01*
X137691905Y-75382381D02*
X137691905Y-74382381D01*
X138072858Y-74382381D01*
X138168096Y-74430000D01*
X138215715Y-74477619D01*
X138263334Y-74572857D01*
X138263334Y-74715714D01*
X138215715Y-74810952D01*
X138168096Y-74858571D01*
X138072858Y-74906190D01*
X137691905Y-74906190D01*
X138596667Y-74382381D02*
X139215715Y-74382381D01*
X138882381Y-74763333D01*
X139025239Y-74763333D01*
X139120477Y-74810952D01*
X139168096Y-74858571D01*
X139215715Y-74953810D01*
X139215715Y-75191905D01*
X139168096Y-75287143D01*
X139120477Y-75334762D01*
X139025239Y-75382381D01*
X138739524Y-75382381D01*
X138644286Y-75334762D01*
X138596667Y-75287143D01*
X126238095Y-57110381D02*
X126238095Y-57919905D01*
X126285714Y-58015143D01*
X126333333Y-58062762D01*
X126428571Y-58110381D01*
X126619048Y-58110381D01*
X126714286Y-58062762D01*
X126761905Y-58015143D01*
X126809524Y-57919905D01*
X126809524Y-57110381D01*
X127809524Y-58110381D02*
X127238095Y-58110381D01*
X127523809Y-58110381D02*
X127523809Y-57110381D01*
X127428571Y-57253238D01*
X127333333Y-57348476D01*
X127238095Y-57396095D01*
D15*
X137849429Y-82132714D02*
X137849429Y-82749571D01*
X137885714Y-82822143D01*
X137922000Y-82858429D01*
X137994571Y-82894714D01*
X138139714Y-82894714D01*
X138212286Y-82858429D01*
X138248571Y-82822143D01*
X138284857Y-82749571D01*
X138284857Y-82132714D01*
X138611429Y-82205286D02*
X138647715Y-82169000D01*
X138720286Y-82132714D01*
X138901715Y-82132714D01*
X138974286Y-82169000D01*
X139010572Y-82205286D01*
X139046857Y-82277857D01*
X139046857Y-82350429D01*
X139010572Y-82459286D01*
X138575143Y-82894714D01*
X139046857Y-82894714D01*
X145469429Y-102452714D02*
X145469429Y-103069571D01*
X145505714Y-103142143D01*
X145542000Y-103178429D01*
X145614571Y-103214714D01*
X145759714Y-103214714D01*
X145832286Y-103178429D01*
X145868571Y-103142143D01*
X145904857Y-103069571D01*
X145904857Y-102452714D01*
X146195143Y-102452714D02*
X146666857Y-102452714D01*
X146412857Y-102743000D01*
X146521715Y-102743000D01*
X146594286Y-102779286D01*
X146630572Y-102815571D01*
X146666857Y-102888143D01*
X146666857Y-103069571D01*
X146630572Y-103142143D01*
X146594286Y-103178429D01*
X146521715Y-103214714D01*
X146304000Y-103214714D01*
X146231429Y-103178429D01*
X146195143Y-103142143D01*
X126419429Y-102452714D02*
X126419429Y-103069571D01*
X126455714Y-103142143D01*
X126492000Y-103178429D01*
X126564571Y-103214714D01*
X126709714Y-103214714D01*
X126782286Y-103178429D01*
X126818571Y-103142143D01*
X126854857Y-103069571D01*
X126854857Y-102452714D01*
X127544286Y-102706714D02*
X127544286Y-103214714D01*
X127362857Y-102416429D02*
X127181429Y-102960714D01*
X127653143Y-102960714D01*
D12*
X133326190Y-72866191D02*
X133802381Y-72866191D01*
X132802381Y-73199524D02*
X133326190Y-72866191D01*
X132802381Y-72532857D01*
X133802381Y-71675714D02*
X133802381Y-72247143D01*
X133802381Y-71961429D02*
X132802381Y-71961429D01*
X132945238Y-72056667D01*
X133040476Y-72151905D01*
X133088095Y-72247143D01*
X144137143Y-87987143D02*
X144089524Y-88034762D01*
X143946667Y-88082381D01*
X143851429Y-88082381D01*
X143708571Y-88034762D01*
X143613333Y-87939524D01*
X143565714Y-87844286D01*
X143518095Y-87653810D01*
X143518095Y-87510952D01*
X143565714Y-87320476D01*
X143613333Y-87225238D01*
X143708571Y-87130000D01*
X143851429Y-87082381D01*
X143946667Y-87082381D01*
X144089524Y-87130000D01*
X144137143Y-87177619D01*
X145089524Y-88082381D02*
X144518095Y-88082381D01*
X144803809Y-88082381D02*
X144803809Y-87082381D01*
X144708571Y-87225238D01*
X144613333Y-87320476D01*
X144518095Y-87368095D01*
X145470476Y-87177619D02*
X145518095Y-87130000D01*
X145613333Y-87082381D01*
X145851429Y-87082381D01*
X145946667Y-87130000D01*
X145994286Y-87177619D01*
X146041905Y-87272857D01*
X146041905Y-87368095D01*
X145994286Y-87510952D01*
X145422857Y-88082381D01*
X146041905Y-88082381D01*
X119832381Y-82018095D02*
X118832381Y-82018095D01*
X118832381Y-81780000D01*
X118880000Y-81637142D01*
X118975238Y-81541904D01*
X119070476Y-81494285D01*
X119260952Y-81446666D01*
X119403810Y-81446666D01*
X119594286Y-81494285D01*
X119689524Y-81541904D01*
X119784762Y-81637142D01*
X119832381Y-81780000D01*
X119832381Y-82018095D01*
X118927619Y-81065714D02*
X118880000Y-81018095D01*
X118832381Y-80922857D01*
X118832381Y-80684761D01*
X118880000Y-80589523D01*
X118927619Y-80541904D01*
X119022857Y-80494285D01*
X119118095Y-80494285D01*
X119260952Y-80541904D01*
X119832381Y-81113333D01*
X119832381Y-80494285D01*
X119832381Y-89066666D02*
X119356190Y-89400000D01*
X119832381Y-89638095D02*
X118832381Y-89638095D01*
X118832381Y-89257142D01*
X118880000Y-89161904D01*
X118927619Y-89114285D01*
X119022857Y-89066666D01*
X119165714Y-89066666D01*
X119260952Y-89114285D01*
X119308571Y-89161904D01*
X119356190Y-89257142D01*
X119356190Y-89638095D01*
X119165714Y-88209523D02*
X119832381Y-88209523D01*
X118784762Y-88447619D02*
X119499048Y-88685714D01*
X119499048Y-88066666D01*
M02*
