G04 #@! TF.FileFunction,Soldermask,Top*
%FSLAX46Y46*%
G04 Gerber Fmt 4.6, Leading zero omitted, Abs format (unit mm)*
G04 Created by KiCad (PCBNEW 4.0.6+dfsg1-1) date Wed Jan 10 10:56:04 2018*
%MOMM*%
%LPD*%
G01*
G04 APERTURE LIST*
%ADD10C,0.100000*%
%ADD11R,3.400000X2.600000*%
%ADD12R,2.600000X3.400000*%
%ADD13R,3.000000X2.000000*%
%ADD14R,1.900000X1.900000*%
%ADD15R,2.100000X2.100000*%
%ADD16O,2.100000X2.100000*%
%ADD17C,1.920000*%
%ADD18C,3.100000*%
%ADD19C,4.464000*%
%ADD20C,2.000200*%
%ADD21R,2.400000X2.900000*%
%ADD22C,2.400000*%
%ADD23R,2.400000X4.200000*%
%ADD24R,2.400000X1.900000*%
%ADD25R,1.700000X0.650000*%
%ADD26R,0.650000X1.700000*%
%ADD27R,2.400000X8.275000*%
G04 APERTURE END LIST*
D10*
D11*
X20320000Y-12975000D03*
X20320000Y-18775000D03*
D12*
X37190000Y-13970000D03*
X31390000Y-13970000D03*
X31390000Y-29210000D03*
X37190000Y-29210000D03*
D11*
X41910000Y-41000000D03*
X41910000Y-35200000D03*
X20320000Y-30205000D03*
X20320000Y-24405000D03*
X41910000Y-24490000D03*
X41910000Y-18690000D03*
D13*
X47520000Y-11430000D03*
X43920000Y-11430000D03*
X47520000Y-5080000D03*
X43920000Y-5080000D03*
D12*
X51710000Y-12700000D03*
X57510000Y-12700000D03*
D14*
X63500000Y-7240000D03*
X63500000Y-10540000D03*
X63500000Y-35180000D03*
X63500000Y-38480000D03*
D15*
X48895000Y-36195000D03*
D16*
X51435000Y-36195000D03*
X53975000Y-36195000D03*
D15*
X24130000Y-36195000D03*
D16*
X21590000Y-36195000D03*
D17*
X54610000Y-23770000D03*
X54610000Y-21230000D03*
X56610000Y-21230000D03*
X56610000Y-23770000D03*
D18*
X59310000Y-28500000D03*
X59310000Y-16500000D03*
D19*
X11430000Y-34999340D03*
X11430000Y-10000660D03*
D20*
X8890000Y-17670000D03*
X11430000Y-18815000D03*
X8890000Y-19960000D03*
X8890000Y-22250000D03*
X8890000Y-24540000D03*
X8890000Y-26830000D03*
X11430000Y-21105000D03*
X11430000Y-23395000D03*
X11430000Y-25685000D03*
X11430000Y-27975000D03*
X13970000Y-17670000D03*
X13970000Y-19960000D03*
X13970000Y-22250000D03*
X13970000Y-24540000D03*
X13970000Y-26830000D03*
D15*
X40005000Y-9525000D03*
D16*
X37465000Y-9525000D03*
X34925000Y-9525000D03*
X32385000Y-9525000D03*
X29845000Y-9525000D03*
D21*
X61500000Y-3810000D03*
X65500000Y-3810000D03*
X61500000Y-41910000D03*
X65500000Y-41910000D03*
X20860000Y-8255000D03*
X24860000Y-8255000D03*
D22*
X31115000Y-38790000D03*
X31115000Y-34290000D03*
X37615000Y-38790000D03*
X37615000Y-34290000D03*
D23*
X57760000Y-6350000D03*
D24*
X51460000Y-6350000D03*
X51460000Y-8650000D03*
X51460000Y-4050000D03*
D25*
X29940000Y-18840000D03*
X29940000Y-19340000D03*
X29940000Y-19840000D03*
X29940000Y-20340000D03*
X29940000Y-20840000D03*
X29940000Y-21340000D03*
X29940000Y-21840000D03*
X29940000Y-22340000D03*
X29940000Y-22840000D03*
X29940000Y-23340000D03*
X29940000Y-23840000D03*
X29940000Y-24340000D03*
D26*
X31540000Y-25940000D03*
X32040000Y-25940000D03*
X32540000Y-25940000D03*
X33040000Y-25940000D03*
X33540000Y-25940000D03*
X34040000Y-25940000D03*
X34540000Y-25940000D03*
X35040000Y-25940000D03*
X35540000Y-25940000D03*
X36040000Y-25940000D03*
X36540000Y-25940000D03*
X37040000Y-25940000D03*
D25*
X38640000Y-24340000D03*
X38640000Y-23840000D03*
X38640000Y-23340000D03*
X38640000Y-22840000D03*
X38640000Y-22340000D03*
X38640000Y-21840000D03*
X38640000Y-21340000D03*
X38640000Y-20840000D03*
X38640000Y-20340000D03*
X38640000Y-19840000D03*
X38640000Y-19340000D03*
X38640000Y-18840000D03*
D26*
X37040000Y-17240000D03*
X36540000Y-17240000D03*
X36040000Y-17240000D03*
X35540000Y-17240000D03*
X35040000Y-17240000D03*
X34540000Y-17240000D03*
X34040000Y-17240000D03*
X33540000Y-17240000D03*
X33040000Y-17240000D03*
X32540000Y-17240000D03*
X32040000Y-17240000D03*
X31540000Y-17240000D03*
D27*
X25400000Y-15652500D03*
X25400000Y-27527500D03*
M02*
